<svg width="270" height="239" viewBox="0 0 270 239" fill="none" xmlns="http://www.w3.org/2000/svg">
<path d="M270 177.656C270 177.716 211.792 177.835 139.976 177.835C68.1594 177.835 9.95117 177.776 9.95117 177.656C9.95117 177.596 68.1594 177.476 139.976 177.476C211.792 177.476 270 177.596 270 177.656Z" fill="#CBF7E3"/>
<path d="M229.416 132.232C229.595 132.052 230.974 133.01 232.713 134.985C233.612 135.942 234.571 137.199 235.47 138.695C236.429 140.191 237.329 141.867 238.168 143.722C238.947 145.578 239.547 147.433 239.966 149.109C240.386 150.784 240.626 152.34 240.746 153.657C240.985 156.29 240.746 157.906 240.506 157.906C239.846 157.966 239.307 151.622 236.19 144.56C233.192 137.438 228.936 132.65 229.416 132.232Z" fill="#CBF7E3"/>
<path d="M242.604 163.113C242.304 163.173 241.585 159.702 240.865 153.956C240.146 148.271 239.547 140.371 239.367 131.633C239.127 122.895 239.247 114.995 239.427 109.25C239.606 103.504 239.846 99.9734 240.146 99.9734C240.446 99.9734 240.686 103.504 240.925 109.25C241.105 114.935 241.285 122.835 241.525 131.573C241.765 140.251 242.124 148.151 242.424 153.837C242.664 159.582 242.904 163.113 242.604 163.113Z" fill="#CBF7E3"/>
<path d="M255.373 113.499C255.672 113.679 254.533 116.073 253.095 120.142C251.596 124.212 249.798 129.838 247.999 136.182C246.261 142.525 244.882 148.331 244.043 152.52C243.203 156.709 242.904 159.403 242.544 159.403C242.304 159.403 242.064 156.65 242.544 152.34C243.024 147.972 244.163 142.047 245.961 135.643C247.759 129.239 249.798 123.554 251.656 119.604C253.514 115.594 255.133 113.32 255.373 113.499Z" fill="#CBF7E3"/>
<path d="M226.179 155.871V162.814C226.179 171.013 232.833 177.656 241.045 177.656C249.258 177.656 255.912 171.013 255.912 162.814V155.871H226.179Z" fill="#CBF7E3"/>
<path d="M256.152 161.736C256.152 161.856 249.438 161.976 241.165 161.976C232.893 161.976 226.179 161.856 226.179 161.736C226.179 161.617 232.893 161.497 241.165 161.497C249.438 161.557 256.152 161.617 256.152 161.736Z" fill="#E9FAF7"/>
<path d="M256.152 163.651C256.152 163.771 249.438 163.891 241.165 163.891C232.893 163.891 226.179 163.771 226.179 163.651C226.179 163.532 232.893 163.412 241.165 163.412C249.438 163.472 256.152 163.532 256.152 163.651Z" fill="#E9FAF7"/>
<path d="M248.601 0.789062H202.888V48.4008H248.601V0.789062Z" fill="#CBF7E3"/>
<path d="M245.515 0.789062H199.801V48.4008H245.515V0.789062Z" fill="#CBF7E3"/>
<path d="M239.342 7.19189H205.925V41.9981H239.342V7.19189Z" fill="#E9FAF7"/>
<path d="M205.925 42.2388C205.925 42.287 205.636 42.624 205.105 43.2017C204.575 43.7794 203.803 44.5015 202.984 45.368C202.164 46.1864 201.392 46.9567 200.814 47.4381C200.235 47.9676 199.898 48.2565 199.849 48.2565C199.801 48.2084 200.139 47.8714 200.669 47.2937C201.199 46.716 201.971 45.9939 202.791 45.1273C203.61 44.3089 204.43 43.5386 204.961 43.0091C205.539 42.4795 205.925 42.1907 205.925 42.2388Z" fill="#CBF7E3"/>
<path d="M239.39 42.1423C239.439 42.1423 239.776 42.4312 240.355 42.9607C240.933 43.4903 241.657 44.2606 242.525 45.079C243.344 45.8974 244.116 46.6676 244.598 47.2453C245.129 47.823 245.418 48.16 245.418 48.2081C245.37 48.2563 245.032 47.9193 244.453 47.3897C243.875 46.8602 243.152 46.0899 242.284 45.2715C241.464 44.4531 240.692 43.6347 240.162 43.1052C239.68 42.5275 239.342 42.1423 239.39 42.1423Z" fill="#CBF7E3"/>
<path d="M239.294 7.28817C239.294 7.24003 239.583 6.90304 240.114 6.32534C240.644 5.74765 241.416 5.02553 242.235 4.15899C243.055 3.34058 243.827 2.57032 244.405 2.08891C244.984 1.55936 245.322 1.27051 245.37 1.27051C245.418 1.31865 245.081 1.65564 244.55 2.23333C244.02 2.81103 243.248 3.53315 242.428 4.39969C241.609 5.21809 240.789 5.98836 240.258 6.51791C239.68 6.99932 239.294 7.28817 239.294 7.28817Z" fill="#CBF7E3"/>
<path d="M205.877 7.38457C205.829 7.38457 205.491 7.09573 204.913 6.56617C204.334 6.03662 203.611 5.26636 202.743 4.44796C201.923 3.62955 201.152 2.85929 200.669 2.2816C200.139 1.7039 199.85 1.36691 199.85 1.31877C199.898 1.27063 200.235 1.60762 200.814 2.13717C201.393 2.66673 202.116 3.43699 202.984 4.25539C203.804 5.07379 204.575 5.89219 205.106 6.42175C205.588 6.99944 205.877 7.33643 205.877 7.38457Z" fill="#CBF7E3"/>
<path d="M239.294 41.9979C239.294 41.9979 239.294 41.9498 239.294 41.8535C239.294 41.7572 239.294 41.5647 239.294 41.3721C239.294 40.9388 239.294 40.313 239.294 39.4946C239.294 37.8578 239.294 35.4507 239.246 32.4178C239.246 26.3039 239.197 17.6384 239.197 7.23993L239.294 7.33621C229.553 7.33621 218.125 7.33621 205.973 7.33621L206.118 7.19179C206.118 19.9492 206.118 31.9364 206.118 41.9979L206.022 41.9017C216.003 41.9017 224.345 41.9498 230.18 41.9498C233.073 41.9498 235.388 41.9498 236.979 41.9979C237.751 41.9979 238.378 41.9979 238.764 41.9979C238.956 41.9979 239.101 41.9979 239.246 41.9979H239.294C239.294 41.9979 239.246 41.9979 239.149 41.9979C239.053 41.9979 238.908 41.9979 238.715 41.9979C238.33 41.9979 237.703 41.9979 236.931 41.9979C235.388 41.9979 233.073 41.9979 230.18 42.0461C224.345 42.0461 216.003 42.0942 205.973 42.0942H205.877V41.9979C205.877 31.9364 205.877 19.9492 205.877 7.19179V7.04736H206.022C218.221 7.04736 229.65 7.04736 239.342 7.04736H239.439V7.14365C239.439 17.5903 239.39 26.3039 239.39 32.3697C239.39 35.4026 239.39 37.8097 239.342 39.4465C239.342 40.2649 239.342 40.8907 239.342 41.324C239.342 41.5165 239.342 41.661 239.342 41.8054C239.294 41.9498 239.294 41.9979 239.294 41.9979Z" fill="#CBF7E3"/>
<path d="M214.75 21.7305C214.75 21.7305 214.026 30.3478 223.381 30.3478C223.381 25.7262 219.62 22.1156 214.75 21.7305Z" fill="#CBF7E3"/>
<path d="M231.868 21.7305C231.868 21.7305 223.237 21.0084 223.237 30.3478C227.866 30.3478 231.483 26.5446 231.868 21.7305Z" fill="#CBF7E3"/>
<path d="M222.995 17.0127C222.995 17.0127 215.955 23.3192 223.381 30.3478C226.853 26.6891 226.515 20.9603 222.995 17.0127Z" fill="#CBF7E3"/>
<path d="M71.616 22.9363H39.7285V56.1175H71.616V22.9363Z" fill="#CBF7E3"/>
<path d="M69.4744 22.9363H37.5869V56.1175H69.4744V22.9363Z" fill="#E9FAF7"/>
<path d="M69.4741 56.1175H37.5469V22.9363H69.4741V56.1175ZM37.5865 56.1175H69.4741V22.9363H37.5865V56.1175Z" fill="#CBF7E3"/>
<path d="M65.1908 27.4106H41.8701V51.6828H65.1908V27.4106Z" fill="#E9FAF7"/>
<path d="M41.8696 51.8412C41.8696 51.8807 41.6713 52.1183 41.2747 52.5143C40.9178 52.9102 40.3625 53.425 39.8073 54.0189C39.2123 54.6129 38.6967 55.1276 38.3001 55.484C37.9035 55.8403 37.6656 56.0779 37.6259 56.0383C37.5862 55.9987 37.8242 55.7611 38.1811 55.3652C38.5381 54.9692 39.0934 54.4545 39.6486 53.8605C40.2435 53.2666 40.7591 52.7519 41.1557 52.3955C41.592 51.9995 41.83 51.8016 41.8696 51.8412Z" fill="#CBF7E3"/>
<path d="M65.1905 51.762C65.2302 51.762 65.4682 51.9599 65.8648 52.3559C66.2614 52.7123 66.777 53.2666 67.3719 53.8209C67.9668 54.4149 68.4824 54.9296 68.8393 55.3256C69.1963 55.7215 69.4343 55.9591 69.3946 55.9987C69.3549 56.0383 69.117 55.8007 68.7204 55.4444C68.3238 55.088 67.8082 54.5337 67.2132 53.9793C66.6183 53.3854 66.1027 52.8706 65.7458 52.4747C65.3492 52.0391 65.1509 51.762 65.1905 51.762Z" fill="#CBF7E3"/>
<path d="M65.1113 27.4502C65.1113 27.4106 65.3096 27.1731 65.7062 26.7771C66.0632 26.3811 66.6185 25.8664 67.1737 25.2725C67.7686 24.6785 68.2842 24.1638 68.6808 23.8074C69.0774 23.4511 69.3154 23.2135 69.3551 23.2531C69.3947 23.2927 69.1568 23.5303 68.7998 23.9262C68.4429 24.3222 67.8876 24.8369 67.3324 25.4308C66.7374 26.0248 66.2218 26.5395 65.8252 26.8959C65.389 27.2522 65.1113 27.4898 65.1113 27.4502Z" fill="#CBF7E3"/>
<path d="M41.7904 27.5294C41.7507 27.5294 41.5128 27.3314 41.1162 26.9354C40.7196 26.5791 40.204 26.0247 39.6091 25.4704C39.0141 24.8765 38.4985 24.3617 38.1416 23.9658C37.7846 23.5698 37.5467 23.3322 37.5863 23.2926C37.626 23.253 37.864 23.4906 38.2606 23.847C38.6572 24.2033 39.1728 24.7577 39.7677 25.312C40.3626 25.9059 40.8782 26.4207 41.2352 26.8167C41.5921 27.2522 41.8301 27.4898 41.7904 27.5294Z" fill="#CBF7E3"/>
<path d="M65.1113 51.6432C65.1113 51.6432 65.1113 51.6036 65.1113 51.5244C65.1113 51.4452 65.1113 51.3264 65.1113 51.168C65.1113 50.8513 65.1113 50.4157 65.1113 49.8614C65.1113 48.7131 65.1114 47.0501 65.0717 44.9119C65.0717 40.6752 65.032 34.617 65.032 27.371L65.1113 27.4502C58.3293 27.4502 50.3574 27.4502 41.87 27.4502L41.9889 27.3314C41.9889 36.2404 41.9889 44.5555 41.9889 51.6036L41.9096 51.5244C48.89 51.5244 54.6805 51.564 58.7656 51.564C60.7883 51.564 62.4144 51.564 63.4852 51.6036C64.0405 51.6036 64.4371 51.6036 64.7544 51.6036C64.8734 51.6036 64.9924 51.6036 65.0717 51.6036C65.0717 51.6432 65.1113 51.6432 65.1113 51.6432C65.1113 51.6432 65.0717 51.6432 64.9924 51.6432C64.913 51.6432 64.7941 51.6432 64.6751 51.6432C64.3975 51.6432 63.9612 51.6432 63.4456 51.6432C62.3351 51.6432 60.7486 51.6432 58.7259 51.6828C54.6408 51.6828 48.8106 51.7224 41.8303 51.7224H41.751V51.6432C41.751 44.6347 41.751 36.28 41.751 27.371V27.2522H41.87C50.3574 27.2522 58.3293 27.2522 65.1113 27.2522H65.1907V27.3314C65.1907 34.617 65.151 40.6752 65.151 44.9515C65.151 47.0501 65.151 48.7131 65.1113 49.8614C65.1113 50.4157 65.1113 50.8513 65.1113 51.168C65.1113 51.3264 65.1113 51.4056 65.1113 51.4848C65.1113 51.6432 65.1113 51.6432 65.1113 51.6432Z" fill="#CBF7E3"/>
<path d="M57.4171 35.6465H49.6436V43.4072H57.4171V35.6465Z" fill="#CBF7E3"/>
<path d="M131.883 239C201.972 239 258.79 228.604 258.79 215.779C258.79 202.954 201.972 192.558 131.883 192.558C61.7939 192.558 4.97559 202.954 4.97559 215.779C4.97559 228.604 61.7939 239 131.883 239Z" fill="#CBF7E3"/>
<path d="M180.32 215.779C180.32 215.779 180.32 215.6 180.08 215.36C179.84 215.121 179.42 214.881 178.821 214.642C177.622 214.163 175.704 213.744 173.246 213.325C168.33 212.547 161.137 211.889 152.265 211.47C143.392 211.051 132.782 210.931 120.972 211.171C115.098 211.291 108.923 211.59 102.509 212.069C99.3316 212.308 96.0944 212.607 92.7974 213.086C91.1788 213.325 89.5003 213.565 87.8817 213.924C87.0425 214.103 86.2632 214.283 85.4839 214.582C85.0643 214.702 84.7046 214.881 84.3449 215.061C83.9852 215.24 83.6255 215.54 83.6255 215.839C83.6255 216.138 84.0452 216.437 84.3449 216.617C84.7046 216.796 85.1242 216.976 85.4839 217.096C86.2632 217.335 87.1024 217.575 87.8817 217.754C89.5003 218.113 91.1788 218.353 92.7974 218.592C96.0944 219.011 99.3316 219.37 102.509 219.609C108.923 220.088 115.098 220.328 120.972 220.507C132.722 220.806 143.332 220.627 152.265 220.208C161.137 219.789 168.33 219.19 173.246 218.353C175.704 217.934 177.622 217.515 178.821 217.036C179.42 216.797 179.9 216.557 180.08 216.318C180.38 215.959 180.32 215.779 180.32 215.779C180.32 215.779 180.38 215.959 180.14 216.258C179.9 216.497 179.48 216.797 178.881 217.036C177.682 217.515 175.764 217.993 173.306 218.412C168.39 219.25 161.197 219.909 152.324 220.328C143.452 220.746 132.842 220.926 121.032 220.687C115.157 220.567 108.983 220.328 102.569 219.849C99.3915 219.609 96.0944 219.31 92.8573 218.831C91.2388 218.592 89.5602 218.353 87.9417 217.993C87.1024 217.814 86.3231 217.634 85.4839 217.335C85.0643 217.215 84.7046 217.036 84.2849 216.856C84.1051 216.737 83.9253 216.617 83.7454 216.497C83.5656 216.318 83.3857 216.138 83.3857 215.839C83.3857 215.54 83.5656 215.36 83.7454 215.181C83.9253 215.001 84.1051 214.881 84.2849 214.822C84.6446 214.642 85.0643 214.462 85.4839 214.343C86.3231 214.044 87.1024 213.864 87.9417 213.684C89.5602 213.325 91.2388 213.086 92.8573 212.847C96.1544 212.428 99.3915 212.069 102.569 211.829C108.983 211.35 115.157 211.111 121.032 210.991C132.782 210.752 143.452 210.931 152.324 211.35C161.197 211.769 168.39 212.487 173.306 213.265C175.764 213.684 177.682 214.103 178.881 214.642C179.48 214.881 179.96 215.121 180.14 215.42C180.38 215.6 180.32 215.779 180.32 215.779Z" fill="#E9FAF7"/>
<path d="M209.214 215.779C209.214 215.779 209.274 215.48 208.974 215.001C208.675 214.522 208.075 213.984 207.116 213.505C205.258 212.547 202.26 211.59 198.364 210.812C190.511 209.196 179.001 207.819 164.674 206.981C150.406 206.144 133.322 205.784 114.378 206.323C104.907 206.622 95.0157 207.101 84.7648 208.119C79.6693 208.597 74.454 209.256 69.1786 210.153C66.541 210.632 63.9633 211.171 61.3256 211.889C60.0068 212.248 58.7479 212.667 57.549 213.206C56.9495 213.505 56.35 213.804 55.8105 214.163C55.271 214.522 54.7914 215.061 54.7914 215.659C54.7914 216.258 55.271 216.796 55.8105 217.156C56.35 217.574 56.9495 217.874 57.549 218.113C58.7479 218.652 60.0667 219.071 61.3256 219.43C63.9033 220.148 66.541 220.687 69.1786 221.165C74.394 222.063 79.6094 222.721 84.7648 223.2C95.0157 224.218 104.967 224.696 114.438 224.996C133.382 225.534 150.406 225.175 164.734 224.337C179.001 223.499 190.571 222.183 198.424 220.507C202.32 219.669 205.318 218.771 207.176 217.814C208.135 217.335 208.735 216.796 209.034 216.318C209.214 216.078 209.154 215.779 209.214 215.779C209.214 215.779 209.214 215.839 209.214 215.959C209.214 216.078 209.154 216.318 208.974 216.557C208.675 217.036 208.075 217.574 207.116 218.053C205.258 219.071 202.26 219.968 198.364 220.806C190.511 222.482 179.001 223.858 164.674 224.696C150.347 225.534 133.322 225.953 114.378 225.415C104.907 225.115 94.9557 224.637 84.7048 223.619C79.5494 223.14 74.3341 222.482 69.1187 221.584C66.481 221.105 63.8434 220.567 61.2657 219.849C59.9468 219.49 58.688 219.071 57.4291 218.472C56.8296 218.173 56.1702 217.874 55.6307 217.455C55.331 217.275 55.0912 216.976 54.8514 216.737C54.6116 216.437 54.4917 216.078 54.4917 215.719C54.4917 215.36 54.6715 214.941 54.9113 214.702C55.1511 214.403 55.3909 214.163 55.6906 213.984C56.2302 213.565 56.8896 213.265 57.489 212.966C58.7479 212.428 60.0667 212.009 61.3256 211.59C63.9033 210.871 66.541 210.333 69.1786 209.854C74.454 208.956 79.6693 208.298 84.7648 207.819C95.0157 206.802 104.967 206.323 114.438 206.024C133.382 205.485 150.466 205.844 164.734 206.742C179.001 207.58 190.571 208.956 198.424 210.632C202.32 211.47 205.318 212.428 207.176 213.385C208.135 213.864 208.735 214.403 209.034 214.881C209.154 215.121 209.214 215.3 209.274 215.48C209.214 215.719 209.214 215.779 209.214 215.779Z" fill="#E9FAF7"/>
<path d="M245.002 215.779C245.002 215.779 245.062 215.36 244.703 214.642C244.403 213.924 243.564 213.026 242.305 212.128C239.727 210.393 235.351 208.777 229.656 207.34C218.206 204.468 201.241 202.074 180.2 200.637C159.159 199.201 133.981 198.543 106.106 199.5C92.1383 199.979 77.5113 200.877 62.4647 202.612C54.9114 203.51 47.2982 204.587 39.625 206.203C35.7884 207.041 31.9518 207.939 28.1752 209.256C26.3168 209.914 24.4585 210.632 22.72 211.59C21.8808 212.068 21.0415 212.607 20.3222 213.325C19.6028 213.984 19.0633 214.881 19.0033 215.839C19.0033 216.796 19.6028 217.634 20.2622 218.352C20.9816 219.011 21.8208 219.609 22.6601 220.088C24.3986 221.046 26.2569 221.764 28.1152 222.422C31.8919 223.679 35.7285 224.636 39.5651 225.474C47.2382 227.09 54.9114 228.167 62.4048 229.065C77.5113 230.801 92.1383 231.698 106.046 232.177C133.921 233.135 159.099 232.477 180.14 231.04C201.181 229.544 218.146 227.21 229.596 224.337C235.291 222.901 239.667 221.285 242.245 219.549C243.564 218.712 244.343 217.814 244.643 217.036C245.062 216.198 244.943 215.779 245.002 215.779C245.002 215.779 245.002 215.899 245.002 216.078C245.002 216.198 245.002 216.318 244.943 216.437C244.943 216.557 244.823 216.737 244.763 216.916C244.463 217.634 243.624 218.592 242.365 219.43C239.787 221.165 235.411 222.841 229.716 224.277C218.266 227.21 201.301 229.604 180.26 231.1C159.219 232.596 134.041 233.255 106.106 232.297C92.1383 231.818 77.5113 230.92 62.4048 229.185C54.8515 228.287 47.1783 227.21 39.5051 225.594C35.6685 224.756 31.8319 223.858 28.0553 222.542C26.197 221.883 24.2787 221.165 22.5402 220.148C21.641 219.669 20.8017 219.071 20.0824 218.412C19.363 217.694 18.7036 216.796 18.7036 215.659C18.7036 214.582 19.363 213.624 20.0824 212.966C20.8017 212.248 21.7009 211.709 22.5402 211.231C24.2787 210.273 26.197 209.495 28.0553 208.837C31.8319 207.52 35.6685 206.622 39.5051 205.784C47.1783 204.168 54.8515 203.091 62.4048 202.194C77.5113 200.458 92.1383 199.56 106.106 199.081C133.981 198.124 159.159 198.782 180.26 200.278C201.301 201.775 218.326 204.168 229.776 207.101C235.471 208.597 239.847 210.213 242.425 211.949C243.744 212.787 244.523 213.744 244.823 214.462C244.883 214.642 244.943 214.821 245.002 214.941C245.062 215.061 245.062 215.18 245.062 215.3C245.002 215.659 245.002 215.779 245.002 215.779Z" fill="#E9FAF7"/>
<path opacity="0.3" d="M137.098 201.535C127.267 200.877 117.376 200.279 107.544 200.638C97.713 201.057 87.7619 202.553 79.0696 206.024C75.6526 207.4 72.1158 209.316 71.5163 212.188C70.8569 215.3 73.9741 218.173 77.6908 219.669C85.3041 222.662 94.7157 221.106 102.629 218.592C110.542 216.078 118.215 212.607 126.787 211.889C133.921 211.291 141.055 212.727 147.769 214.582C154.483 216.438 161.017 218.712 167.971 219.969C174.924 221.225 182.538 221.405 189.012 219.131C192.489 217.934 195.726 215.659 195.906 212.787C196.026 210.752 194.587 208.837 192.549 207.46C190.511 206.144 187.933 205.306 185.415 204.647C168.99 200.279 151.066 200.817 133.681 201.416" fill="#BDBDBD"/>
<path d="M14.9866 214.762C13.6078 215.779 12.229 216.797 10.8503 217.754C10.4306 218.053 9.95106 218.472 10.071 218.951C10.1309 219.609 10.9702 219.789 11.6296 219.849C16.0656 220.088 19.1229 219.609 23.0194 217.575C23.3791 217.395 24.5181 216.796 24.9977 216.378C25.2974 216.138 26.6162 215.181 26.3765 214.881C26.1367 214.582 25.6571 214.522 25.2375 214.582C21.7006 214.642 18.5234 214.702 14.9866 214.762Z" fill="#CBF7E3"/>
<path d="M178.641 83.8741C178.581 82.3779 177.742 80.9416 176.423 80.3431C175.284 79.8045 173.845 79.984 172.706 80.6423C171.567 81.3007 170.788 82.3181 170.129 83.4552C168.51 86.3877 168.33 89.8589 167.971 93.2104C167.611 96.5619 166.832 99.3747 165.033 102.666L177.322 88.0635C178.162 86.8067 178.761 85.3105 178.641 83.8741Z" fill="#E8505B"/>
<g opacity="0.2">
<g opacity="0.2">
<path opacity="0.2" d="M178.641 83.8741C178.581 82.3779 177.742 80.9416 176.423 80.3431C175.284 79.8045 173.845 79.984 172.706 80.6423C171.567 81.3007 170.788 82.3181 170.129 83.4552C168.51 86.3877 168.33 89.8589 167.971 93.2104C167.611 96.5619 166.832 99.3747 165.033 102.666L177.322 88.0635C178.162 86.8067 178.761 85.3105 178.641 83.8741Z" fill="#333333"/>
</g>
</g>
<path d="M164.614 75.9146C165.333 76.513 189.252 103.923 189.252 103.923L176.303 114.157L159.878 93.6894L164.614 75.9146Z" fill="#FFBE9D"/>
<path d="M93.3372 85.1311C92.6778 85.8493 73.375 111.464 73.375 111.464L85.4842 124.571L100.351 102.188L93.3372 85.1311Z" fill="#FFBE9D"/>
<path d="M93.5771 102.128C95.0159 102.786 95.7952 104.282 96.3347 105.719C96.8742 107.155 97.2339 108.711 98.253 109.908C99.2721 111.105 101.13 111.763 102.389 110.866C103.588 110.028 103.648 108.172 103.109 106.856C102.449 105.18 101.13 103.863 99.5718 102.966C98.0732 102.068 96.3347 101.529 94.5962 101.11" fill="#E8505B"/>
<g opacity="0.2">
<g opacity="0.2">
<path opacity="0.2" d="M93.5771 102.128C95.0159 102.786 95.7952 104.282 96.3347 105.719C96.8742 107.155 97.2339 108.711 98.253 109.908C99.2721 111.105 101.13 111.763 102.389 110.866C103.588 110.028 103.648 108.172 103.109 106.856C102.449 105.18 101.13 103.863 99.5718 102.966C98.0732 102.068 96.3347 101.529 94.5962 101.11" fill="#333333"/>
</g>
</g>
<path d="M205.977 153.956C205.737 153.896 205.258 153.777 204.658 153.717L156.461 133.548H108.504L61.2657 152.161C56.4699 153.777 49.636 163.113 53.5325 174.245C53.6524 174.544 53.7723 174.843 53.8922 175.142C57.0095 182.923 65.5818 186.932 73.6746 184.778C80.2088 183.042 89.5605 180.469 99.2119 177.836H100.291L130.324 169.337C135.06 170.654 144.951 173.347 155.922 176.399C169.29 180.05 184.276 184.179 193.508 186.633C201.601 188.788 210.233 184.778 213.291 176.998C213.41 176.698 213.53 176.399 213.65 176.1C217.607 164.908 210.773 155.572 205.977 153.956Z" fill="#4F4F4F"/>
<path d="M130.025 169.457C130.025 169.457 130.085 169.457 130.205 169.397C130.324 169.337 130.504 169.337 130.684 169.217C131.164 169.098 131.763 168.918 132.602 168.679C134.281 168.2 136.739 167.482 139.796 166.644L139.676 166.764C138.417 162.215 136.799 156.171 134.88 149.168L135.06 149.288C133.442 149.288 131.823 149.288 130.145 149.288C128.466 149.288 126.728 149.468 124.929 149.527C121.392 149.707 117.676 149.946 113.839 150.126C100.111 150.904 87.7623 151.861 78.7703 152.58C74.3342 152.939 70.6775 153.238 68.1597 153.477C66.9008 153.597 65.9417 153.657 65.2823 153.717C64.9825 153.717 64.7428 153.777 64.503 153.777C64.3231 153.777 64.2632 153.777 64.2632 153.777C64.2632 153.777 64.3231 153.777 64.503 153.717C64.6828 153.717 64.9226 153.657 65.2223 153.657C65.8817 153.597 66.8409 153.477 68.0998 153.358C70.6175 153.118 74.2143 152.759 78.7103 152.34C87.6424 151.562 100.051 150.605 113.779 149.767C117.616 149.587 121.332 149.348 124.869 149.168C126.668 149.108 128.406 148.989 130.085 148.929C131.763 148.929 133.442 148.929 135.06 148.929H135.18L135.24 149.049C137.098 156.051 138.717 162.095 139.916 166.644V166.764H139.796C136.739 167.601 134.281 168.26 132.542 168.679C131.703 168.918 131.104 169.038 130.624 169.158C130.444 169.217 130.265 169.217 130.145 169.277C130.085 169.457 130.025 169.457 130.025 169.457Z" fill="#333333"/>
<path d="M114.378 149.767C114.318 149.827 113 149.109 111.561 147.912C110.122 146.715 109.103 145.518 109.223 145.458C109.283 145.398 110.422 146.415 111.801 147.612C113.239 148.749 114.438 149.647 114.378 149.767Z" fill="#333333"/>
<path d="M200.282 155.692C200.282 155.692 200.042 155.692 199.622 155.692C199.143 155.692 198.543 155.632 197.704 155.572C196.026 155.452 193.688 155.273 190.75 155.093C184.876 154.674 176.783 154.136 167.851 153.537C158.919 152.999 150.826 152.52 144.951 152.161C142.074 151.981 139.676 151.861 137.997 151.742C137.218 151.682 136.559 151.622 136.139 151.622C135.719 151.562 135.479 151.562 135.479 151.562C135.479 151.562 135.719 151.562 136.139 151.562C136.618 151.562 137.218 151.622 138.057 151.622C139.736 151.682 142.074 151.802 145.011 151.921C150.886 152.221 158.979 152.64 167.911 153.178C176.843 153.777 184.936 154.375 190.81 154.854C193.688 155.093 196.086 155.333 197.764 155.452C198.543 155.512 199.203 155.572 199.622 155.632C200.042 155.632 200.282 155.692 200.282 155.692Z" fill="#333333"/>
<path d="M130.804 154.794C130.744 154.734 131.523 154.016 132.782 153.657C134.041 153.358 135.06 153.597 135.06 153.657C135.06 153.777 134.041 153.717 132.902 154.016C131.703 154.315 130.864 154.854 130.804 154.794Z" fill="#333333"/>
<path d="M132.123 157.786C132.123 157.667 132.962 157.487 134.101 157.368C135.18 157.248 136.079 157.188 136.079 157.308C136.079 157.427 135.24 157.607 134.101 157.727C133.022 157.906 132.123 157.906 132.123 157.786Z" fill="#333333"/>
<path d="M132.662 161.318C132.662 161.198 133.741 161.198 135 160.779C136.259 160.42 137.158 159.881 137.218 160.001C137.278 160.061 136.439 160.779 135.12 161.198C133.801 161.617 132.662 161.437 132.662 161.318Z" fill="#333333"/>
<path d="M133.861 165.148C133.861 165.028 134.88 164.968 136.079 164.49C137.278 164.071 138.058 163.472 138.177 163.532C138.237 163.592 137.458 164.37 136.259 164.849C134.94 165.327 133.861 165.268 133.861 165.148Z" fill="#333333"/>
<path d="M155.801 147.912C155.861 147.972 155.082 148.929 154.183 150.126C153.284 151.323 152.624 152.4 152.504 152.34C152.384 152.281 152.924 151.143 153.883 149.887C154.782 148.69 155.741 147.852 155.801 147.912Z" fill="#333333"/>
<path d="M135.18 149.108L123.67 147.373C123.67 147.373 122.651 144.68 120.853 144.56C119.054 144.44 117.436 146.355 116.177 146.236C114.858 146.116 99.4516 140.969 98.6123 147.912L105.027 150.545" fill="#FFBE9D"/>
<path d="M172.887 155.393L138.717 162.694L135.66 150.964L148.308 150.365C148.308 150.365 149.807 147.912 151.605 148.091C153.344 148.271 154.603 150.485 155.922 150.605C157.181 150.724 173.246 148.39 172.887 155.393Z" fill="#FFBE9D"/>
<path d="M107.964 134.685C107.964 134.685 107.844 134.745 107.665 134.805C107.485 134.925 107.185 135.044 106.765 135.224C105.986 135.583 104.847 136.062 103.348 136.72C100.351 137.977 96.035 139.772 90.6398 141.927C85.2446 144.081 78.8303 146.595 71.8165 149.528C68.2796 151.024 64.503 152.4 60.9062 154.495L60.2468 154.914C60.1868 154.974 60.1269 154.974 60.1269 154.974C60.1269 154.914 60.1269 154.914 60.1269 154.914C60.1868 154.974 60.3067 154.974 60.4266 155.034C60.9062 155.093 61.4457 155.153 61.9852 155.153C63.0643 155.213 64.0834 155.153 65.1624 155.153C67.3205 155.093 69.4786 155.034 71.6966 154.914C80.5088 154.435 88.9013 153.837 96.5145 153.238C104.128 152.64 111.022 152.101 116.777 151.622C122.531 151.143 127.207 150.784 130.444 150.485C132.063 150.365 133.322 150.246 134.161 150.186C134.581 150.126 134.88 150.126 135.12 150.126C135.36 150.126 135.48 150.126 135.48 150.126C135.48 150.126 135.36 150.126 135.18 150.186C134.94 150.186 134.641 150.246 134.221 150.306C133.382 150.365 132.123 150.485 130.504 150.665C127.267 150.964 122.591 151.383 116.836 151.921C111.082 152.4 104.188 152.999 96.5745 153.597C88.9613 154.196 80.5687 154.854 71.7565 155.273C69.5385 155.393 67.3804 155.512 65.2224 155.512C64.1433 155.512 63.0643 155.572 61.9852 155.512C61.4457 155.512 60.9062 155.453 60.3667 155.393C60.2468 155.333 60.1269 155.333 59.947 155.213C59.8871 155.153 59.8271 155.093 59.8271 155.034C59.8271 154.974 59.8871 154.854 59.8871 154.854C59.947 154.794 60.007 154.734 60.0669 154.734L60.7263 154.315C64.3831 152.221 68.1597 150.844 71.6966 149.348C78.7703 146.415 85.1846 143.902 90.5798 141.807C95.975 139.713 100.291 137.977 103.289 136.72C104.787 136.122 105.926 135.583 106.705 135.284C107.065 135.104 107.365 134.985 107.605 134.925C107.844 134.745 107.964 134.685 107.964 134.685Z" fill="white"/>
<path d="M155.202 134.685C155.202 134.685 155.262 134.685 155.442 134.745C155.622 134.805 155.802 134.925 156.101 134.985C156.701 135.224 157.48 135.583 158.559 136.062C160.717 136.96 163.775 138.276 167.551 139.892C175.164 143.064 185.715 147.493 197.345 152.34C200.282 153.537 203.1 154.734 205.737 156.171C206.037 156.35 206.397 156.53 206.696 156.709C206.876 156.829 206.996 156.889 207.176 157.009C207.236 157.068 207.236 157.068 207.296 157.128C207.356 157.188 207.356 157.248 207.356 157.368C207.356 157.487 207.296 157.487 207.236 157.547C207.176 157.607 207.116 157.607 207.056 157.607C206.277 157.846 205.557 157.846 204.838 157.846C203.399 157.906 202.021 157.846 200.642 157.787C195.187 157.547 190.271 157.068 186.135 156.709C181.998 156.35 178.701 155.991 176.423 155.692C175.284 155.572 174.385 155.453 173.786 155.393C173.486 155.333 173.246 155.333 173.126 155.333C172.946 155.333 172.886 155.273 172.886 155.273C172.886 155.273 172.946 155.273 173.126 155.273C173.306 155.273 173.546 155.333 173.846 155.333C174.445 155.393 175.344 155.453 176.483 155.572C178.821 155.812 182.118 156.111 186.255 156.47C190.391 156.829 195.247 157.248 200.702 157.487C202.08 157.547 203.459 157.607 204.898 157.547C205.617 157.487 206.337 157.487 206.996 157.308L207.056 157.248C207.056 157.248 207.116 157.248 207.056 157.248C207.056 157.248 207.056 157.188 206.996 157.188C206.876 157.068 206.696 157.009 206.576 156.889C206.277 156.709 205.917 156.53 205.617 156.35C203.04 154.914 200.162 153.717 197.285 152.52C185.655 147.672 175.104 143.244 167.491 140.012C163.715 138.396 160.657 137.019 158.499 136.122C157.48 135.643 156.641 135.284 156.101 135.044C155.862 134.925 155.622 134.805 155.502 134.745C155.262 134.745 155.202 134.745 155.202 134.685Z" fill="white"/>
<path d="M129.965 66.0995C135.9 66.5184 140.875 61.6109 140.516 55.6859C140.396 53.2322 140.276 51.317 140.276 51.317C140.276 51.317 148.069 50.1201 148.189 42.28C148.309 34.4998 146.93 16.5454 146.93 16.5454C137.878 12.6553 127.447 13.9719 119.654 19.9567L118.515 20.8545L120.913 56.8829C121.153 61.7904 125.049 65.7404 129.965 66.0995Z" fill="#FFBE9D"/>
<path d="M140.276 51.1974C140.276 51.1974 135.36 51.6163 130.085 48.3247C130.085 48.3247 132.483 53.9504 140.276 53.2322V51.1974Z" fill="#EB996E"/>
<path d="M119.414 28.934C119.294 28.8741 114.019 27.3181 114.199 32.7044C114.379 38.0308 119.714 36.774 119.714 36.5945C119.714 36.4748 119.414 28.934 119.414 28.934Z" fill="#FFBE9D"/>
<path d="M118.035 34.6793C118.035 34.6793 117.915 34.7392 117.795 34.799C117.616 34.8589 117.376 34.9187 117.076 34.8589C116.477 34.6793 115.997 33.7816 115.937 32.824C115.937 32.3452 115.997 31.8665 116.177 31.5074C116.357 31.0884 116.596 30.849 116.836 30.7892C117.136 30.7293 117.316 30.849 117.376 31.0286C117.436 31.1483 117.436 31.268 117.436 31.268C117.436 31.268 117.556 31.1483 117.496 30.9687C117.496 30.849 117.376 30.7293 117.256 30.6695C117.136 30.5498 116.956 30.5498 116.716 30.5498C116.297 30.6097 115.937 30.9687 115.757 31.3877C115.577 31.8066 115.458 32.3452 115.458 32.8839C115.517 33.9611 116.117 34.9187 116.896 35.1581C117.256 35.2179 117.556 35.0983 117.735 34.9786C117.975 34.799 118.035 34.6793 118.035 34.6793Z" fill="#EB996E"/>
<path d="M129.306 28.156C129.425 28.0363 130.265 28.6348 131.464 28.6348C132.663 28.6348 133.562 28.0363 133.682 28.156C133.742 28.2158 133.622 28.4552 133.202 28.7544C132.842 29.0537 132.183 29.2931 131.404 29.2931C130.684 29.2931 130.025 28.9938 129.665 28.7544C129.365 28.4552 129.246 28.2158 129.306 28.156Z" fill="#333333"/>
<path d="M141.115 27.9165C141.235 27.7968 142.074 28.3952 143.273 28.3952C144.472 28.3952 145.371 27.7968 145.491 27.9165C145.551 27.9763 145.431 28.2157 145.012 28.5149C144.652 28.8142 143.993 29.0536 143.213 29.0536C142.494 29.0536 141.834 28.7543 141.475 28.5149C141.175 28.2157 141.055 27.9763 141.115 27.9165Z" fill="#333333"/>
<path d="M137.998 36.6543C137.998 36.5944 138.717 36.4747 139.976 36.2952C140.276 36.2354 140.576 36.1755 140.636 35.996C140.696 35.7566 140.576 35.4573 140.456 35.0982C140.156 34.3801 139.856 33.602 139.557 32.7642C138.298 29.4725 137.399 26.7195 137.519 26.6597C137.638 26.5998 138.777 29.2332 140.036 32.5846C140.336 33.4225 140.636 34.2005 140.876 34.9187C140.995 35.2778 141.175 35.6369 141.055 36.1157C140.995 36.3551 140.756 36.5346 140.576 36.5346C140.396 36.5944 140.216 36.5944 140.036 36.5944C138.717 36.7141 137.998 36.7141 137.998 36.6543Z" fill="#333333"/>
<path d="M134.461 37.4922C134.641 37.4922 134.641 38.8088 135.78 39.7066C136.919 40.6043 138.298 40.4846 138.298 40.6641C138.298 40.724 137.998 40.9035 137.398 40.9035C136.799 40.9035 135.96 40.724 135.3 40.1853C134.641 39.6467 134.341 38.8687 134.281 38.3301C134.221 37.7914 134.341 37.4922 134.461 37.4922Z" fill="#333333"/>
<path d="M133.921 24.2658C133.801 24.5651 132.603 24.4454 131.224 24.6249C129.785 24.7446 128.646 25.1635 128.466 24.8643C128.406 24.7446 128.586 24.4454 129.066 24.0863C129.545 23.787 130.265 23.4878 131.104 23.3681C131.943 23.2484 132.722 23.4279 133.262 23.6075C133.682 23.8469 133.981 24.1461 133.921 24.2658Z" fill="#333333"/>
<path d="M144.951 25.403C144.712 25.7023 143.932 25.403 142.913 25.403C141.894 25.3432 141.055 25.5826 140.875 25.2833C140.815 25.1636 140.935 24.8644 141.295 24.625C141.654 24.3856 142.254 24.1462 142.973 24.2061C143.633 24.2061 144.232 24.4455 144.592 24.7447C144.951 25.044 145.071 25.2833 144.951 25.403Z" fill="#333333"/>
<path d="M150.706 11.6379C150.766 10.6803 150.407 9.60303 149.627 9.0644C148.848 8.52577 147.589 8.52577 146.99 9.24394C147.349 7.92729 146.27 6.43109 144.952 6.37124C143.693 6.31139 142.614 7.26896 141.355 7.5682C140.156 7.92729 138.837 7.62805 137.698 7.14926C136.559 6.67048 135.48 6.072 134.281 5.59322C131.823 4.6955 129.066 4.81519 126.668 5.89246C124.33 6.96972 122.412 9.00455 121.452 11.4583C119.714 10.9197 117.796 11.8174 116.717 13.2538C115.638 14.6901 115.398 16.6052 115.578 18.4007C115.698 19.5976 116.057 20.7347 116.477 21.9317C116.477 22.0514 116.477 22.1112 116.477 22.2309C116.537 26.54 117.016 31.5672 118.875 31.5672C122.052 31.6271 121.333 25.5824 121.333 25.5824C125.229 24.0862 123.79 18.2211 124.75 17.3234C125.709 16.4257 127.807 14.3909 136.019 18.5802C139.197 20.1961 143.453 20.1363 145.791 19.6575C145.851 19.6575 145.911 19.6575 145.971 19.5976H146.031H146.091C146.81 19.4181 147.529 19.1189 148.189 18.6999C148.908 18.2211 149.627 17.6227 149.927 16.7848C150.227 15.9469 150.107 14.9295 149.507 14.331C150.167 13.4931 150.646 12.5954 150.706 11.6379Z" fill="#333333"/>
<path d="M142.913 1.40381C142.913 1.40381 142.973 1.46366 143.033 1.6432C143.153 1.7629 143.213 2.00229 143.333 2.30153C143.573 2.90001 143.693 3.85757 143.513 4.99468C143.273 6.13179 142.673 7.44845 141.355 8.34617C140.036 9.24389 138.237 9.36358 136.559 9.12419C134.82 8.8848 133.262 8.28632 131.823 7.98708C130.384 7.68784 129.006 7.62799 127.927 7.86738C126.847 8.10678 126.068 8.64541 125.589 9.06434C125.109 9.48328 124.989 9.78252 124.929 9.78252C124.929 9.78252 124.989 9.72267 125.049 9.54313C125.109 9.42343 125.289 9.18404 125.529 8.94465C125.948 8.46586 126.788 7.92723 127.867 7.62799C129.006 7.32875 130.384 7.32875 131.883 7.62799C133.382 7.92723 134.94 8.46586 136.619 8.70526C138.297 8.94465 139.976 8.82495 141.235 7.98708C142.434 7.14921 143.093 5.8924 143.333 4.87499C143.573 3.79773 143.453 2.84016 143.273 2.24168C143.093 1.70305 142.853 1.46366 142.913 1.40381Z" fill="#4F4F4F"/>
<path d="M140.875 2.8999C140.875 2.8999 141.294 3.25899 141.354 4.09686C141.414 4.5158 141.354 4.99458 141.115 5.53321C140.875 6.01199 140.455 6.49078 139.916 6.79002C139.376 7.08926 138.777 7.2688 138.237 7.2688C137.698 7.2688 137.218 7.20895 136.798 7.08926C136.019 6.84987 135.6 6.55063 135.659 6.49078C135.659 6.43093 136.139 6.67032 136.858 6.84987C137.578 7.02941 138.717 7.08926 139.736 6.49078C140.215 6.19154 140.635 5.7726 140.875 5.35367C141.115 4.93473 141.175 4.45595 141.175 4.09686C141.115 3.31884 140.815 2.8999 140.875 2.8999Z" fill="#333333"/>
<path d="M168.27 131.393C168.27 131.393 168.75 135.104 165.033 137.139L156.461 133.548L145.91 134.266L150.046 123.015C150.046 123.015 161.856 124.451 163.534 125.828C165.273 127.084 168.39 129.598 168.27 131.393Z" fill="#E8505B"/>
<g opacity="0.4">
<path opacity="0.4" d="M168.27 131.393C168.27 131.393 168.75 135.104 165.033 137.139L156.461 133.548L145.91 134.266L150.046 123.015C150.046 123.015 161.856 124.451 163.534 125.828C165.273 127.084 168.39 129.598 168.27 131.393Z" fill="#333333"/>
</g>
<path d="M168.27 131.393C168.27 131.393 168.75 135.104 165.033 137.139L156.461 133.548L145.91 134.266L150.046 123.015C150.046 123.015 161.856 124.451 163.534 125.828C165.273 127.084 168.39 129.598 168.27 131.393Z" fill="#E8505B"/>
<g opacity="0.4">
<path opacity="0.4" d="M168.27 131.393C168.27 131.393 168.75 135.104 165.033 137.139L156.461 133.548L145.91 134.266L150.046 123.015C150.046 123.015 161.856 124.451 163.534 125.828C165.273 127.084 168.39 129.598 168.27 131.393Z" fill="#333333"/>
</g>
<path d="M177.143 80.762L176.303 80.0439L158.199 65.9197C152.624 59.9948 148.548 58.1993 140.695 57.3016C139.436 57.1221 141.414 57.4213 140.695 57.3016C134.7 59.1569 126.608 59.3365 120.613 57.4812C117.795 57.6009 115.517 58.4387 113.12 58.9175C105.626 60.3539 101.67 65.6205 98.7323 70.8273L84.2852 95.0657L84.8846 96.0233C86.9228 99.1353 89.9201 101.469 93.457 102.726L94.4161 103.205C97.7732 104.881 100.83 107.275 102.929 110.327L109.283 99.1952L107.485 117.03L106.226 134.505C115.218 136.959 122.711 137.977 132.362 137.857C144.951 137.917 162.516 122.596 168.151 131.453C168.211 126.905 162.516 120.681 160.897 117.688C155.981 108.352 156.881 104.582 156.521 97.5195L164.973 102.666L166.472 99.7338C167.731 97.2202 170.189 91.6544 171.088 87.3453C171.268 87.2256 172.287 79.1461 177.143 80.762Z" fill="#E8505B"/>
<path d="M109.403 81.1809C109.403 81.1809 109.463 81.4203 109.463 81.8991C109.463 82.3779 109.523 83.0362 109.523 83.8741C109.523 85.5498 109.583 87.8839 109.523 90.4573C109.523 93.0308 109.463 95.3649 109.463 97.0406C109.463 97.8785 109.403 98.5368 109.403 99.0156C109.403 99.4944 109.343 99.7338 109.343 99.7338C109.343 99.7338 109.283 99.4944 109.283 99.0156C109.283 98.5368 109.223 97.8785 109.223 97.0406C109.223 95.3649 109.163 93.0308 109.223 90.4573C109.223 87.8839 109.283 85.5498 109.283 83.8741C109.283 83.0362 109.343 82.3779 109.343 81.8991C109.343 81.4203 109.343 81.1809 109.403 81.1809Z" fill="#333333"/>
<path d="M157.72 109.429C157.72 109.429 157.66 109.01 157.6 108.292C157.54 107.514 157.42 106.437 157.3 105.18C157.06 102.547 156.821 98.9557 156.521 94.9458C156.221 90.936 155.981 87.3452 155.862 84.7118C155.802 83.455 155.742 82.3778 155.682 81.5998C155.622 80.8816 155.622 80.4626 155.682 80.4626C155.682 80.4626 155.742 80.8816 155.802 81.5998C155.862 82.3778 155.981 83.455 156.101 84.7118C156.341 87.3452 156.581 90.936 156.881 94.9458C157.18 98.9557 157.42 102.547 157.54 105.18C157.6 106.437 157.66 107.514 157.72 108.292C157.72 109.01 157.72 109.429 157.72 109.429Z" fill="#333333"/>
<g opacity="0.2">
<g opacity="0.2">
<path opacity="0.2" d="M118.335 58.0796C122.172 63.4659 127.207 68.0143 132.902 71.306C135 72.5029 137.278 73.5802 139.676 73.7598C143.812 74.1188 147.769 71.8446 151.006 69.2113C152.265 68.1939 153.524 66.9969 154.063 65.4409C154.603 63.8848 154.183 61.85 152.744 61.1318C151.725 60.5932 150.466 60.7727 149.447 61.2515C148.428 61.7303 147.529 62.4485 146.63 63.1068C142.493 66.0394 137.098 67.1765 132.123 66.2788C127.147 65.3212 122.531 62.3288 119.774 58.0796" fill="#333333"/>
</g>
</g>
<path d="M143.273 101.05C143.213 101.05 143.273 100.153 142.913 98.5368C142.733 97.7588 142.373 96.8012 141.774 95.7838C141.175 94.7664 140.335 93.749 139.136 92.9111C137.997 92.0733 136.499 91.2952 134.82 90.996C133.142 90.6967 131.223 90.7566 129.425 91.4748C128.526 91.774 127.627 92.2528 126.847 92.8513C126.428 93.1505 126.068 93.5096 125.708 93.8088C125.349 94.1679 124.989 94.5869 124.689 95.0058C123.43 96.6816 122.711 98.8361 122.711 101.05C122.711 103.265 123.43 105.419 124.689 107.095C124.989 107.514 125.349 107.873 125.708 108.292C126.068 108.651 126.428 109.01 126.847 109.25C127.627 109.848 128.526 110.327 129.425 110.626C131.223 111.284 133.142 111.344 134.82 111.105C136.499 110.806 137.997 110.087 139.136 109.19C140.275 108.292 141.175 107.275 141.774 106.317C142.373 105.3 142.733 104.402 142.913 103.564C143.333 102.008 143.213 101.05 143.273 101.05C143.273 101.05 143.273 101.11 143.273 101.23C143.273 101.35 143.273 101.529 143.273 101.709C143.273 101.948 143.273 102.188 143.213 102.487C143.153 102.786 143.153 103.145 143.033 103.564C142.853 104.402 142.493 105.36 141.894 106.377C141.294 107.394 140.455 108.472 139.256 109.369C138.057 110.267 136.559 111.045 134.88 111.344C133.142 111.644 131.223 111.584 129.365 110.925C128.406 110.626 127.507 110.147 126.727 109.489C126.308 109.19 125.948 108.831 125.528 108.472C125.169 108.053 124.809 107.694 124.509 107.275C123.191 105.539 122.471 103.325 122.471 101.05C122.471 98.7762 123.25 96.5619 124.509 94.8263C124.809 94.4073 125.169 93.9884 125.528 93.6293C125.948 93.2702 126.308 92.9111 126.727 92.6119C127.567 92.0134 128.466 91.5346 129.365 91.1755C131.223 90.4574 133.142 90.4574 134.88 90.7566C136.619 91.0558 138.117 91.8339 139.256 92.7316C140.455 93.6293 141.294 94.7066 141.894 95.724C142.493 96.7414 142.853 97.699 143.033 98.5368C143.153 98.9558 143.213 99.3149 143.213 99.6141C143.273 99.9133 143.273 100.213 143.273 100.392C143.273 100.572 143.273 100.751 143.273 100.871C143.273 100.991 143.273 101.05 143.273 101.05Z" fill="white"/>
<path d="M132.602 111.404C132.542 111.404 132.422 106.796 132.422 101.05C132.422 95.3649 132.482 90.6968 132.602 90.6968C132.722 90.6968 132.782 95.3051 132.782 101.05C132.782 106.796 132.722 111.404 132.602 111.404Z" fill="white"/>
<path d="M141.115 107.394C141.115 107.394 140.875 107.215 140.395 106.915C139.916 106.556 139.316 106.078 138.597 105.539C137.038 104.342 134.94 102.726 132.662 100.871C132.602 100.811 132.542 100.751 132.482 100.751H132.662C130.564 102.726 128.646 104.522 127.207 105.778C126.548 106.377 126.008 106.856 125.529 107.275C125.109 107.634 124.929 107.813 124.869 107.813C124.869 107.813 125.049 107.574 125.409 107.215C125.828 106.796 126.368 106.257 127.027 105.659C128.406 104.342 130.264 102.547 132.422 100.572L132.542 100.452L132.662 100.512C132.722 100.572 132.782 100.631 132.842 100.631C135.12 102.487 137.218 104.162 138.717 105.359C139.436 105.958 140.036 106.437 140.455 106.856C140.935 107.155 141.175 107.334 141.115 107.394Z" fill="white"/>
<g opacity="0.2">
<g opacity="0.2">
<path opacity="0.2" d="M124.09 128.7C132.902 130.376 142.373 126.606 147.709 119.484C148.548 118.347 149.387 116.91 149.027 115.534C148.668 114.097 147.049 113.14 145.551 113.2C144.052 113.26 142.673 114.038 141.534 115.055C138.777 117.449 137.218 120.98 134.46 123.374C132.003 125.528 128.705 126.665 125.468 126.486C124.989 126.426 124.449 126.486 123.97 126.546C123.31 126.665 122.831 127.264 122.831 127.743C122.771 128.341 123.25 128.581 124.09 128.7Z" fill="#333333"/>
</g>
</g>
<g opacity="0.2">
<path opacity="0.2" d="M155.921 86.5671L156.641 97.4595L165.153 102.606L166.892 99.3148L155.921 86.5671Z" fill="#333333"/>
</g>
<path d="M177.263 80.9416C177.263 81.0015 176.903 80.7621 176.243 80.7621C175.584 80.7022 174.565 80.9416 173.666 81.7196C172.767 82.4378 172.107 83.7545 171.688 85.3105C171.268 86.8067 170.908 88.5423 170.309 90.3377C169.23 93.8688 167.971 96.9808 166.952 99.1354C166.472 100.213 165.993 101.11 165.693 101.709C165.393 102.307 165.153 102.607 165.153 102.607C165.153 102.607 165.273 102.247 165.573 101.649C165.873 101.05 166.292 100.153 166.772 99.0755C167.731 96.8611 168.99 93.8089 170.069 90.2779C170.608 88.5423 171.028 86.8067 171.448 85.3105C171.867 83.7545 172.587 82.4378 173.606 81.6598C174.565 80.8818 175.644 80.7022 176.303 80.7621C176.663 80.7621 176.903 80.8818 177.083 80.9416C177.203 80.8818 177.263 80.9416 177.263 80.9416Z" fill="#333333"/>
<path d="M102.989 110.267C102.989 110.267 102.749 110.028 102.389 109.549C101.97 109.07 101.43 108.352 100.651 107.634C99.8715 106.856 98.8524 106.018 97.6534 105.24C96.3946 104.462 94.9558 103.744 93.4572 102.966C91.9585 102.188 90.5198 101.41 89.3208 100.572C88.1219 99.7338 87.1028 98.8361 86.3235 98.0581C85.5442 97.2202 85.0646 96.5021 84.7649 95.9036C84.585 95.6642 84.5251 95.4248 84.4651 95.2453C84.4052 95.0657 84.3453 95.0059 84.4052 95.0059C84.4651 94.946 85.0047 96.2627 86.5033 97.8786C87.2826 98.6566 88.3017 99.4945 89.5007 100.332C90.6996 101.17 92.1383 101.888 93.637 102.666C95.1357 103.444 96.5744 104.163 97.8333 104.941C99.0922 105.719 100.111 106.616 100.891 107.394C101.67 108.172 102.209 108.891 102.569 109.429C102.749 109.669 102.869 109.908 102.989 110.028C102.929 110.147 102.989 110.267 102.989 110.267Z" fill="#333333"/>
<path d="M150.886 113.858C150.886 113.858 150.886 113.978 150.766 114.217C150.706 114.456 150.586 114.756 150.407 115.175C150.047 116.012 149.507 117.15 148.608 118.526C146.87 121.219 143.812 124.631 139.376 126.905C135 129.179 130.384 129.718 127.207 129.538C125.589 129.478 124.33 129.239 123.431 129.059C123.011 128.999 122.651 128.88 122.411 128.82C122.172 128.76 122.052 128.7 122.052 128.7C122.052 128.7 122.172 128.7 122.411 128.76C122.651 128.82 123.011 128.88 123.431 128.94C124.33 129.119 125.589 129.299 127.207 129.299C130.384 129.418 134.88 128.82 139.256 126.606C143.573 124.391 146.69 121.04 148.428 118.406C149.328 117.09 149.927 115.953 150.287 115.115C150.467 114.696 150.586 114.397 150.706 114.157C150.826 113.978 150.886 113.858 150.886 113.858Z" fill="#333333"/>
<g opacity="0.2">
<g opacity="0.2">
<path opacity="0.2" d="M103.528 109.01C104.187 100.332 106.225 91.7143 109.403 83.575V99.0756L103.528 109.01Z" fill="#333333"/>
</g>
</g>
<path d="M86.9228 123.733L124.569 101.948C127.447 100.272 129.245 97.2801 129.425 93.9885L130.444 71.1266C130.444 70.5281 130.024 69.9894 129.365 69.9296C128.826 69.8698 128.286 70.2288 128.106 70.7675L123.31 87.9438L78.5302 106.856C73.4947 109.01 71.3366 114.935 73.7944 119.783C76.1923 124.69 82.2469 126.486 86.9228 123.733Z" fill="#FFBE9D"/>
<path d="M123.311 87.9438C123.311 87.9438 123.191 88.0037 122.891 88.1832C122.591 88.3029 122.172 88.5423 121.632 88.7817C120.493 89.3203 118.935 90.0385 116.956 90.9362C113 92.7317 107.545 95.1256 101.43 97.6991C95.3155 100.273 89.8004 102.487 85.724 104.043C83.6858 104.821 82.0673 105.479 80.9283 105.898C80.3888 106.078 79.9691 106.257 79.6095 106.377C79.3097 106.497 79.1299 106.557 79.1299 106.497C79.1299 106.497 79.2498 106.437 79.5495 106.317C79.8492 106.197 80.3288 106.018 80.8683 105.779C82.0073 105.3 83.6259 104.641 85.6041 103.863C89.6206 102.247 95.1357 99.9733 101.25 97.3998C107.365 94.8264 112.82 92.4324 116.776 90.6968C118.755 89.859 120.313 89.1408 121.512 88.662C122.052 88.4226 122.471 88.2431 122.771 88.1234C123.131 88.0037 123.311 87.9438 123.311 87.9438Z" fill="#EB996E"/>
<path d="M74.8135 121.818C74.8135 121.818 75.293 121.758 76.1922 121.518C76.6119 121.399 77.1514 121.219 77.7509 120.98C78.3503 120.681 78.9498 120.321 79.6092 119.783C80.2686 119.304 80.988 118.765 81.7073 118.167C82.4867 117.568 83.266 116.91 84.0453 116.192C85.7238 114.815 87.5222 113.2 89.8002 112.122C92.0781 110.985 94.416 110.447 96.5741 110.207C98.7322 110.028 100.71 110.207 102.329 110.506C103.948 110.806 105.206 111.284 106.046 111.643C106.465 111.823 106.765 112.003 107.005 112.122C107.245 112.242 107.305 112.302 107.305 112.302C107.305 112.302 107.185 112.242 106.945 112.182C106.705 112.122 106.405 111.943 105.986 111.763C105.147 111.464 103.888 110.985 102.269 110.686C100.651 110.387 98.7322 110.267 96.5741 110.447C94.416 110.686 92.1381 111.225 89.92 112.362C87.702 113.439 85.8437 114.995 84.2251 116.371C83.3859 117.09 82.6065 117.748 81.8272 118.346C81.0479 118.945 80.3286 119.484 79.6692 119.962C79.0097 120.441 78.3503 120.86 77.7509 121.099C77.1514 121.399 76.6119 121.518 76.1323 121.638C75.6527 121.758 75.353 121.758 75.1132 121.818C74.9334 121.818 74.8135 121.818 74.8135 121.818Z" fill="#333333"/>
<path d="M82.0073 118.287C82.0073 118.287 82.0673 118.526 82.1272 118.885C82.2471 119.244 82.4269 119.723 82.8466 120.262C83.2662 120.74 83.9256 121.219 84.7649 121.518C85.6041 121.818 86.6232 121.818 87.5224 121.399C87.6423 121.339 87.7023 121.339 87.7622 121.279L87.7023 121.459C87.3426 120.561 86.7431 119.843 86.0238 119.304C85.3643 118.765 84.645 118.526 83.9856 118.406C82.8466 118.107 82.0073 118.346 82.0073 118.287C82.0073 118.287 82.1872 118.227 82.5468 118.167C82.9065 118.107 83.446 118.107 84.1055 118.167C84.7649 118.287 85.5442 118.526 86.2635 119.065C86.9829 119.603 87.6423 120.381 88.0619 121.279L88.1219 121.399L88.002 121.459C87.942 121.518 87.8222 121.578 87.7023 121.578C86.6832 121.997 85.6041 121.997 84.7649 121.638C83.8657 121.339 83.2063 120.8 82.7866 120.262C82.3071 119.723 82.1272 119.184 82.0673 118.765C82.0073 118.466 82.0073 118.287 82.0073 118.287Z" fill="#333333"/>
<path d="M82.0073 118.287C82.0673 118.227 82.9065 118.586 83.8657 119.184C84.8248 119.723 85.6041 120.262 85.5442 120.322C85.4842 120.381 84.645 120.022 83.6858 119.424C82.7267 118.885 82.0073 118.347 82.0073 118.287Z" fill="#333333"/>
<path d="M87.7021 113.619C87.7021 113.619 87.7621 113.798 87.9419 114.157C88.1218 114.456 88.4215 114.935 88.961 115.294C89.5005 115.653 90.2799 116.012 91.1191 116.072C91.9584 116.132 92.9775 115.953 93.7568 115.354C93.8167 115.294 93.9366 115.234 93.9966 115.175V115.354C93.457 114.576 92.6777 113.978 91.8984 113.678C91.1191 113.319 90.3398 113.259 89.7403 113.259C88.4215 113.259 87.7021 113.678 87.7021 113.619C87.7021 113.619 87.882 113.499 88.1817 113.379C88.5414 113.259 89.021 113.08 89.6804 113.08C90.3398 113.02 91.1791 113.14 91.9584 113.499C92.7976 113.858 93.5769 114.456 94.1764 115.294L94.2363 115.414L94.1164 115.474C94.0565 115.534 93.9366 115.594 93.8767 115.653C92.9775 116.312 91.9584 116.491 90.9992 116.431C90.0401 116.312 89.3207 115.953 88.7212 115.534C88.1817 115.115 87.822 114.636 87.7021 114.277C87.7021 113.858 87.7021 113.619 87.7021 113.619Z" fill="#333333"/>
<path d="M87.7021 113.618C87.7021 113.559 88.6013 113.738 89.7403 114.037C90.8194 114.337 91.7186 114.696 91.6586 114.756C91.6586 114.815 90.7594 114.636 89.6204 114.337C88.5414 114.037 87.7021 113.678 87.7021 113.618Z" fill="#333333"/>
<path d="M77.7508 120.92C77.7508 120.92 77.8707 120.74 78.1105 120.441C78.3503 120.142 78.5901 119.663 78.71 119.005C78.8299 118.347 78.8299 117.509 78.5301 116.731C78.2304 115.893 77.6309 115.115 76.7917 114.636C76.7317 114.576 76.6118 114.516 76.5519 114.516L76.7317 114.456C76.2521 115.294 76.0124 116.252 76.0723 117.09C76.0723 117.928 76.3121 118.646 76.5519 119.244C77.1513 120.381 77.8108 120.86 77.7508 120.92C77.7508 120.92 77.571 120.8 77.3312 120.561C77.0914 120.322 76.7317 119.903 76.432 119.304C76.1323 118.706 75.8925 117.928 75.8325 117.03C75.8325 116.132 76.0124 115.175 76.5519 114.277L76.6118 114.157L76.7317 114.217C76.7917 114.277 76.9116 114.337 77.0315 114.337C77.9906 114.875 78.65 115.773 78.8898 116.611C79.1895 117.509 79.1296 118.347 79.0097 119.005C78.8299 119.663 78.5301 120.202 78.2903 120.441C77.9307 120.8 77.7508 120.92 77.7508 120.92Z" fill="#333333"/>
<path d="M77.7507 120.92C77.6907 120.92 77.4509 120.022 77.331 118.885C77.1512 117.748 77.1512 116.85 77.2111 116.85C77.2711 116.85 77.5109 117.748 77.6308 118.885C77.7507 119.962 77.8106 120.86 77.7507 120.92Z" fill="#333333"/>
<path d="M91.7783 111.524C91.7783 111.524 91.9581 111.464 92.2579 111.284C92.5576 111.105 92.9772 110.866 93.3369 110.387C93.6966 109.908 93.9963 109.19 94.1162 108.412C94.1762 107.634 93.9963 106.736 93.5168 105.958C93.4568 105.898 93.3969 105.838 93.3369 105.719L93.5168 105.778C92.7974 106.257 92.2579 106.975 91.8982 107.634C91.5385 108.352 91.4786 109.01 91.4186 109.609C91.4786 110.866 91.8382 111.524 91.7783 111.524C91.7783 111.524 91.6584 111.344 91.5385 111.045C91.4186 110.746 91.2987 110.267 91.2388 109.669C91.2388 109.07 91.2987 108.292 91.6584 107.574C92.0181 106.856 92.5576 106.078 93.3369 105.539L93.4568 105.479L93.5168 105.599C93.5767 105.659 93.6366 105.719 93.6966 105.838C94.2361 106.676 94.4759 107.634 94.356 108.472C94.2361 109.31 93.8764 110.028 93.4568 110.506C93.0372 110.985 92.6175 111.284 92.2579 111.404C91.9581 111.584 91.7783 111.584 91.7783 111.524Z" fill="#333333"/>
<path d="M91.7781 111.524C91.7181 111.524 91.898 110.686 92.1977 109.669C92.4975 108.651 92.8571 107.873 92.9171 107.933C92.977 107.933 92.7972 108.771 92.4975 109.788C92.1977 110.806 91.838 111.584 91.7781 111.524Z" fill="#333333"/>
<path d="M96.6342 110.328C96.6342 110.328 96.6342 110.507 96.5742 110.866C96.5742 111.225 96.5742 111.704 96.8739 112.243C97.1137 112.781 97.5933 113.38 98.1928 113.859C98.8522 114.337 99.6914 114.577 100.651 114.517C100.711 114.517 100.83 114.517 100.89 114.457L100.77 114.637C100.711 113.739 100.351 112.961 99.9312 112.303C99.5116 111.644 98.9121 111.225 98.4326 110.926C97.3535 110.387 96.5742 110.387 96.6342 110.328C96.6342 110.328 96.814 110.328 97.1737 110.328C97.5334 110.387 98.0129 110.507 98.5524 110.747C99.092 111.046 99.6914 111.465 100.171 112.123C100.651 112.781 101.01 113.619 101.13 114.577V114.697H101.01C100.89 114.697 100.83 114.756 100.711 114.756C99.6914 114.876 98.7922 114.517 98.0729 114.038C97.4135 113.5 96.9339 112.841 96.6941 112.303C96.4543 111.704 96.4543 111.166 96.5143 110.806C96.5143 110.447 96.5742 110.328 96.6342 110.328Z" fill="#333333"/>
<path d="M96.6339 110.327C96.6939 110.267 97.2933 110.866 98.0127 111.584C98.7321 112.362 99.2716 113.02 99.1517 113.08C99.0917 113.14 98.4923 112.541 97.7729 111.823C97.0536 111.045 96.514 110.387 96.6339 110.327Z" fill="#333333"/>
<path d="M100.111 110.147C100.111 110.087 100.83 110.327 101.79 109.848C102.269 109.609 102.749 109.19 103.168 108.651C103.528 108.053 103.768 107.334 103.648 106.556C103.648 106.497 103.648 106.377 103.588 106.317L103.768 106.437C102.989 106.556 102.329 106.856 101.79 107.275C101.25 107.694 100.89 108.172 100.651 108.591C100.171 109.489 100.171 110.147 100.111 110.147C100.111 110.147 100.051 109.968 100.111 109.669C100.111 109.369 100.231 108.95 100.471 108.472C100.711 107.993 101.07 107.454 101.61 106.975C102.149 106.556 102.869 106.197 103.708 106.078H103.828V106.197C103.828 106.257 103.888 106.377 103.888 106.437C104.008 107.275 103.768 108.112 103.348 108.771C102.929 109.369 102.389 109.788 101.85 110.028C101.31 110.267 100.89 110.267 100.531 110.267C100.231 110.267 100.111 110.207 100.111 110.147Z" fill="#333333"/>
<path d="M100.111 110.147C100.051 110.087 100.531 109.489 101.19 108.89C101.849 108.232 102.389 107.753 102.449 107.813C102.509 107.873 102.029 108.471 101.37 109.07C100.71 109.728 100.171 110.207 100.111 110.147Z" fill="#333333"/>
<path d="M84.8846 115.594C84.8846 115.594 85.0045 115.414 85.2443 115.115C85.4841 114.816 85.7239 114.337 85.8438 113.678C85.9637 113.02 85.9637 112.182 85.6639 111.404C85.3642 110.566 84.7647 109.788 83.9255 109.31C83.8655 109.25 83.7456 109.19 83.6857 109.19L83.8655 109.13C83.3859 109.968 83.1462 110.925 83.2061 111.763C83.2061 112.601 83.4459 113.319 83.6857 113.918C84.2252 115.055 84.9446 115.534 84.8846 115.594C84.8846 115.594 84.7048 115.474 84.465 115.235C84.2252 114.995 83.8655 114.576 83.5658 113.978C83.266 113.379 83.0263 112.601 82.9663 111.704C82.9663 110.806 83.1462 109.848 83.6857 108.951L83.7456 108.831L83.8655 108.891C83.9255 108.951 84.0454 108.951 84.1652 109.01C85.1244 109.549 85.7838 110.447 86.0236 111.285C86.3233 112.182 86.2634 113.02 86.1435 113.678C86.0236 114.337 85.6639 114.875 85.4241 115.115C85.0645 115.474 84.8846 115.594 84.8846 115.594Z" fill="#333333"/>
<path d="M84.8845 115.594C84.8245 115.594 84.5847 114.696 84.4648 113.559C84.285 112.422 84.285 111.524 84.3449 111.524C84.4049 111.524 84.6447 112.422 84.7646 113.559C84.8845 114.636 84.9444 115.534 84.8845 115.594Z" fill="#333333"/>
<path d="M177.802 117.329L139.436 100.213C136.499 98.8959 134.46 96.2028 133.981 93.0308L130.744 71.1863C130.684 70.5878 131.044 70.0492 131.643 69.9295C132.183 69.8098 132.722 70.1091 132.902 70.6477L139.256 86.6271L184.156 100.272C189.791 102.068 191.949 107.334 190.031 112.242C188.173 117.15 182.598 119.484 177.802 117.329Z" fill="#FFBE9D"/>
<path d="M139.256 86.6272C139.256 86.6272 139.436 86.687 139.736 86.7469C140.036 86.8666 140.515 86.9863 141.055 87.1658C142.194 87.5249 143.812 88.0037 145.791 88.662C149.807 89.9188 155.262 91.6544 161.377 93.5097C167.491 95.365 173.006 96.9809 177.023 98.118C179.001 98.7165 180.62 99.1354 181.759 99.4945C182.298 99.6741 182.718 99.7937 183.077 99.8536C183.377 99.9733 183.497 99.9733 183.497 100.033C183.497 100.033 183.317 100.033 183.017 99.9134C182.718 99.8536 182.238 99.7339 181.699 99.6142C180.56 99.315 178.941 98.896 176.903 98.3574C172.886 97.2801 167.311 95.6642 161.197 93.809C155.082 91.9537 149.567 90.2181 145.611 88.9014C143.632 88.2431 142.074 87.7045 140.935 87.3454C140.395 87.1658 139.976 86.9863 139.676 86.9264C139.376 86.687 139.256 86.6272 139.256 86.6272Z" fill="#EB996E"/>
<path d="M189.252 114.277C189.252 114.277 189.132 114.277 188.892 114.277C188.653 114.277 188.293 114.277 187.873 114.217C187.454 114.157 186.914 114.097 186.315 113.858C185.715 113.678 185.056 113.319 184.396 112.96C183.737 112.541 182.958 112.122 182.178 111.643C181.399 111.165 180.56 110.626 179.72 110.028C177.982 108.89 176.064 107.574 173.846 106.736C171.628 105.898 169.29 105.599 167.252 105.539C165.153 105.539 163.295 105.898 161.796 106.317C160.298 106.736 159.159 107.275 158.32 107.694C157.9 107.873 157.66 108.053 157.42 108.172C157.24 108.292 157.121 108.352 157.121 108.352C157.121 108.352 157.24 108.292 157.42 108.112C157.6 107.993 157.9 107.813 158.26 107.574C159.039 107.155 160.178 106.556 161.677 106.078C163.175 105.599 165.094 105.24 167.192 105.24C169.29 105.24 171.628 105.539 173.906 106.377C176.184 107.215 178.102 108.531 179.84 109.728C180.68 110.327 181.519 110.865 182.298 111.404C183.078 111.883 183.797 112.362 184.516 112.721C185.176 113.14 185.835 113.439 186.435 113.678C187.034 113.918 187.574 113.978 187.993 114.037C188.713 114.217 189.252 114.217 189.252 114.277Z" fill="#333333"/>
<path d="M181.938 111.584C181.938 111.584 181.998 111.763 181.998 112.182C181.998 112.541 181.878 113.08 181.459 113.678C181.099 114.217 180.5 114.816 179.66 115.234C178.821 115.594 177.802 115.773 176.783 115.474C176.663 115.474 176.603 115.414 176.483 115.354L176.363 115.294L176.423 115.175C176.723 114.217 177.262 113.439 177.922 112.841C178.581 112.242 179.301 111.943 179.9 111.763C180.5 111.584 181.039 111.584 181.399 111.584C181.758 111.524 181.938 111.584 181.938 111.584C181.938 111.644 181.159 111.524 179.96 111.883C179.361 112.063 178.701 112.422 178.102 112.96C177.502 113.499 177.023 114.277 176.723 115.175L176.603 114.995C176.663 114.995 176.783 115.055 176.843 115.055C177.742 115.354 178.761 115.234 179.48 114.875C180.26 114.516 180.799 113.978 181.219 113.499C181.579 112.96 181.758 112.481 181.818 112.122C181.938 111.823 181.938 111.584 181.938 111.584Z" fill="#333333"/>
<path d="M181.938 111.584C181.998 111.644 181.339 112.242 180.44 112.9C179.54 113.559 178.761 114.037 178.761 113.918C178.701 113.858 179.361 113.259 180.26 112.601C181.099 112.003 181.878 111.524 181.938 111.584Z" fill="#333333"/>
<path d="M176.004 107.694C176.004 107.694 176.004 107.933 175.944 108.292C175.824 108.651 175.584 109.19 175.104 109.609C174.625 110.087 173.906 110.506 173.006 110.686C172.107 110.865 171.088 110.746 170.189 110.267C170.069 110.207 170.009 110.147 169.949 110.087L169.829 110.028L169.889 109.908C170.369 109.01 171.088 108.412 171.867 107.993C172.647 107.574 173.366 107.394 174.025 107.394C174.685 107.394 175.164 107.454 175.524 107.574C175.884 107.574 176.004 107.694 176.004 107.694C176.004 107.753 175.224 107.454 174.025 107.514C173.426 107.574 172.707 107.753 171.987 108.172C171.268 108.591 170.608 109.19 170.129 110.028L170.069 109.848C170.129 109.908 170.249 109.968 170.309 109.968C171.148 110.447 172.107 110.566 172.946 110.387C173.786 110.207 174.445 109.848 174.925 109.429C175.404 109.01 175.704 108.531 175.824 108.232C175.944 107.873 176.004 107.694 176.004 107.694Z" fill="#333333"/>
<path d="M176.004 107.693C176.064 107.753 175.225 108.172 174.206 108.591C173.186 109.01 172.347 109.309 172.287 109.19C172.227 109.13 173.067 108.711 174.086 108.292C175.165 107.873 176.004 107.634 176.004 107.693Z" fill="#333333"/>
<path d="M186.315 113.678C186.315 113.678 186.135 113.618 185.835 113.379C185.535 113.14 185.176 112.721 184.996 112.062C184.816 111.404 184.696 110.626 184.876 109.728C185.056 108.831 185.595 107.933 186.435 107.334C186.495 107.275 186.615 107.215 186.674 107.155L186.794 107.095L186.854 107.215C187.454 108.053 187.754 108.95 187.813 109.788C187.873 110.626 187.694 111.404 187.454 112.003C187.214 112.601 186.914 113.02 186.674 113.319C186.495 113.559 186.315 113.678 186.315 113.678C186.255 113.618 186.854 113.08 187.274 111.943C187.454 111.344 187.634 110.626 187.514 109.848C187.454 109.07 187.154 108.172 186.615 107.394L186.794 107.454C186.734 107.514 186.615 107.574 186.555 107.634C185.775 108.172 185.296 109.01 185.056 109.848C184.876 110.686 184.936 111.464 185.116 112.062C185.296 112.661 185.595 113.08 185.835 113.379C186.135 113.559 186.315 113.678 186.315 113.678Z" fill="#333333"/>
<path d="M186.315 113.678C186.255 113.678 186.195 112.781 186.195 111.703C186.255 110.626 186.315 109.728 186.435 109.728C186.495 109.728 186.555 110.626 186.555 111.703C186.495 112.781 186.375 113.678 186.315 113.678Z" fill="#333333"/>
<path d="M171.868 106.137C171.868 106.137 171.688 106.137 171.328 106.078C170.968 106.018 170.489 105.778 170.069 105.359C169.65 104.881 169.23 104.282 168.99 103.504C168.81 102.726 168.87 101.709 169.35 100.871C169.41 100.811 169.47 100.691 169.47 100.631L169.53 100.512L169.65 100.572C170.489 100.99 171.088 101.649 171.448 102.367C171.868 103.025 171.988 103.744 172.047 104.342C172.107 104.94 171.988 105.419 171.928 105.718C171.988 105.958 171.928 106.137 171.868 106.137C171.808 106.137 172.047 105.419 171.928 104.342C171.868 103.803 171.688 103.145 171.268 102.487C170.909 101.828 170.309 101.23 169.53 100.871L169.71 100.811C169.65 100.871 169.65 100.931 169.59 101.05C169.17 101.828 169.11 102.726 169.23 103.444C169.41 104.162 169.77 104.821 170.189 105.24C170.549 105.659 171.028 105.898 171.328 106.018C171.688 106.078 171.928 106.078 171.868 106.137Z" fill="#333333"/>
<path d="M171.868 106.137C171.808 106.197 171.388 105.479 170.968 104.522C170.549 103.624 170.309 102.846 170.369 102.786C170.429 102.726 170.849 103.444 171.268 104.402C171.688 105.3 171.988 106.078 171.868 106.137Z" fill="#333333"/>
<path d="M167.132 105.42C167.132 105.42 167.252 105.599 167.312 105.899C167.372 106.258 167.432 106.737 167.252 107.335C167.072 107.934 166.712 108.592 166.113 109.19C165.513 109.729 164.614 110.148 163.655 110.148C163.535 110.148 163.475 110.148 163.355 110.148H163.235V110.028C163.235 109.13 163.475 108.233 163.895 107.574C164.314 106.916 164.854 106.377 165.333 106.078C165.813 105.779 166.293 105.599 166.592 105.54C166.952 105.42 167.132 105.42 167.132 105.42C167.132 105.48 166.413 105.599 165.513 106.258C165.034 106.557 164.554 107.036 164.195 107.694C163.835 108.352 163.595 109.13 163.595 110.028L163.475 109.849C163.535 109.849 163.655 109.849 163.715 109.849C164.614 109.849 165.393 109.49 165.993 108.951C166.532 108.472 166.892 107.814 167.132 107.275C167.312 106.737 167.312 106.258 167.252 105.899C167.192 105.599 167.132 105.42 167.132 105.42Z" fill="#333333"/>
<path d="M167.132 105.419C167.192 105.479 166.772 106.137 166.173 106.975C165.573 107.753 165.034 108.412 164.974 108.352C164.914 108.292 165.334 107.634 165.933 106.796C166.533 105.958 167.072 105.359 167.132 105.419Z" fill="#333333"/>
<path d="M163.775 105.659C163.775 105.659 163.655 105.778 163.355 105.838C163.055 105.898 162.636 105.898 162.096 105.778C161.557 105.599 161.017 105.3 160.538 104.701C160.058 104.162 159.758 103.384 159.758 102.547C159.758 102.487 159.758 102.367 159.758 102.307V102.188H159.878C160.658 102.188 161.437 102.487 161.976 102.846C162.576 103.205 162.935 103.684 163.235 104.162C163.475 104.581 163.595 105 163.655 105.3C163.775 105.479 163.775 105.659 163.775 105.659C163.715 105.659 163.655 105.06 163.115 104.222C162.876 103.803 162.456 103.384 161.916 103.025C161.377 102.666 160.657 102.427 159.938 102.427L160.118 102.307C160.118 102.367 160.118 102.427 160.118 102.547C160.118 103.325 160.358 104.043 160.777 104.522C161.197 105 161.737 105.359 162.216 105.539C163.115 105.898 163.775 105.539 163.775 105.659Z" fill="#333333"/>
<path d="M163.775 105.659C163.715 105.719 163.115 105.359 162.456 104.761C161.797 104.222 161.257 103.684 161.317 103.624C161.377 103.564 161.976 103.923 162.636 104.522C163.295 105.06 163.835 105.539 163.775 105.659Z" fill="#333333"/>
<path d="M178.941 109.309C178.941 109.309 178.761 109.25 178.462 109.01C178.162 108.771 177.802 108.352 177.622 107.693C177.443 107.035 177.323 106.257 177.503 105.359C177.682 104.462 178.222 103.564 179.061 102.965C179.121 102.906 179.241 102.846 179.301 102.786L179.421 102.726L179.481 102.846C180.08 103.684 180.38 104.581 180.44 105.419C180.5 106.257 180.32 107.035 180.08 107.634C179.84 108.232 179.541 108.651 179.301 108.95C179.121 109.19 178.941 109.309 178.941 109.309C178.881 109.25 179.481 108.711 179.9 107.574C180.08 106.975 180.26 106.257 180.14 105.479C180.08 104.701 179.781 103.803 179.241 103.025L179.421 103.085C179.361 103.145 179.241 103.205 179.181 103.265C178.402 103.803 177.922 104.641 177.682 105.479C177.503 106.317 177.562 107.095 177.742 107.693C177.922 108.292 178.222 108.711 178.462 109.01C178.761 109.13 178.941 109.25 178.941 109.309Z" fill="#333333"/>
<path d="M178.941 109.309C178.881 109.309 178.821 108.412 178.821 107.334C178.881 106.257 178.941 105.359 179.061 105.359C179.121 105.359 179.181 106.257 179.181 107.334C179.121 108.412 179.001 109.309 178.941 109.309Z" fill="#333333"/>
<path d="M18.2241 199.201C18.2241 199.201 18.284 199.082 18.344 198.962C18.4039 198.782 18.5238 198.543 18.7036 198.184C19.0034 197.525 19.423 196.508 19.7227 195.132C20.4421 192.438 20.6819 188.309 19.6628 183.461C19.1832 181.007 18.4039 178.374 17.5047 175.621C16.6055 172.808 15.5265 169.876 14.6273 166.704C13.788 163.532 13.0687 160.061 13.1885 156.41C13.3084 152.759 14.3875 149.168 15.5864 145.518C16.7853 141.927 17.9843 138.336 18.344 134.805C18.7636 131.274 17.9843 127.743 16.3657 124.93C14.8071 122.057 12.8289 119.544 11.3302 117.03C9.83153 114.457 8.87238 111.883 8.33286 109.429C7.19387 104.522 7.6135 100.392 8.15302 97.6393C8.75249 94.8863 9.4119 93.45 9.4119 93.45C9.4119 93.45 9.4119 93.5696 9.35196 93.7492C9.29201 93.9287 9.23206 94.228 9.11217 94.5272C8.87238 95.2454 8.63259 96.2628 8.33286 97.6393C7.85329 100.392 7.49361 104.462 8.63259 109.37C9.23206 111.763 10.1912 114.397 11.6899 116.91C13.1885 119.424 15.1668 121.878 16.7254 124.81C18.4039 127.683 19.1832 131.274 18.7636 134.925C18.4039 138.515 17.145 142.106 16.006 145.697C14.8071 149.288 13.7281 152.879 13.6082 156.47C13.4883 160.061 14.1477 163.472 14.9869 166.644C15.8262 169.816 16.9052 172.808 17.8044 175.561C18.7036 178.374 19.4829 181.007 19.9625 183.461C20.9816 188.369 20.6819 192.558 19.9026 195.251C19.5429 196.628 19.1233 197.585 18.7636 198.304C18.5837 198.603 18.4639 198.842 18.344 199.022C18.284 199.082 18.2241 199.201 18.2241 199.201Z" fill="#333333"/>
<path d="M13.4279 119.484C13.4279 119.484 10.4306 109.908 15.8258 104.282C16.0057 104.103 16.3653 104.163 16.4253 104.462C16.6651 106.018 17.0247 110.866 13.4279 119.484Z" fill="#E8505B"/>
<path d="M15.2264 107.454C15.2864 107.454 15.1665 108.113 15.0466 109.25C14.8668 110.447 14.627 111.883 14.3872 113.499C14.1474 115.055 13.9076 116.491 13.7278 117.748C13.5479 118.825 13.488 119.484 13.428 119.484C13.3681 119.484 13.3681 118.825 13.488 117.688C13.6079 116.611 13.7877 115.115 14.0275 113.439C14.3272 111.763 14.567 110.267 14.8068 109.25C14.9867 108.113 15.1665 107.454 15.2264 107.454Z" fill="#333333"/>
<path d="M16.9058 142.046C16.9058 142.046 18.7641 132.172 26.1376 129.718C26.3773 129.658 26.6771 129.897 26.5572 130.137C26.0776 131.693 24.1593 136.122 16.9058 142.046Z" fill="#E8505B"/>
<path d="M24.1585 132.291C24.2184 132.351 23.7988 132.89 23.1394 133.787C22.42 134.745 21.5208 135.942 20.5617 137.199C19.6025 138.456 18.7033 139.653 17.984 140.61C17.3246 141.508 16.9049 142.046 16.9049 141.987C16.845 141.987 17.2047 141.388 17.8041 140.431C18.4036 139.533 19.3028 138.276 20.3219 136.959C21.341 135.643 22.3001 134.446 23.0195 133.608C23.619 132.77 24.0985 132.291 24.1585 132.291Z" fill="#333333"/>
<path d="M14.9265 166.823C14.9265 166.823 13.7875 156.829 20.1418 152.34C20.3816 152.161 20.6814 152.34 20.6814 152.639C20.6814 154.255 20.1418 159.043 14.9265 166.823Z" fill="#E8505B"/>
<path d="M19.0026 155.392C19.0626 155.392 18.8228 156.051 18.4631 157.068C18.0435 158.205 17.5639 159.582 16.9644 161.078C16.4249 162.574 15.9453 163.951 15.5257 165.088C15.166 166.105 14.9262 166.763 14.8663 166.763C14.8063 166.763 14.9262 166.105 15.2859 165.028C15.5856 163.951 16.0652 162.514 16.6647 160.958C17.2642 159.402 17.8037 157.966 18.2233 156.948C18.6429 155.991 18.9427 155.392 19.0026 155.392Z" fill="#333333"/>
<path d="M20.5021 191.72C20.5021 191.72 19.7227 181.726 26.2569 177.477C26.4967 177.357 26.7965 177.477 26.7965 177.776C26.6766 179.392 25.9572 184.18 20.5021 191.72Z" fill="#E8505B"/>
<path d="M24.9379 180.469C24.9979 180.469 24.7581 181.127 24.3384 182.145C23.8589 183.282 23.3194 184.598 22.7199 186.095C22.1204 187.591 21.5809 188.908 21.1013 190.045C20.6817 191.062 20.4419 191.72 20.382 191.661C20.322 191.661 20.5019 191.002 20.8615 189.925C21.2212 188.908 21.7607 187.471 22.3602 185.915C23.0196 184.359 23.6191 182.983 24.0987 181.965C24.5782 181.008 24.9379 180.409 24.9379 180.469Z" fill="#333333"/>
<path d="M9.1119 111.045C9.1119 111.045 0.17984 106.377 0 98.6566C0 98.3574 0.299734 98.2377 0.53952 98.3574C1.85835 99.2551 5.5151 102.427 9.1119 111.045Z" fill="#E8505B"/>
<path d="M1.85852 101.29C1.91846 101.29 2.33809 101.769 2.99751 102.667C3.71687 103.684 4.55612 104.821 5.51527 106.138C6.47442 107.454 7.31367 108.591 8.03303 109.609C8.69244 110.507 9.11207 111.045 9.05212 111.045C8.99218 111.105 8.5126 110.566 7.85319 109.729C7.13383 108.891 6.23463 107.694 5.21553 106.317C4.25639 104.941 3.35719 103.684 2.81767 102.786C2.15825 101.948 1.79857 101.35 1.85852 101.29Z" fill="#333333"/>
<path d="M18.6433 131.633C18.6433 131.633 9.47143 127.563 8.81201 119.783C8.81201 119.484 9.0518 119.304 9.29159 119.484C10.7303 120.322 14.5669 123.194 18.6433 131.633Z" fill="#E8505B"/>
<path d="M10.8502 122.356C10.9102 122.296 11.3298 122.835 12.0492 123.673C12.8285 124.631 13.7277 125.768 14.7468 126.965C15.7658 128.221 16.665 129.299 17.5043 130.256C18.2237 131.094 18.6433 131.633 18.5833 131.633C18.5234 131.693 18.0438 131.214 17.2645 130.436C16.4852 129.658 15.5261 128.521 14.447 127.204C13.368 125.887 12.4688 124.69 11.8094 123.793C11.15 122.955 10.7903 122.356 10.8502 122.356Z" fill="#333333"/>
<path d="M13.368 154.555C13.368 154.555 7.07361 146.715 10.011 139.533C10.1309 139.293 10.4306 139.234 10.6105 139.473C11.4497 140.909 13.5479 145.218 13.368 154.555Z" fill="#E8505B"/>
<path d="M10.6705 142.765C10.7305 142.765 10.9103 143.423 11.1501 144.5C11.3899 145.697 11.7496 147.134 12.0493 148.69C12.409 150.246 12.7087 151.682 12.9485 152.879C13.1883 153.956 13.3681 154.615 13.3082 154.615C13.2483 154.615 13.0085 154.016 12.7087 152.939C12.409 151.862 12.0493 150.425 11.6896 148.749C11.33 147.134 11.0302 145.637 10.9103 144.56C10.6705 143.423 10.6106 142.765 10.6705 142.765Z" fill="#333333"/>
<path d="M19.6026 181.606C19.6026 181.606 10.4907 177.357 9.95117 169.576C9.95117 169.277 10.2509 169.098 10.4307 169.277C11.8695 170.115 15.6461 173.107 19.6026 181.606Z" fill="#E8505B"/>
<path d="M11.9894 172.15C12.0493 172.09 12.4689 172.629 13.1883 173.466C13.9676 174.424 14.8668 175.561 15.8259 176.818C16.845 178.075 17.7442 179.212 18.5235 180.169C19.183 181.007 19.6625 181.546 19.6026 181.606C19.5426 181.666 19.0631 181.187 18.3437 180.349C17.6243 179.511 16.6052 178.374 15.5862 177.057C14.5671 175.741 13.6679 174.544 13.0084 173.646C12.2891 172.808 11.9294 172.21 11.9894 172.15Z" fill="#333333"/>
<path d="M37.7664 142.106C37.7664 142.106 37.7664 142.166 37.7664 142.346C37.7664 142.525 37.7664 142.705 37.7664 143.004C37.7664 143.603 37.7064 144.441 37.6465 145.458C37.5266 147.612 37.3468 150.605 37.1669 154.136C36.5075 157.787 34.6492 161.796 32.1913 165.687C30.3929 168.559 28.4746 171.193 26.7961 173.646C25.1176 176.1 23.7389 178.314 22.7797 180.289C21.8206 182.264 21.2211 184 20.8614 185.197C20.6816 185.795 20.5617 186.274 20.5017 186.573C20.4418 186.873 20.3818 187.052 20.3818 187.052C20.3818 187.052 20.3818 186.873 20.4418 186.573C20.5017 186.274 20.5617 185.795 20.7415 185.137C21.0412 183.94 21.5808 182.205 22.5399 180.17C23.4991 178.135 24.8778 175.861 26.5563 173.407C28.1749 170.953 30.0932 168.32 31.8916 165.447C34.3494 161.557 36.2078 157.607 36.8672 154.016C37.107 150.425 37.3468 147.493 37.4666 145.338C37.5266 144.321 37.5865 143.483 37.6465 142.884C37.6465 142.645 37.7064 142.406 37.7064 142.226C37.7664 142.226 37.7664 142.106 37.7664 142.106Z" fill="#333333"/>
<path d="M32.371 164.968C32.371 164.968 36.2076 155.692 31.3519 149.647C31.1721 149.408 30.8124 149.468 30.7524 149.767C30.3328 151.263 29.5535 156.051 32.371 164.968Z" fill="#E8505B"/>
<path d="M31.6514 152.819C31.7114 152.819 31.8312 153.477 31.9511 154.555C32.071 155.632 32.2509 157.128 32.3708 158.804C32.4907 160.48 32.5506 161.976 32.5506 163.113C32.5506 164.19 32.4907 164.908 32.4307 164.908C32.3708 164.908 32.3108 164.25 32.2509 163.113C32.1909 161.856 32.071 160.42 31.9511 158.864C31.8312 157.248 31.7114 155.811 31.6514 154.615C31.5915 153.537 31.5915 152.819 31.6514 152.819Z" fill="#333333"/>
<g opacity="0.3">
<g opacity="0.3">
<g opacity="0.3">
<g opacity="0.3">
<path opacity="0.3" d="M32.371 164.968C32.371 164.968 36.2076 155.692 31.3519 149.647C31.1721 149.408 30.8124 149.468 30.7524 149.767C30.3328 151.263 29.5535 156.051 32.371 164.968Z" fill="#333333"/>
</g>
</g>
</g>
</g>
<path d="M20.3817 187.292C20.3817 187.292 23.4989 177.716 18.1637 172.09C17.9838 171.911 17.6241 171.971 17.5642 172.27C17.2645 173.826 16.9048 178.614 20.3817 187.292Z" fill="#E8505B"/>
<path d="M18.7034 175.262C18.7634 175.262 18.9432 175.921 19.1231 176.998C19.3629 178.075 19.6026 179.571 19.9024 181.247C20.1422 182.923 20.322 184.419 20.4419 185.496C20.5018 186.573 20.5018 187.292 20.5018 187.292C20.4419 187.292 20.382 186.633 20.2021 185.556C20.0223 184.359 19.7825 182.923 19.5427 181.307C19.3029 179.751 19.0631 178.314 18.8833 177.058C18.7634 175.98 18.6435 175.322 18.7034 175.262Z" fill="#333333"/>
<g opacity="0.3">
<g opacity="0.3">
<g opacity="0.3">
<g opacity="0.3">
<path opacity="0.3" d="M20.3817 187.292C20.3817 187.292 23.4989 177.716 18.1637 172.09C17.9838 171.911 17.6241 171.971 17.5642 172.27C17.2645 173.826 16.9048 178.614 20.3817 187.292Z" fill="#333333"/>
</g>
</g>
</g>
</g>
<path d="M37.2866 153.597C37.2866 153.597 45.4993 147.852 44.72 140.131C44.72 139.832 44.3603 139.712 44.1805 139.892C42.9216 141.029 39.6845 144.62 37.2866 153.597Z" fill="#E8505B"/>
<g opacity="0.3">
<g opacity="0.3">
<g opacity="0.3">
<g opacity="0.3">
<path opacity="0.3" d="M37.2866 153.597C37.2866 153.597 45.4993 147.852 44.72 140.131C44.72 139.832 44.3603 139.712 44.1805 139.892C42.9216 141.029 39.6845 144.62 37.2866 153.597Z" fill="#333333"/>
</g>
</g>
</g>
</g>
<path d="M43.1612 143.004C43.2211 143.004 42.9214 143.662 42.5018 144.62C42.0222 145.637 41.3628 146.954 40.5235 148.45C39.7442 149.946 38.9649 151.263 38.3655 152.161C37.766 153.059 37.3464 153.657 37.3464 153.597C37.2864 153.537 37.6461 152.999 38.1856 152.041C38.7851 150.964 39.4445 149.707 40.2238 148.271C41.0031 146.834 41.6625 145.578 42.262 144.5C42.8015 143.603 43.1012 143.004 43.1612 143.004Z" fill="#333333"/>
<path d="M23.7388 177.836C23.7388 177.836 33.6899 176.28 36.3276 168.978C36.4475 168.739 36.2077 168.44 35.908 168.559C34.3493 168.978 29.8533 170.774 23.7388 177.836Z" fill="#E8505B"/>
<g opacity="0.3">
<g opacity="0.3">
<g opacity="0.3">
<g opacity="0.3">
<path opacity="0.3" d="M23.7388 177.836C23.7388 177.836 33.6899 176.28 36.3276 168.978C36.4475 168.739 36.2077 168.44 35.908 168.559C34.3493 168.978 29.8533 170.774 23.7388 177.836Z" fill="#333333"/>
</g>
</g>
</g>
</g>
<path d="M33.69 170.893C33.75 170.953 33.2105 171.372 32.3712 172.09C31.532 172.749 30.2731 173.706 28.9542 174.664C27.5755 175.621 26.3166 176.459 25.3574 177.058C24.3983 177.656 23.7988 177.955 23.7988 177.895C23.7988 177.836 24.3383 177.477 25.2375 176.818C26.2566 176.1 27.4556 175.262 28.7145 174.364C30.0333 173.467 31.2322 172.569 32.1914 171.911C33.0906 171.252 33.69 170.893 33.69 170.893Z" fill="#333333"/>
<path d="M11.9292 196.089L14.8066 214.762L26.1965 214.702L30.0331 196.089H11.9292Z" fill="#4F4F4F"/>
<path d="M28.3545 203.271C28.3545 203.271 28.3545 203.271 28.2346 203.331C28.1747 203.39 28.0548 203.45 27.9349 203.51C27.6351 203.63 27.2155 203.809 26.676 203.869C26.0765 203.929 25.3572 203.929 24.5779 203.69C23.7986 203.45 22.9593 202.912 22.2999 202.074C22.0002 201.655 21.8203 201.116 21.7604 200.518C21.7004 199.919 21.9402 199.261 22.5397 198.902C23.1391 198.543 23.8585 198.662 24.458 199.081C25.0574 199.44 25.3572 200.099 25.537 200.817C25.7169 201.475 25.7169 202.193 25.6569 202.912C25.597 203.63 25.4771 204.348 25.1773 205.066C24.8776 205.784 24.458 206.443 23.8585 206.921C23.259 207.46 22.4797 207.819 21.6405 207.819C20.8012 207.879 20.0219 207.58 19.3625 207.161C18.7031 206.742 18.1636 206.203 17.684 205.605C17.2044 205.006 16.8447 204.288 16.8447 203.57C16.7848 202.852 17.0845 202.074 17.624 201.595C18.2235 201.116 19.0628 201.176 19.6622 201.475C20.2617 201.775 20.7413 202.373 20.8012 202.971C21.041 204.228 20.2617 205.425 19.3625 205.904C18.4034 206.443 17.4442 206.443 16.605 206.323C15.7657 206.143 15.1662 205.844 14.6267 205.545C14.1471 205.246 13.7875 205.006 13.5477 204.827C13.3079 204.647 13.188 204.528 13.188 204.528C13.188 204.528 13.3079 204.587 13.5477 204.767C13.7875 204.946 14.1471 205.186 14.6867 205.425C15.1662 205.665 15.8256 205.964 16.605 206.143C17.3843 206.263 18.3434 206.263 19.1827 205.724C20.0219 205.246 20.6813 204.168 20.5015 203.031C20.3816 202.493 20.0219 201.954 19.4824 201.715C18.9429 201.415 18.2835 201.415 17.7439 201.834C17.2644 202.253 17.0246 202.912 17.0845 203.57C17.1445 204.228 17.4442 204.887 17.8638 205.425C18.2835 205.964 18.8829 206.503 19.4824 206.862C20.0819 207.221 20.8612 207.52 21.5805 207.46C22.2999 207.4 23.0192 207.101 23.5588 206.622C24.0983 206.143 24.5179 205.545 24.8177 204.887C25.0574 204.228 25.2373 203.51 25.2373 202.852C25.2972 202.134 25.2373 201.475 25.1174 200.817C24.9975 200.159 24.6378 199.62 24.1582 199.261C23.6787 198.902 23.0192 198.842 22.5397 199.081C22.0601 199.381 21.8203 199.919 21.8803 200.458C21.8803 200.996 22.0601 201.475 22.3598 201.894C22.8994 202.732 23.7386 203.211 24.458 203.51C25.2373 203.75 25.8967 203.809 26.4962 203.75C27.815 203.63 28.3545 203.211 28.3545 203.271Z" fill="#333333"/>
</svg>
