<svg width="328" height="290" viewBox="0 0 328 290" fill="none" xmlns="http://www.w3.org/2000/svg">
<path d="M328 215.331C328 215.404 257.288 215.55 170.044 215.55C82.8011 215.55 12.0889 215.477 12.0889 215.331C12.0889 215.258 82.8011 215.113 170.044 215.113C257.288 215.113 328 215.258 328 215.331Z" fill="#CBF7E3"/>
<path d="M278.698 160.04C278.917 159.821 280.592 160.987 282.703 163.391C283.796 164.556 284.961 166.086 286.053 167.907C287.218 169.728 288.311 171.768 289.33 174.026C290.277 176.285 291.005 178.543 291.515 180.583C292.025 182.622 292.316 184.516 292.462 186.119C292.753 189.324 292.462 191.291 292.171 191.291C291.369 191.364 290.714 183.642 286.927 175.046C283.286 166.377 278.115 160.55 278.698 160.04Z" fill="#CBF7E3"/>
<path d="M294.719 197.629C294.355 197.702 293.481 193.477 292.608 186.483C291.734 179.563 291.005 169.947 290.787 159.311C290.496 148.675 290.641 139.059 290.86 132.066C291.078 125.073 291.37 120.775 291.734 120.775C292.098 120.775 292.389 125.073 292.68 132.066C292.899 138.987 293.117 148.602 293.409 159.238C293.7 169.801 294.137 179.417 294.501 186.338C294.792 193.331 295.084 197.629 294.719 197.629Z" fill="#CBF7E3"/>
<path d="M310.231 137.238C310.595 137.457 309.212 140.371 307.464 145.324C305.643 150.278 303.458 157.126 301.274 164.847C299.162 172.569 297.487 179.635 296.467 184.735C295.448 189.834 295.084 193.112 294.647 193.112C294.355 193.112 294.064 189.761 294.647 184.516C295.229 179.198 296.613 171.986 298.798 164.192C300.982 156.397 303.458 149.477 305.716 144.669C307.973 139.788 309.94 137.02 310.231 137.238Z" fill="#CBF7E3"/>
<path d="M274.766 188.814V197.265C274.766 207.245 282.849 215.331 292.826 215.331C302.803 215.331 310.886 207.245 310.886 197.265V188.814H274.766Z" fill="#CBF7E3"/>
<path d="M311.178 195.953C311.178 196.099 303.021 196.245 292.972 196.245C282.922 196.245 274.766 196.099 274.766 195.953C274.766 195.808 282.922 195.662 292.972 195.662C303.021 195.735 311.178 195.808 311.178 195.953Z" fill="#E9FAF7"/>
<path d="M311.178 198.285C311.178 198.43 303.021 198.576 292.972 198.576C282.922 198.576 274.766 198.43 274.766 198.285C274.766 198.139 282.922 197.993 292.972 197.993C303.021 198.066 311.178 198.139 311.178 198.285Z" fill="#E9FAF7"/>
<path d="M302.004 0.0463867H246.471V58H302.004V0.0463867Z" fill="#CBF7E3"/>
<path d="M298.255 0.0463867H242.721V58H298.255V0.0463867Z" fill="#CBF7E3"/>
<path d="M290.757 7.83984H250.161V50.2064H290.757V7.83984Z" fill="#E9FAF7"/>
<path d="M250.161 50.4995C250.161 50.5581 249.809 50.9683 249.165 51.6714C248.521 52.3746 247.583 53.2536 246.588 54.3084C245.592 55.3045 244.654 56.2421 243.952 56.8281C243.249 57.4727 242.839 57.8243 242.78 57.8243C242.721 57.7657 243.131 57.3555 243.776 56.6523C244.42 55.9491 245.357 55.0701 246.353 54.0154C247.349 53.0192 248.345 52.0816 248.989 51.4371C249.692 50.7925 250.161 50.4409 250.161 50.4995Z" fill="#CBF7E3"/>
<path d="M290.815 50.3823C290.874 50.3823 291.284 50.7339 291.987 51.3785C292.69 52.0231 293.568 52.9606 294.623 53.9568C295.619 54.953 296.556 55.8906 297.142 56.5937C297.786 57.2969 298.138 57.7071 298.138 57.7657C298.079 57.8243 297.669 57.4141 296.966 56.7695C296.263 56.125 295.384 55.1874 294.33 54.1912C293.334 53.195 292.397 52.1989 291.752 51.5543C291.167 50.8511 290.757 50.3823 290.815 50.3823Z" fill="#CBF7E3"/>
<path d="M290.698 7.9571C290.698 7.8985 291.049 7.48832 291.694 6.78514C292.338 6.08196 293.276 5.20299 294.271 4.14822C295.267 3.15205 296.204 2.21448 296.907 1.62849C297.61 0.983914 298.02 0.632324 298.079 0.632324C298.138 0.690922 297.728 1.10111 297.083 1.80429C296.439 2.50747 295.502 3.38644 294.506 4.44121C293.51 5.43738 292.514 6.37495 291.87 7.01953C291.167 7.60551 290.698 7.9571 290.698 7.9571Z" fill="#CBF7E3"/>
<path d="M250.102 8.07423C250.044 8.07423 249.634 7.72264 248.931 7.07806C248.228 6.43348 247.349 5.49591 246.295 4.49974C245.299 3.50357 244.362 2.566 243.776 1.86282C243.132 1.15964 242.78 0.749453 242.78 0.690855C242.839 0.632257 243.249 1.04244 243.952 1.68702C244.655 2.3316 245.533 3.26918 246.588 4.26535C247.584 5.26152 248.521 6.25769 249.165 6.90227C249.751 7.60544 250.102 8.01563 250.102 8.07423Z" fill="#CBF7E3"/>
<path d="M290.698 50.2064C290.698 50.2064 290.698 50.1478 290.698 50.0306C290.698 49.9134 290.698 49.679 290.698 49.4446C290.698 48.9172 290.698 48.1554 290.698 47.1593C290.698 45.1669 290.698 42.237 290.639 38.5453C290.639 31.1033 290.581 20.5557 290.581 7.89846L290.698 8.01565C278.865 8.01565 264.981 8.01565 250.219 8.01565L250.395 7.83986C250.395 23.3684 250.395 37.9593 250.395 50.2064L250.278 50.0892C262.404 50.0892 272.538 50.1478 279.626 50.1478C283.141 50.1478 285.953 50.1478 287.886 50.2064C288.823 50.2064 289.585 50.2064 290.053 50.2064C290.288 50.2064 290.463 50.2064 290.639 50.2064H290.698C290.698 50.2064 290.639 50.2064 290.522 50.2064C290.405 50.2064 290.229 50.2064 289.995 50.2064C289.526 50.2064 288.765 50.2064 287.827 50.2064C285.953 50.2064 283.141 50.2064 279.626 50.265C272.538 50.265 262.404 50.3236 250.219 50.3236H250.102V50.2064C250.102 37.9593 250.102 23.3684 250.102 7.83986V7.66406H250.278C265.099 7.66406 278.982 7.66406 290.756 7.66406H290.873V7.78126C290.873 20.4971 290.815 31.1033 290.815 38.4867C290.815 42.1784 290.815 45.1083 290.756 47.1007C290.756 48.0968 290.756 48.8586 290.756 49.386C290.756 49.6204 290.756 49.7962 290.756 49.972C290.698 50.1478 290.698 50.2064 290.698 50.2064Z" fill="#CBF7E3"/>
<path d="M260.881 25.5366C260.881 25.5366 260.002 36.0257 271.367 36.0257C271.367 30.4003 266.798 26.0054 260.881 25.5366Z" fill="#CBF7E3"/>
<path d="M281.677 25.5365C281.677 25.5365 271.191 24.6575 271.191 36.0256C276.815 36.0256 281.208 31.3963 281.677 25.5365Z" fill="#CBF7E3"/>
<path d="M270.898 19.7939C270.898 19.7939 262.345 27.4703 271.367 36.0257C275.584 31.5722 275.174 24.599 270.898 19.7939Z" fill="#CBF7E3"/>
<path d="M86.9999 27.0042H48.2625V67.3928H86.9999V27.0042Z" fill="#CBF7E3"/>
<path d="M84.3986 27.0042H45.6611V67.3928H84.3986V27.0042Z" fill="#E9FAF7"/>
<path d="M84.3982 67.3928H45.6125V27.0042H84.3982V67.3928ZM45.6607 67.3928H84.3982V27.0042H45.6607V67.3928Z" fill="#CBF7E3"/>
<path d="M79.1946 32.4502H50.8643V61.9946H79.1946V32.4502Z" fill="#E9FAF7"/>
<path d="M50.8642 62.1874C50.8642 62.2356 50.6233 62.5248 50.1415 63.0068C49.7079 63.4888 49.0333 64.1153 48.3588 64.8383C47.6361 65.5612 47.0097 66.1878 46.5279 66.6215C46.0461 67.0553 45.757 67.3445 45.7088 67.2963C45.6607 67.2481 45.9498 66.9589 46.3834 66.4769C46.817 65.995 47.4915 65.3684 48.1661 64.6455C48.8888 63.9225 49.5151 63.296 49.9969 62.8622C50.5269 62.3802 50.816 62.1393 50.8642 62.1874Z" fill="#CBF7E3"/>
<path d="M79.1945 62.0913C79.2427 62.0913 79.5318 62.3323 80.0136 62.8143C80.4954 63.248 81.1218 63.9228 81.8445 64.5975C82.5672 65.3205 83.1935 65.947 83.6272 66.429C84.0608 66.911 84.3499 67.2001 84.3017 67.2483C84.2535 67.2965 83.9644 67.0073 83.4826 66.5736C83.0008 66.1398 82.3745 65.4651 81.6518 64.7903C80.929 64.0674 80.3027 63.4408 79.8691 62.9588C79.3872 62.4287 79.1463 62.0913 79.1945 62.0913Z" fill="#CBF7E3"/>
<path d="M79.0981 32.4986C79.0981 32.4504 79.339 32.1612 79.8209 31.6792C80.2545 31.1973 80.929 30.5707 81.6036 29.8478C82.3263 29.1248 82.9526 28.4983 83.4344 28.0645C83.9162 27.6307 84.2053 27.3416 84.2535 27.3898C84.3017 27.438 84.0126 27.7271 83.579 28.2091C83.1453 28.6911 82.4708 29.3176 81.7963 30.0406C81.0736 30.7635 80.4472 31.3901 79.9654 31.8238C79.4354 32.2576 79.0981 32.5468 79.0981 32.4986Z" fill="#CBF7E3"/>
<path d="M50.7679 32.5949C50.7197 32.5949 50.4307 32.3539 49.9489 31.8719C49.467 31.4382 48.8407 30.7634 48.118 30.0887C47.3953 29.3657 46.7689 28.7392 46.3353 28.2572C45.9017 27.7752 45.6126 27.4861 45.6608 27.4379C45.7089 27.3897 45.998 27.6788 46.4798 28.1126C46.9616 28.5464 47.588 29.2211 48.3107 29.8959C49.0334 30.6188 49.6598 31.2454 50.0934 31.7273C50.527 32.2575 50.8161 32.5467 50.7679 32.5949Z" fill="#CBF7E3"/>
<path d="M79.0983 61.9466C79.0983 61.9466 79.0983 61.8984 79.0983 61.802C79.0983 61.7056 79.0983 61.561 79.0983 61.3682C79.0983 60.9826 79.0983 60.4525 79.0983 59.7777C79.0983 58.38 79.0983 56.3558 79.0501 53.7532C79.0501 48.5962 79.0019 41.2221 79.0019 32.4022L79.0983 32.4986C70.8593 32.4986 61.175 32.4986 50.8643 32.4986L51.0088 32.354C51.0088 43.1982 51.0088 53.3194 51.0088 61.8984L50.9124 61.802C59.3923 61.802 66.4267 61.8502 71.3893 61.8502C73.8465 61.8502 75.822 61.8502 77.1228 61.8984C77.7974 61.8984 78.2792 61.8984 78.6646 61.8984C78.8092 61.8984 78.9537 61.8984 79.0501 61.8984C79.0501 61.9466 79.0983 61.9466 79.0983 61.9466C79.0983 61.9466 79.0501 61.9466 78.9537 61.9466C78.8574 61.9466 78.7128 61.9466 78.5683 61.9466C78.231 61.9466 77.701 61.9466 77.0747 61.9466C75.7256 61.9466 73.7984 61.9466 71.3411 61.9948C66.3785 61.9948 59.2959 62.043 50.8161 62.043H50.7197V61.9466C50.7197 53.4158 50.7197 43.2464 50.7197 32.4022V32.2576H50.8643C61.175 32.2576 70.8593 32.2576 79.0983 32.2576H79.1946V32.354C79.1946 41.2221 79.1464 48.5962 79.1464 53.8014C79.1464 56.3558 79.1464 58.38 79.0983 59.7777C79.0983 60.4525 79.0983 60.9826 79.0983 61.3682C79.0983 61.561 79.0983 61.6574 79.0983 61.7538C79.0983 61.9466 79.0983 61.9466 79.0983 61.9466Z" fill="#CBF7E3"/>
<path d="M69.7513 42.4751H60.3079V51.9216H69.7513V42.4751Z" fill="#CBF7E3"/>
<path d="M160.213 290C245.358 290 314.382 277.345 314.382 261.735C314.382 246.125 245.358 233.47 160.213 233.47C75.0681 233.47 6.04443 246.125 6.04443 261.735C6.04443 277.345 75.0681 290 160.213 290Z" fill="#CBF7E3"/>
<path d="M219.055 261.735C219.055 261.735 219.055 261.516 218.764 261.225C218.472 260.934 217.963 260.642 217.234 260.351C215.778 259.768 213.448 259.258 210.462 258.748C204.49 257.801 195.751 257 184.973 256.49C174.195 255.98 161.305 255.834 146.959 256.126C139.822 256.271 132.321 256.636 124.529 257.218C120.67 257.51 116.737 257.874 112.732 258.457C110.765 258.748 108.726 259.04 106.76 259.477C105.741 259.695 104.794 259.914 103.847 260.278C103.337 260.424 102.9 260.642 102.464 260.861C102.027 261.079 101.59 261.444 101.59 261.808C101.59 262.172 102.099 262.536 102.464 262.755C102.9 262.973 103.41 263.192 103.847 263.338C104.794 263.629 105.813 263.92 106.76 264.139C108.726 264.576 110.765 264.867 112.732 265.159C116.737 265.669 120.67 266.106 124.529 266.397C132.321 266.98 139.822 267.271 146.959 267.49C161.233 267.854 174.122 267.636 184.973 267.126C195.751 266.616 204.49 265.887 210.462 264.867C213.448 264.357 215.778 263.848 217.234 263.265C217.963 262.973 218.545 262.682 218.764 262.391C219.128 261.953 219.055 261.735 219.055 261.735C219.055 261.735 219.128 261.953 218.837 262.318C218.545 262.609 218.035 262.973 217.307 263.265C215.851 263.848 213.52 264.43 210.535 264.94C204.563 265.96 195.824 266.761 185.046 267.271C174.268 267.781 161.378 268 147.032 267.708C139.895 267.563 132.394 267.271 124.602 266.689C120.742 266.397 116.737 266.033 112.805 265.45C110.838 265.159 108.799 264.867 106.833 264.43C105.813 264.212 104.867 263.993 103.847 263.629C103.337 263.483 102.9 263.265 102.391 263.046C102.172 262.901 101.954 262.755 101.735 262.609C101.517 262.391 101.298 262.172 101.298 261.808C101.298 261.444 101.517 261.225 101.735 261.006C101.954 260.788 102.172 260.642 102.391 260.569C102.828 260.351 103.337 260.132 103.847 259.987C104.867 259.622 105.813 259.404 106.833 259.185C108.799 258.748 110.838 258.457 112.805 258.165C116.81 257.655 120.742 257.218 124.602 256.927C132.394 256.344 139.895 256.053 147.032 255.907C161.305 255.616 174.268 255.834 185.046 256.344C195.824 256.854 204.563 257.728 210.535 258.675C213.52 259.185 215.851 259.695 217.307 260.351C218.035 260.642 218.618 260.934 218.837 261.298C219.128 261.516 219.055 261.735 219.055 261.735Z" fill="#E9FAF7"/>
<path d="M254.156 261.735C254.156 261.735 254.229 261.371 253.865 260.788C253.501 260.205 252.773 259.55 251.608 258.967C249.35 257.801 245.709 256.636 240.975 255.689C231.435 253.722 217.453 252.046 200.048 251.026C182.716 250.006 161.961 249.569 138.949 250.225C127.442 250.589 115.426 251.172 102.973 252.41C96.7834 252.993 90.4477 253.795 84.0392 254.887C80.8349 255.47 77.7035 256.126 74.4992 257C72.8971 257.437 71.3678 257.947 69.9113 258.602C69.1831 258.967 68.4548 259.331 67.7994 259.768C67.144 260.205 66.5614 260.861 66.5614 261.589C66.5614 262.318 67.144 262.973 67.7994 263.41C68.4548 263.92 69.1831 264.285 69.9113 264.576C71.3678 265.232 72.9699 265.742 74.4992 266.179C77.6307 267.053 80.8349 267.708 84.0392 268.291C90.3749 269.384 96.7106 270.185 102.973 270.768C115.426 272.006 127.515 272.589 139.021 272.953C162.034 273.609 182.716 273.172 200.121 272.152C217.453 271.132 231.508 269.53 241.048 267.49C245.782 266.47 249.423 265.377 251.68 264.212C252.846 263.629 253.574 262.973 253.938 262.391C254.156 262.099 254.084 261.735 254.156 261.735C254.156 261.735 254.156 261.808 254.156 261.953C254.156 262.099 254.084 262.391 253.865 262.682C253.501 263.265 252.773 263.92 251.608 264.503C249.35 265.742 245.709 266.834 240.975 267.854C231.435 269.894 217.453 271.569 200.048 272.589C182.643 273.609 161.961 274.119 138.949 273.463C127.442 273.099 115.354 272.516 102.901 271.278C96.6378 270.695 90.3021 269.894 83.9664 268.801C80.7621 268.218 77.5578 267.563 74.4264 266.689C72.8243 266.252 71.295 265.742 69.7657 265.013C69.0374 264.649 68.2363 264.285 67.5809 263.775C67.2168 263.556 66.9255 263.192 66.6342 262.901C66.3429 262.536 66.1973 262.099 66.1973 261.662C66.1973 261.225 66.4157 260.715 66.707 260.424C66.9983 260.059 67.2896 259.768 67.6537 259.55C68.3092 259.04 69.1102 258.675 69.8385 258.311C71.3678 257.655 72.9699 257.146 74.4992 256.636C77.6307 255.761 80.8349 255.106 84.0392 254.523C90.4477 253.43 96.7834 252.629 102.973 252.046C115.426 250.808 127.515 250.225 139.021 249.861C162.034 249.205 182.789 249.642 200.121 250.735C217.453 251.755 231.508 253.43 241.048 255.47C245.782 256.49 249.423 257.655 251.68 258.821C252.846 259.404 253.574 260.059 253.938 260.642C254.084 260.934 254.156 261.152 254.229 261.371C254.156 261.662 254.156 261.735 254.156 261.735Z" fill="#E9FAF7"/>
<path d="M297.632 261.735C297.632 261.735 297.705 261.225 297.268 260.351C296.904 259.477 295.885 258.384 294.355 257.291C291.224 255.179 285.908 253.212 278.989 251.463C265.08 247.967 244.471 245.053 218.909 243.305C193.348 241.556 162.762 240.755 128.899 241.92C111.931 242.503 94.1617 243.596 75.8828 245.709C66.707 246.801 57.4583 248.112 48.1368 250.079C43.4761 251.099 38.8153 252.192 34.2274 253.795C31.9699 254.596 29.7123 255.47 27.6004 256.636C26.5809 257.218 25.5613 257.874 24.6874 258.748C23.8136 259.55 23.1581 260.642 23.0853 261.808C23.0853 262.973 23.8136 263.993 24.6146 264.867C25.4885 265.669 26.508 266.397 27.5276 266.98C29.6395 268.146 31.897 269.02 34.1546 269.821C38.7425 271.351 43.4033 272.516 48.064 273.536C57.3855 275.503 66.707 276.814 75.81 277.907C94.1617 280.02 111.931 281.112 128.826 281.695C162.689 282.861 193.275 282.059 218.837 280.311C244.398 278.49 265.007 275.649 278.917 272.152C285.835 270.404 291.151 268.437 294.283 266.324C295.885 265.305 296.831 264.212 297.195 263.265C297.705 262.245 297.56 261.735 297.632 261.735C297.632 261.735 297.632 261.881 297.632 262.099C297.632 262.245 297.632 262.391 297.56 262.536C297.56 262.682 297.414 262.901 297.341 263.119C296.977 263.993 295.957 265.159 294.428 266.179C291.297 268.291 285.981 270.331 279.062 272.079C265.153 275.649 244.544 278.563 218.982 280.384C193.421 282.205 162.835 283.007 128.899 281.841C111.931 281.258 94.1617 280.165 75.81 278.053C66.6342 276.96 57.3127 275.649 47.9912 273.682C43.3304 272.662 38.6697 271.569 34.0818 269.967C31.8242 269.165 29.4938 268.291 27.3819 267.053C26.2896 266.47 25.27 265.742 24.3961 264.94C23.5223 264.066 22.7212 262.973 22.7212 261.589C22.7212 260.278 23.5223 259.112 24.3961 258.311C25.27 257.437 26.3624 256.781 27.3819 256.199C29.4938 255.033 31.8242 254.086 34.0818 253.285C38.6697 251.682 43.3304 250.589 47.9912 249.569C57.3127 247.603 66.6342 246.291 75.81 245.199C94.1617 243.086 111.931 241.993 128.899 241.41C162.762 240.245 193.348 241.046 218.982 242.867C244.544 244.689 265.226 247.603 279.135 251.172C286.053 252.993 291.37 254.96 294.501 257.073C296.103 258.093 297.05 259.258 297.414 260.132C297.487 260.351 297.56 260.569 297.632 260.715C297.705 260.861 297.705 261.007 297.705 261.152C297.632 261.589 297.632 261.735 297.632 261.735Z" fill="#E9FAF7"/>
<path opacity="0.3" d="M166.549 244.397C154.606 243.596 142.59 242.867 130.647 243.304C118.704 243.814 106.615 245.636 96.0552 249.861C91.9042 251.536 87.6076 253.867 86.8794 257.364C86.0783 261.152 89.8651 264.649 94.3802 266.47C103.629 270.112 115.062 268.218 124.675 265.159C134.288 262.099 143.609 257.874 154.023 257C162.689 256.271 171.355 258.02 179.512 260.278C187.668 262.536 195.606 265.304 204.053 266.834C212.501 268.364 221.75 268.583 229.615 265.814C233.839 264.357 237.771 261.589 237.989 258.092C238.135 255.616 236.387 253.285 233.911 251.609C231.435 250.006 228.304 248.987 225.245 248.185C205.291 242.867 183.517 243.523 162.398 244.251" fill="#BDBDBD"/>
<path d="M18.206 260.496C16.531 261.735 14.8561 262.973 13.1811 264.139C12.6713 264.503 12.0887 265.013 12.2344 265.596C12.3072 266.397 13.3268 266.616 14.1278 266.688C19.5168 266.98 23.2308 266.397 27.9644 263.92C28.4014 263.702 29.785 262.973 30.3676 262.463C30.7317 262.172 32.3339 261.006 32.0426 260.642C31.7513 260.278 31.1687 260.205 30.6589 260.278C26.3623 260.351 22.5026 260.424 18.206 260.496Z" fill="#CBF7E3"/>
<path d="M217.016 101.179C216.943 99.3575 215.924 97.6092 214.321 96.8807C212.938 96.2251 211.19 96.4436 209.806 97.2449C208.423 98.0462 207.476 99.2847 206.675 100.669C204.709 104.238 204.49 108.463 204.053 112.543C203.616 116.622 202.67 120.046 200.485 124.053L215.414 106.278C216.433 104.748 217.162 102.927 217.016 101.179Z" fill="#E8505B"/>
<g opacity="0.2">
<g opacity="0.2">
<path opacity="0.2" d="M217.016 101.179C216.943 99.3575 215.924 97.6092 214.321 96.8807C212.938 96.2251 211.19 96.4436 209.806 97.2449C208.423 98.0462 207.476 99.2847 206.675 100.669C204.709 104.238 204.49 108.463 204.053 112.543C203.616 116.622 202.67 120.046 200.485 124.053L215.414 106.278C216.433 104.748 217.162 102.927 217.016 101.179Z" fill="#333333"/>
</g>
</g>
<path d="M199.975 91.49C200.849 92.2185 229.906 125.583 229.906 125.583L214.176 138.04L194.222 113.126L199.975 91.49Z" fill="#FFBE9D"/>
<path d="M113.387 102.708C112.586 103.583 89.1367 134.761 89.1367 134.761L103.847 150.715L121.908 123.47L113.387 102.708Z" fill="#FFBE9D"/>
<path d="M113.679 123.397C115.426 124.199 116.373 126.02 117.029 127.768C117.684 129.517 118.121 131.411 119.359 132.868C120.597 134.325 122.855 135.126 124.384 134.033C125.84 133.013 125.913 130.755 125.258 129.152C124.457 127.113 122.855 125.51 120.961 124.417C119.141 123.324 117.029 122.669 114.917 122.159" fill="#E8505B"/>
<g opacity="0.2">
<g opacity="0.2">
<path opacity="0.2" d="M113.679 123.397C115.426 124.199 116.373 126.02 117.029 127.768C117.684 129.517 118.121 131.411 119.359 132.868C120.597 134.325 122.855 135.126 124.384 134.033C125.84 133.013 125.913 130.755 125.258 129.152C124.457 127.113 122.855 125.51 120.961 124.417C119.141 123.324 117.029 122.669 114.917 122.159" fill="#333333"/>
</g>
</g>
<path d="M250.224 186.483C249.933 186.411 249.35 186.265 248.622 186.192L190.071 161.642H131.812L74.4264 184.298C68.6004 186.265 60.2985 197.629 65.0321 211.179C65.1777 211.543 65.3234 211.907 65.469 212.271C69.2559 221.742 79.6697 226.622 89.501 224C97.4388 221.887 108.799 218.755 120.524 215.55H121.835L158.32 205.205C164.073 206.808 176.089 210.086 189.416 213.801C205.656 218.245 223.862 223.271 235.076 226.258C244.908 228.881 255.394 224 259.108 214.53C259.254 214.166 259.4 213.801 259.545 213.437C264.352 199.815 256.05 188.45 250.224 186.483Z" fill="#4F4F4F"/>
<path d="M157.956 205.351C157.956 205.351 158.029 205.351 158.174 205.278C158.32 205.205 158.538 205.205 158.757 205.06C159.339 204.914 160.068 204.695 161.087 204.404C163.126 203.821 166.112 202.947 169.826 201.927L169.68 202.073C168.151 196.536 166.185 189.179 163.854 180.656L164.073 180.801C162.107 180.801 160.14 180.801 158.101 180.801C156.062 180.801 153.95 181.02 151.766 181.093C147.469 181.311 142.954 181.603 138.293 181.821C121.616 182.768 106.615 183.934 95.6911 184.808C90.3021 185.245 85.8598 185.609 82.8012 185.901C81.2719 186.046 80.1067 186.119 79.3056 186.192C78.9415 186.192 78.6502 186.265 78.3589 186.265C78.1405 186.265 78.0676 186.265 78.0676 186.265C78.0676 186.265 78.1405 186.265 78.3589 186.192C78.5774 186.192 78.8687 186.119 79.2328 186.119C80.0339 186.046 81.1991 185.901 82.7284 185.755C85.787 185.464 90.1564 185.026 95.6183 184.517C106.469 183.57 121.544 182.404 138.22 181.384C142.881 181.166 147.396 180.874 151.693 180.656C153.878 180.583 155.989 180.437 158.029 180.364C160.068 180.364 162.107 180.364 164.073 180.364H164.219L164.291 180.51C166.549 189.033 168.515 196.391 169.972 201.927V202.073H169.826C166.112 203.093 163.126 203.894 161.014 204.404C159.995 204.695 159.267 204.841 158.684 204.987C158.465 205.06 158.247 205.06 158.101 205.132C158.029 205.351 157.956 205.351 157.956 205.351Z" fill="#333333"/>
<path d="M138.949 181.384C138.876 181.457 137.274 180.583 135.526 179.126C133.778 177.669 132.54 176.212 132.686 176.139C132.759 176.066 134.142 177.305 135.817 178.762C137.565 180.146 139.021 181.238 138.949 181.384Z" fill="#333333"/>
<path d="M243.306 188.596C243.306 188.596 243.014 188.596 242.505 188.596C241.922 188.596 241.194 188.523 240.174 188.45C238.135 188.304 235.295 188.086 231.727 187.867C224.59 187.357 214.759 186.702 203.908 185.973C193.057 185.318 183.226 184.735 176.089 184.298C172.593 184.079 169.68 183.934 167.641 183.788C166.695 183.715 165.894 183.642 165.384 183.642C164.874 183.569 164.583 183.569 164.583 183.569C164.583 183.569 164.874 183.569 165.384 183.569C165.966 183.569 166.695 183.642 167.714 183.642C169.753 183.715 172.593 183.861 176.162 184.006C183.299 184.371 193.13 184.881 203.981 185.536C214.831 186.265 224.663 186.993 231.799 187.576C235.295 187.867 238.208 188.159 240.247 188.304C241.194 188.377 241.995 188.45 242.505 188.523C243.014 188.523 243.306 188.596 243.306 188.596Z" fill="#333333"/>
<path d="M158.902 187.503C158.83 187.431 159.776 186.556 161.306 186.119C162.835 185.755 164.073 186.046 164.073 186.119C164.073 186.265 162.835 186.192 161.451 186.556C159.995 186.921 158.975 187.576 158.902 187.503Z" fill="#333333"/>
<path d="M160.505 191.146C160.505 191 161.524 190.781 162.908 190.636C164.219 190.49 165.311 190.417 165.311 190.563C165.311 190.709 164.292 190.927 162.908 191.073C161.597 191.291 160.505 191.291 160.505 191.146Z" fill="#333333"/>
<path d="M161.16 195.444C161.16 195.298 162.471 195.298 164 194.788C165.529 194.351 166.622 193.695 166.695 193.841C166.767 193.914 165.748 194.788 164.146 195.298C162.544 195.808 161.16 195.589 161.16 195.444Z" fill="#333333"/>
<path d="M162.616 200.106C162.616 199.96 163.854 199.887 165.311 199.305C166.767 198.795 167.714 198.066 167.86 198.139C167.933 198.212 166.986 199.159 165.529 199.742C163.927 200.325 162.616 200.252 162.616 200.106Z" fill="#333333"/>
<path d="M189.27 179.126C189.343 179.199 188.396 180.364 187.304 181.821C186.211 183.278 185.41 184.589 185.265 184.516C185.119 184.444 185.774 183.06 186.94 181.53C188.032 180.073 189.197 179.053 189.27 179.126Z" fill="#333333"/>
<path d="M164.219 180.583L150.236 178.47C150.236 178.47 148.998 175.192 146.814 175.046C144.629 174.901 142.663 177.232 141.133 177.086C139.531 176.94 120.815 170.676 119.796 179.126L127.588 182.331" fill="#FFBE9D"/>
<path d="M210.025 188.232L168.515 197.119L164.801 182.841L180.167 182.113C180.167 182.113 181.988 179.126 184.172 179.344C186.284 179.563 187.814 182.258 189.416 182.404C190.945 182.55 210.462 179.709 210.025 188.232Z" fill="#FFBE9D"/>
<path d="M131.157 163.026C131.157 163.026 131.011 163.099 130.792 163.172C130.574 163.318 130.21 163.463 129.7 163.682C128.753 164.119 127.37 164.702 125.549 165.503C121.908 167.033 116.665 169.218 110.11 171.841C103.556 174.463 95.764 177.523 87.2435 181.093C82.9469 182.914 78.359 184.589 73.9895 187.139L73.1885 187.649C73.1157 187.722 73.0428 187.722 73.0428 187.722C73.0428 187.649 73.0428 187.649 73.0428 187.649C73.1157 187.722 73.2613 187.722 73.407 187.795C73.9895 187.867 74.645 187.94 75.3004 187.94C76.6112 188.013 77.8492 187.94 79.1601 187.94C81.7817 187.867 84.4034 187.795 87.0979 187.649C97.803 187.066 107.998 186.338 117.247 185.609C126.496 184.881 134.871 184.225 141.862 183.642C148.853 183.059 154.533 182.622 158.466 182.258C160.432 182.112 161.961 181.967 162.981 181.894C163.49 181.821 163.855 181.821 164.146 181.821C164.437 181.821 164.583 181.821 164.583 181.821C164.583 181.821 164.437 181.821 164.219 181.894C163.927 181.894 163.563 181.967 163.053 182.04C162.034 182.112 160.505 182.258 158.538 182.477C154.606 182.841 148.926 183.351 141.934 184.006C134.943 184.589 126.569 185.318 117.32 186.046C108.071 186.775 97.8759 187.576 87.1707 188.086C84.4762 188.232 81.8546 188.377 79.2329 188.377C77.9221 188.377 76.6112 188.45 75.3004 188.377C74.645 188.377 73.9895 188.304 73.3341 188.232C73.1885 188.159 73.0428 188.159 72.8244 188.013C72.7515 187.94 72.6787 187.867 72.6787 187.795C72.6787 187.722 72.7515 187.576 72.7515 187.576C72.8244 187.503 72.8972 187.43 72.97 187.43L73.7711 186.92C78.2133 184.371 82.8013 182.695 87.0979 180.874C95.6911 177.304 103.483 174.245 110.038 171.695C116.592 169.146 121.835 167.033 125.476 165.503C127.297 164.775 128.68 164.119 129.627 163.755C130.064 163.536 130.428 163.391 130.72 163.318C131.011 163.099 131.157 163.026 131.157 163.026Z" fill="white"/>
<path d="M188.542 163.026C188.542 163.026 188.615 163.026 188.833 163.099C189.052 163.172 189.27 163.318 189.634 163.391C190.362 163.682 191.309 164.119 192.62 164.702C195.242 165.795 198.956 167.397 203.544 169.364C212.792 173.225 225.609 178.616 239.737 184.516C243.306 185.973 246.728 187.43 249.933 189.179C250.297 189.397 250.734 189.616 251.098 189.834C251.316 189.98 251.462 190.053 251.68 190.199C251.753 190.271 251.753 190.271 251.826 190.344C251.899 190.417 251.899 190.49 251.899 190.636C251.899 190.781 251.826 190.781 251.753 190.854C251.68 190.927 251.607 190.927 251.535 190.927C250.588 191.218 249.714 191.218 248.84 191.218C247.092 191.291 245.417 191.218 243.742 191.146C237.115 190.854 231.144 190.271 226.119 189.834C221.094 189.397 217.089 188.96 214.321 188.596C212.938 188.45 211.845 188.304 211.117 188.232C210.753 188.159 210.462 188.159 210.316 188.159C210.098 188.159 210.025 188.086 210.025 188.086C210.025 188.086 210.098 188.086 210.316 188.086C210.535 188.086 210.826 188.159 211.19 188.159C211.918 188.232 213.011 188.304 214.394 188.45C217.234 188.742 221.24 189.106 226.265 189.543C231.29 189.98 237.188 190.49 243.815 190.781C245.49 190.854 247.165 190.927 248.913 190.854C249.787 190.781 250.661 190.781 251.462 190.563L251.535 190.49C251.535 190.49 251.607 190.49 251.535 190.49C251.535 190.49 251.535 190.417 251.462 190.417C251.316 190.271 251.098 190.199 250.952 190.053C250.588 189.834 250.151 189.616 249.787 189.397C246.655 187.649 243.16 186.192 239.664 184.735C225.536 178.834 212.719 173.444 203.471 169.51C198.883 167.543 195.169 165.867 192.547 164.775C191.309 164.192 190.29 163.755 189.634 163.463C189.343 163.318 189.052 163.172 188.906 163.099C188.615 163.099 188.542 163.099 188.542 163.026Z" fill="white"/>
<path d="M157.883 79.543C165.092 80.0529 171.137 74.0794 170.7 66.8675C170.554 63.8807 170.409 61.5496 170.409 61.5496C170.409 61.5496 179.876 60.0927 180.021 50.5496C180.167 41.0794 178.492 19.2251 178.492 19.2251C167.496 14.49 154.824 16.0927 145.357 23.3774L143.973 24.4702L146.886 68.3245C147.178 74.298 151.911 79.1059 157.883 79.543Z" fill="#FFBE9D"/>
<path d="M170.408 61.4039C170.408 61.4039 164.437 61.9138 158.028 57.9072C158.028 57.9072 160.941 64.7549 170.408 63.8807V61.4039Z" fill="#EB996E"/>
<path d="M145.066 34.3045C144.92 34.2316 138.512 32.3376 138.73 38.8939C138.949 45.3773 145.43 43.8475 145.43 43.629C145.43 43.4833 145.066 34.3045 145.066 34.3045Z" fill="#FFBE9D"/>
<path d="M143.391 41.298C143.391 41.298 143.245 41.3708 143.099 41.4437C142.881 41.5165 142.59 41.5894 142.226 41.5165C141.497 41.298 140.915 40.2053 140.842 39.0397C140.842 38.4569 140.915 37.8741 141.133 37.437C141.352 36.9271 141.643 36.6357 141.934 36.5629C142.298 36.49 142.517 36.6357 142.59 36.8543C142.662 37 142.662 37.1457 142.662 37.1457C142.662 37.1457 142.808 37 142.735 36.7814C142.735 36.6357 142.59 36.49 142.444 36.4172C142.298 36.2715 142.08 36.2715 141.789 36.2715C141.279 36.3443 140.842 36.7814 140.623 37.2914C140.405 37.8013 140.259 38.4569 140.259 39.1125C140.332 40.4238 141.06 41.5894 142.007 41.8808C142.444 41.9536 142.808 41.8079 143.027 41.6622C143.318 41.4437 143.391 41.298 143.391 41.298Z" fill="#EB996E"/>
<path d="M157.082 33.3576C157.228 33.2119 158.247 33.9404 159.704 33.9404C161.16 33.9404 162.252 33.2119 162.398 33.3576C162.471 33.4305 162.325 33.7219 161.816 34.0861C161.379 34.4504 160.577 34.7418 159.631 34.7418C158.757 34.7418 157.956 34.3775 157.519 34.0861C157.155 33.7219 157.009 33.4305 157.082 33.3576Z" fill="#333333"/>
<path d="M171.428 33.0661C171.574 32.9204 172.594 33.6489 174.05 33.6489C175.507 33.6489 176.599 32.9204 176.745 33.0661C176.817 33.139 176.672 33.4304 176.162 33.7946C175.725 34.1589 174.924 34.4502 173.977 34.4502C173.103 34.4502 172.302 34.086 171.865 33.7946C171.501 33.4304 171.356 33.139 171.428 33.0661Z" fill="#333333"/>
<path d="M167.642 43.7019C167.642 43.6291 168.515 43.4834 170.045 43.2648C170.409 43.192 170.773 43.1192 170.846 42.9006C170.919 42.6092 170.773 42.245 170.627 41.8079C170.263 40.9337 169.899 39.9867 169.535 38.9668C168.006 34.9602 166.913 31.6092 167.059 31.5364C167.205 31.4635 168.588 34.6688 170.118 38.7483C170.482 39.7682 170.846 40.7152 171.137 41.5893C171.283 42.0264 171.501 42.4635 171.356 43.0463C171.283 43.3377 170.991 43.5562 170.773 43.5562C170.554 43.6291 170.336 43.6291 170.118 43.6291C168.515 43.7748 167.642 43.7748 167.642 43.7019Z" fill="#333333"/>
<path d="M163.345 44.7219C163.563 44.7219 163.563 46.3246 164.947 47.4173C166.331 48.51 168.006 48.3643 168.006 48.5829C168.006 48.6557 167.641 48.8742 166.913 48.8742C166.185 48.8742 165.165 48.6557 164.364 48.0001C163.563 47.3444 163.199 46.3974 163.126 45.7418C163.053 45.0862 163.199 44.7219 163.345 44.7219Z" fill="#333333"/>
<path d="M162.689 28.6226C162.544 28.9868 161.087 28.8411 159.412 29.0596C157.664 29.2053 156.281 29.7153 156.062 29.351C155.99 29.2053 156.208 28.8411 156.791 28.404C157.373 28.0398 158.247 27.6755 159.267 27.5298C160.286 27.3841 161.233 27.6027 161.888 27.8212C162.398 28.1126 162.762 28.4769 162.689 28.6226Z" fill="#333333"/>
<path d="M176.089 30.0066C175.798 30.3708 174.851 30.0066 173.613 30.0066C172.375 29.9338 171.355 30.2252 171.137 29.8609C171.064 29.7152 171.21 29.351 171.647 29.0596C172.084 28.7682 172.812 28.4768 173.686 28.5497C174.487 28.5497 175.215 28.841 175.652 29.2053C176.089 29.5695 176.235 29.8609 176.089 30.0066Z" fill="#333333"/>
<path d="M183.08 13.2517C183.153 12.0861 182.716 10.7748 181.769 10.1192C180.822 9.46359 179.293 9.46359 178.565 10.3378C179.002 8.73511 177.691 6.91392 176.089 6.84107C174.56 6.76822 173.249 7.93379 171.719 8.29802C170.263 8.73511 168.661 8.37087 167.277 7.78809C165.893 7.20531 164.583 6.47683 163.126 5.89405C160.14 4.80134 156.79 4.94703 153.877 6.25829C151.037 7.56955 148.707 10.0464 147.542 13.0331C145.43 12.3775 143.099 13.4702 141.789 15.2186C140.478 16.9669 140.187 19.298 140.405 21.4835C140.551 22.9404 140.988 24.3245 141.497 25.7815C141.497 25.9272 141.497 26 141.497 26.1457C141.57 31.3907 142.153 37.5099 144.41 37.5099C148.27 37.5828 147.396 30.2252 147.396 30.2252C152.13 28.404 150.382 21.2649 151.547 20.1722C152.712 19.0795 155.261 16.6027 165.238 21.702C169.098 23.6689 174.268 23.596 177.108 23.0133C177.181 23.0133 177.254 23.0133 177.327 22.9404H177.4H177.472C178.346 22.7219 179.22 22.3576 180.021 21.8477C180.895 21.2649 181.769 20.5364 182.133 19.5166C182.497 18.4967 182.352 17.2583 181.623 16.5298C182.425 15.5099 183.007 14.4172 183.08 13.2517Z" fill="#333333"/>
<path d="M173.613 0.794678C173.613 0.794678 173.686 0.867526 173.759 1.08607C173.904 1.23176 173.977 1.52315 174.123 1.88739C174.414 2.61587 174.56 3.78143 174.341 5.16554C174.05 6.54964 173.322 8.15229 171.719 9.24501C170.117 10.3377 167.933 10.4834 165.894 10.192C163.782 9.90064 161.888 9.17216 160.14 8.80792C158.393 8.44368 156.718 8.37084 155.407 8.66223C154.096 8.95362 153.149 9.60925 152.567 10.1192C151.984 10.6291 151.838 10.9934 151.766 10.9934C151.766 10.9934 151.838 10.9205 151.911 10.702C151.984 10.5563 152.203 10.2649 152.494 9.97348C153.004 9.3907 154.023 8.73507 155.334 8.37084C156.718 8.0066 158.393 8.0066 160.213 8.37084C162.034 8.73507 163.927 9.3907 165.966 9.68209C168.005 9.97348 170.044 9.82779 171.574 8.80792C173.03 7.78806 173.831 6.25825 174.123 5.01984C174.414 3.70859 174.268 2.54302 174.05 1.81455C173.831 1.15892 173.54 0.867525 173.613 0.794678Z" fill="#4F4F4F"/>
<path d="M171.137 2.61597C171.137 2.61597 171.647 3.05305 171.719 4.07292C171.792 4.58285 171.719 5.16564 171.428 5.82127C171.137 6.40405 170.627 6.98683 169.972 7.35107C169.316 7.71531 168.588 7.93385 167.932 7.93385C167.277 7.93385 166.694 7.861 166.185 7.71531C165.238 7.42391 164.728 7.05968 164.801 6.98683C164.801 6.91398 165.384 7.20537 166.258 7.42391C167.131 7.64246 168.515 7.71531 169.753 6.98683C170.336 6.62259 170.845 6.11266 171.137 5.60272C171.428 5.09279 171.501 4.51001 171.501 4.07292C171.428 3.1259 171.064 2.61597 171.137 2.61597Z" fill="#333333"/>
<path d="M204.418 159.02C204.418 159.02 205 163.537 200.485 166.013L190.071 161.642L177.254 162.517L182.279 148.821C182.279 148.821 196.625 150.57 198.664 152.245C200.776 153.775 204.563 156.835 204.418 159.02Z" fill="#E8505B"/>
<g opacity="0.4">
<path opacity="0.4" d="M204.418 159.02C204.418 159.02 205 163.537 200.485 166.013L190.071 161.642L177.254 162.517L182.279 148.821C182.279 148.821 196.625 150.57 198.664 152.245C200.776 153.775 204.563 156.835 204.418 159.02Z" fill="#333333"/>
</g>
<path d="M204.418 159.02C204.418 159.02 205 163.537 200.485 166.013L190.071 161.642L177.254 162.517L182.279 148.821C182.279 148.821 196.625 150.57 198.664 152.245C200.776 153.775 204.563 156.835 204.418 159.02Z" fill="#E8505B"/>
<g opacity="0.4">
<path opacity="0.4" d="M204.418 159.02C204.418 159.02 205 163.537 200.485 166.013L190.071 161.642L177.254 162.517L182.279 148.821C182.279 148.821 196.625 150.57 198.664 152.245C200.776 153.775 204.563 156.835 204.418 159.02Z" fill="#333333"/>
</g>
<path d="M215.195 97.3908L214.176 96.5166L192.183 79.3245C185.41 72.1126 180.458 69.9272 170.918 68.8345C169.389 68.6159 171.792 68.9801 170.918 68.8345C163.636 71.0927 153.805 71.3113 146.522 69.053C143.1 69.1987 140.332 70.2186 137.419 70.8013C128.316 72.5497 123.51 78.9603 119.941 85.298L102.391 114.801L103.119 115.967C105.595 119.755 109.236 122.596 113.533 124.126L114.698 124.709C118.776 126.748 122.49 129.662 125.039 133.378L132.759 119.828L130.574 141.536L129.045 162.808C139.968 165.795 149.071 167.033 160.796 166.887C176.089 166.96 197.426 148.311 204.272 159.093C204.345 153.556 197.426 145.98 195.46 142.338C189.489 130.974 190.581 126.384 190.144 117.788L200.412 124.053L202.233 120.483C203.762 117.424 206.748 110.649 207.84 105.404C208.059 105.258 209.297 95.4239 215.195 97.3908Z" fill="#E8505B"/>
<path d="M132.904 97.9006C132.904 97.9006 132.977 98.192 132.977 98.7748C132.977 99.3576 133.05 100.159 133.05 101.179C133.05 103.219 133.123 106.06 133.05 109.192C133.05 112.324 132.977 115.166 132.977 117.205C132.977 118.225 132.904 119.026 132.904 119.609C132.904 120.192 132.831 120.483 132.831 120.483C132.831 120.483 132.759 120.192 132.759 119.609C132.759 119.026 132.686 118.225 132.686 117.205C132.686 115.166 132.613 112.324 132.686 109.192C132.686 106.06 132.759 103.219 132.759 101.179C132.759 100.159 132.831 99.3576 132.831 98.7748C132.831 98.192 132.831 97.9006 132.904 97.9006Z" fill="#333333"/>
<path d="M191.6 132.285C191.6 132.285 191.528 131.775 191.455 130.901C191.382 129.954 191.236 128.643 191.091 127.113C190.799 123.907 190.508 119.537 190.144 114.656C189.78 109.775 189.489 105.404 189.343 102.199C189.27 100.669 189.197 99.3577 189.124 98.4107C189.052 97.5365 189.052 97.0266 189.124 97.0266C189.124 97.0266 189.197 97.5365 189.27 98.4107C189.343 99.3577 189.489 100.669 189.634 102.199C189.926 105.404 190.217 109.775 190.581 114.656C190.945 119.537 191.236 123.907 191.382 127.113C191.455 128.643 191.528 129.954 191.6 130.901C191.6 131.775 191.6 132.285 191.6 132.285Z" fill="#333333"/>
<g opacity="0.2">
<g opacity="0.2">
<path opacity="0.2" d="M143.755 69.7815C148.416 76.3378 154.533 81.8742 161.451 85.8808C164 87.3378 166.767 88.649 169.68 88.8676C174.705 89.3047 179.512 86.5365 183.444 83.3312C184.973 82.0928 186.503 80.6358 187.158 78.7418C187.813 76.8477 187.304 74.3709 185.556 73.4967C184.318 72.8411 182.789 73.0596 181.551 73.6424C180.313 74.2252 179.22 75.0994 178.128 75.9007C173.103 79.4702 166.549 80.8543 160.504 79.7616C154.46 78.5961 148.853 74.9537 145.503 69.7815" fill="#333333"/>
</g>
</g>
<path d="M174.05 122.086C173.977 122.086 174.05 120.993 173.613 119.027C173.394 118.08 172.957 116.914 172.229 115.676C171.501 114.437 170.481 113.199 169.025 112.179C167.641 111.159 165.821 110.212 163.782 109.848C161.742 109.484 159.412 109.556 157.227 110.431C156.135 110.795 155.043 111.378 154.096 112.106C153.586 112.47 153.149 112.907 152.712 113.272C152.275 113.709 151.838 114.219 151.474 114.729C149.945 116.768 149.071 119.391 149.071 122.086C149.071 124.782 149.945 127.404 151.474 129.444C151.838 129.954 152.275 130.391 152.712 130.901C153.149 131.338 153.586 131.775 154.096 132.066C155.043 132.795 156.135 133.378 157.227 133.742C159.412 134.543 161.742 134.616 163.782 134.325C165.821 133.96 167.641 133.086 169.025 131.993C170.409 130.901 171.501 129.662 172.229 128.497C172.957 127.258 173.394 126.166 173.613 125.146C174.123 123.252 173.977 122.086 174.05 122.086C174.05 122.086 174.05 122.159 174.05 122.305C174.05 122.45 174.05 122.669 174.05 122.888C174.05 123.179 174.05 123.47 173.977 123.835C173.904 124.199 173.904 124.636 173.758 125.146C173.54 126.166 173.103 127.331 172.375 128.57C171.647 129.808 170.627 131.119 169.171 132.212C167.714 133.305 165.893 134.252 163.854 134.616C161.742 134.98 159.412 134.907 157.155 134.106C155.989 133.742 154.897 133.159 153.95 132.358C153.441 131.993 153.004 131.556 152.494 131.119C152.057 130.609 151.62 130.172 151.256 129.662C149.654 127.55 148.78 124.854 148.78 122.086C148.78 119.318 149.726 116.623 151.256 114.51C151.62 114 152.057 113.49 152.494 113.053C153.004 112.616 153.441 112.179 153.95 111.815C154.97 111.086 156.062 110.503 157.155 110.066C159.412 109.192 161.742 109.192 163.854 109.556C165.966 109.921 167.787 110.868 169.171 111.96C170.627 113.053 171.647 114.364 172.375 115.603C173.103 116.841 173.54 118.007 173.758 119.027C173.904 119.537 173.977 119.974 173.977 120.338C174.05 120.702 174.05 121.066 174.05 121.285C174.05 121.503 174.05 121.722 174.05 121.868C174.05 122.013 174.05 122.086 174.05 122.086Z" fill="white"/>
<path d="M161.087 134.689C161.014 134.689 160.869 129.08 160.869 122.086C160.869 115.166 160.941 109.484 161.087 109.484C161.233 109.484 161.306 115.093 161.306 122.086C161.306 129.08 161.233 134.689 161.087 134.689Z" fill="white"/>
<path d="M171.428 129.808C171.428 129.808 171.137 129.589 170.554 129.225C169.972 128.788 169.244 128.205 168.37 127.55C166.476 126.093 163.927 124.126 161.16 121.868C161.087 121.795 161.014 121.722 160.942 121.722H161.16C158.611 124.126 156.281 126.311 154.533 127.841C153.732 128.57 153.077 129.152 152.494 129.662C151.984 130.099 151.766 130.318 151.693 130.318C151.693 130.318 151.911 130.027 152.348 129.589C152.858 129.08 153.513 128.424 154.315 127.695C155.989 126.093 158.247 123.907 160.869 121.503L161.014 121.358L161.16 121.431C161.233 121.503 161.306 121.576 161.378 121.576C164.146 123.834 166.695 125.874 168.515 127.331C169.389 128.06 170.117 128.642 170.627 129.152C171.21 129.517 171.501 129.735 171.428 129.808Z" fill="white"/>
<g opacity="0.2">
<g opacity="0.2">
<path opacity="0.2" d="M150.746 155.742C161.451 157.781 172.957 153.192 179.439 144.523C180.458 143.139 181.478 141.391 181.041 139.715C180.604 137.967 178.638 136.801 176.817 136.874C174.997 136.947 173.322 137.894 171.938 139.132C168.588 142.046 166.695 146.344 163.345 149.258C160.359 151.881 156.354 153.265 152.421 153.046C151.838 152.973 151.183 153.046 150.6 153.119C149.799 153.265 149.217 153.993 149.217 154.576C149.144 155.305 149.727 155.596 150.746 155.742Z" fill="#333333"/>
</g>
</g>
<g opacity="0.2">
<path opacity="0.2" d="M189.416 104.457L190.29 117.715L200.631 123.98L202.743 119.974L189.416 104.457Z" fill="#333333"/>
</g>
<path d="M215.341 97.6094C215.341 97.6822 214.904 97.3908 214.103 97.3908C213.302 97.318 212.064 97.6094 210.972 98.5564C209.879 99.4306 209.078 101.033 208.568 102.927C208.059 104.748 207.622 106.861 206.893 109.046C205.583 113.344 204.053 117.133 202.815 119.755C202.233 121.066 201.65 122.159 201.286 122.888C200.922 123.616 200.631 123.98 200.631 123.98C200.631 123.98 200.776 123.543 201.14 122.815C201.505 122.086 202.014 120.993 202.597 119.682C203.762 116.987 205.291 113.272 206.602 108.974C207.258 106.861 207.767 104.748 208.277 102.927C208.787 101.033 209.661 99.4306 210.899 98.4836C212.064 97.5365 213.375 97.318 214.176 97.3908C214.613 97.3908 214.904 97.5365 215.123 97.6094C215.268 97.5365 215.341 97.6094 215.341 97.6094Z" fill="#333333"/>
<path d="M125.112 133.305C125.112 133.305 124.821 133.013 124.384 132.43C123.874 131.848 123.219 130.973 122.272 130.099C121.325 129.152 120.087 128.132 118.631 127.185C117.101 126.238 115.354 125.364 113.533 124.417C111.712 123.47 109.965 122.523 108.508 121.503C107.052 120.483 105.814 119.391 104.867 118.444C103.92 117.424 103.338 116.55 102.973 115.821C102.755 115.53 102.682 115.238 102.609 115.02C102.537 114.801 102.464 114.728 102.537 114.728C102.609 114.656 103.265 116.258 105.085 118.225C106.032 119.172 107.27 120.192 108.727 121.212C110.183 122.232 111.931 123.106 113.751 124.053C115.572 125 117.32 125.874 118.849 126.821C120.378 127.768 121.616 128.861 122.563 129.808C123.51 130.755 124.165 131.629 124.602 132.285C124.821 132.576 124.966 132.868 125.112 133.013C125.039 133.159 125.112 133.305 125.112 133.305Z" fill="#333333"/>
<path d="M183.298 137.676C183.298 137.676 183.298 137.821 183.153 138.113C183.08 138.404 182.934 138.768 182.716 139.278C182.279 140.298 181.623 141.682 180.531 143.358C178.419 146.636 174.705 150.788 169.316 153.556C164 156.325 158.393 156.98 154.533 156.762C152.567 156.689 151.037 156.397 149.945 156.179C149.435 156.106 148.998 155.96 148.707 155.887C148.416 155.815 148.27 155.742 148.27 155.742C148.27 155.742 148.416 155.742 148.707 155.815C148.998 155.887 149.435 155.96 149.945 156.033C151.037 156.252 152.567 156.47 154.533 156.47C158.393 156.616 163.854 155.887 169.171 153.192C174.414 150.497 178.201 146.417 180.313 143.212C181.405 141.609 182.133 140.225 182.57 139.205C182.789 138.695 182.934 138.331 183.08 138.04C183.226 137.821 183.298 137.676 183.298 137.676Z" fill="#333333"/>
<g opacity="0.2">
<g opacity="0.2">
<path opacity="0.2" d="M125.767 131.775C126.568 121.212 129.044 110.722 132.904 100.815V119.682L125.767 131.775Z" fill="#333333"/>
</g>
</g>
<path d="M105.595 149.695L151.329 123.179C154.824 121.139 157.009 117.497 157.227 113.49L158.465 85.6621C158.465 84.9337 157.956 84.278 157.154 84.2052C156.499 84.1323 155.844 84.5694 155.625 85.225L149.799 106.132L95.3996 129.152C89.2823 131.775 86.6607 138.987 89.6465 144.887C92.5594 150.861 99.9147 153.046 105.595 149.695Z" fill="#FFBE9D"/>
<path d="M149.799 106.132C149.799 106.132 149.654 106.205 149.29 106.424C148.925 106.569 148.416 106.861 147.76 107.152C146.377 107.808 144.483 108.682 142.08 109.775C137.274 111.96 130.647 114.874 123.219 118.006C115.79 121.139 109.091 123.834 104.139 125.728C101.663 126.675 99.6963 127.477 98.3127 127.987C97.6572 128.205 97.1475 128.424 96.7105 128.569C96.3464 128.715 96.1279 128.788 96.1279 128.715C96.1279 128.715 96.2736 128.642 96.6377 128.497C97.0018 128.351 97.5844 128.132 98.2398 127.841C99.6235 127.258 101.59 126.457 103.993 125.51C108.872 123.543 115.572 120.775 123 117.642C130.428 114.51 137.055 111.596 141.862 109.483C144.265 108.463 146.158 107.589 147.615 107.006C148.27 106.715 148.78 106.497 149.144 106.351C149.581 106.205 149.799 106.132 149.799 106.132Z" fill="#EB996E"/>
<path d="M90.8845 147.364C90.8845 147.364 91.4671 147.291 92.5595 147C93.0692 146.854 93.7247 146.636 94.4529 146.344C95.1811 145.98 95.9094 145.543 96.7105 144.887C97.5115 144.305 98.3854 143.649 99.2593 142.92C100.206 142.192 101.153 141.391 102.099 140.516C104.139 138.841 106.323 136.874 109.091 135.563C111.858 134.179 114.698 133.523 117.32 133.232C119.941 133.013 122.345 133.232 124.311 133.596C126.277 133.96 127.806 134.543 128.826 134.98C129.336 135.199 129.7 135.417 129.991 135.563C130.282 135.709 130.355 135.781 130.355 135.781C130.355 135.781 130.21 135.709 129.918 135.636C129.627 135.563 129.263 135.344 128.753 135.126C127.734 134.762 126.204 134.179 124.238 133.815C122.272 133.45 119.941 133.305 117.32 133.523C114.698 133.815 111.931 134.47 109.236 135.854C106.542 137.166 104.284 139.06 102.318 140.735C101.298 141.609 100.352 142.411 99.4049 143.139C98.4582 143.867 97.5843 144.523 96.7833 145.106C95.9822 145.689 95.1811 146.199 94.4529 146.49C93.7247 146.854 93.0692 147 92.4867 147.146C91.9041 147.291 91.5399 147.291 91.2486 147.364C91.0302 147.364 90.8845 147.364 90.8845 147.364Z" fill="#333333"/>
<path d="M99.6235 143.066C99.6235 143.066 99.6964 143.358 99.7692 143.795C99.9148 144.232 100.133 144.815 100.643 145.47C101.153 146.053 101.954 146.636 102.973 147C103.993 147.364 105.231 147.364 106.323 146.854C106.469 146.782 106.542 146.782 106.615 146.709L106.542 146.927C106.105 145.835 105.377 144.96 104.503 144.305C103.702 143.649 102.828 143.358 102.027 143.212C100.643 142.848 99.6235 143.139 99.6235 143.066C99.6235 143.066 99.842 142.993 100.279 142.921C100.716 142.848 101.371 142.848 102.172 142.921C102.973 143.066 103.92 143.358 104.794 144.013C105.668 144.669 106.469 145.616 106.979 146.709L107.052 146.854L106.906 146.927C106.833 147 106.687 147.073 106.542 147.073C105.304 147.583 103.993 147.583 102.973 147.146C101.881 146.782 101.08 146.126 100.57 145.47C99.9877 144.815 99.7692 144.159 99.6964 143.649C99.6235 143.285 99.6235 143.066 99.6235 143.066Z" fill="#333333"/>
<path d="M99.6235 143.066C99.6964 142.993 100.716 143.43 101.881 144.159C103.046 144.815 103.993 145.47 103.92 145.543C103.847 145.616 102.828 145.179 101.663 144.45C100.497 143.795 99.6235 143.139 99.6235 143.066Z" fill="#333333"/>
<path d="M106.542 137.384C106.542 137.384 106.615 137.603 106.833 138.04C107.052 138.404 107.416 138.987 108.071 139.424C108.726 139.861 109.673 140.298 110.693 140.371C111.712 140.444 112.95 140.225 113.897 139.497C113.97 139.424 114.115 139.351 114.188 139.278V139.497C113.533 138.55 112.586 137.821 111.639 137.457C110.693 137.02 109.746 136.947 109.018 136.947C107.416 136.947 106.542 137.457 106.542 137.384C106.542 137.384 106.76 137.238 107.124 137.093C107.561 136.947 108.144 136.728 108.945 136.728C109.746 136.655 110.766 136.801 111.712 137.238C112.732 137.675 113.679 138.404 114.407 139.424L114.48 139.569L114.334 139.642C114.261 139.715 114.115 139.788 114.043 139.861C112.95 140.662 111.712 140.881 110.547 140.808C109.382 140.662 108.508 140.225 107.78 139.715C107.124 139.205 106.687 138.622 106.542 138.185C106.542 137.675 106.542 137.384 106.542 137.384Z" fill="#333333"/>
<path d="M106.542 137.384C106.542 137.311 107.634 137.53 109.018 137.894C110.329 138.258 111.421 138.695 111.348 138.768C111.348 138.841 110.256 138.622 108.872 138.258C107.561 137.894 106.542 137.457 106.542 137.384Z" fill="#333333"/>
<path d="M94.4529 146.272C94.4529 146.272 94.5986 146.053 94.8899 145.689C95.1812 145.325 95.4725 144.742 95.6181 143.94C95.7638 143.139 95.7638 142.119 95.3996 141.172C95.0355 140.152 94.3073 139.205 93.2877 138.623C93.2149 138.55 93.0693 138.477 92.9964 138.477L93.2149 138.404C92.6323 139.424 92.341 140.589 92.4139 141.609C92.4139 142.629 92.7051 143.503 92.9964 144.232C93.7247 145.616 94.5257 146.199 94.4529 146.272C94.4529 146.272 94.2345 146.126 93.9432 145.834C93.6519 145.543 93.2149 145.033 92.8508 144.305C92.4867 143.576 92.1954 142.629 92.1226 141.536C92.1226 140.444 92.341 139.278 92.9964 138.185L93.0693 138.04L93.2149 138.113C93.2877 138.185 93.4334 138.258 93.579 138.258C94.7442 138.914 95.5453 140.007 95.8366 141.027C96.2007 142.119 96.1279 143.139 95.9822 143.94C95.7638 144.742 95.3996 145.397 95.1083 145.689C94.6714 146.126 94.4529 146.272 94.4529 146.272Z" fill="#333333"/>
<path d="M94.4529 146.271C94.3801 146.271 94.0888 145.179 93.9431 143.795C93.7246 142.411 93.7246 141.318 93.7975 141.318C93.8703 141.318 94.1616 142.411 94.3072 143.795C94.4529 145.106 94.5257 146.199 94.4529 146.271Z" fill="#333333"/>
<path d="M111.494 134.834C111.494 134.834 111.712 134.762 112.076 134.543C112.441 134.324 112.95 134.033 113.387 133.45C113.824 132.868 114.188 131.993 114.334 131.046C114.407 130.099 114.188 129.007 113.606 128.06C113.533 127.987 113.46 127.914 113.387 127.768L113.606 127.841C112.732 128.424 112.076 129.298 111.639 130.099C111.203 130.973 111.13 131.775 111.057 132.503C111.13 134.033 111.567 134.834 111.494 134.834C111.494 134.834 111.348 134.616 111.203 134.252C111.057 133.887 110.911 133.305 110.838 132.576C110.838 131.848 110.911 130.901 111.348 130.026C111.785 129.152 112.441 128.205 113.387 127.55L113.533 127.477L113.606 127.622C113.679 127.695 113.751 127.768 113.824 127.914C114.48 128.934 114.771 130.099 114.625 131.119C114.48 132.139 114.043 133.013 113.533 133.596C113.023 134.179 112.513 134.543 112.076 134.689C111.712 134.907 111.494 134.907 111.494 134.834Z" fill="#333333"/>
<path d="M111.494 134.835C111.421 134.835 111.639 133.815 112.003 132.576C112.368 131.338 112.805 130.391 112.877 130.464C112.95 130.464 112.732 131.484 112.368 132.722C112.003 133.96 111.567 134.907 111.494 134.835Z" fill="#333333"/>
<path d="M117.392 133.378C117.392 133.378 117.392 133.597 117.32 134.034C117.32 134.471 117.32 135.054 117.684 135.71C117.975 136.365 118.558 137.094 119.286 137.676C120.087 138.259 121.106 138.551 122.272 138.478C122.344 138.478 122.49 138.478 122.563 138.405L122.417 138.623C122.344 137.531 121.908 136.584 121.398 135.782C120.888 134.981 120.16 134.471 119.577 134.107C118.266 133.451 117.32 133.451 117.392 133.378C117.392 133.378 117.611 133.378 118.048 133.378C118.485 133.451 119.067 133.597 119.723 133.888C120.378 134.253 121.106 134.763 121.689 135.564C122.272 136.365 122.709 137.385 122.854 138.551V138.696H122.709C122.563 138.696 122.49 138.769 122.344 138.769C121.106 138.915 120.014 138.478 119.14 137.895C118.339 137.239 117.757 136.438 117.465 135.782C117.174 135.054 117.174 134.398 117.247 133.961C117.247 133.524 117.32 133.378 117.392 133.378Z" fill="#333333"/>
<path d="M117.392 133.378C117.465 133.305 118.193 134.033 119.067 134.907C119.941 135.854 120.597 136.656 120.451 136.729C120.378 136.801 119.65 136.073 118.776 135.199C117.902 134.252 117.247 133.45 117.392 133.378Z" fill="#333333"/>
<path d="M121.616 133.159C121.616 133.086 122.49 133.378 123.655 132.795C124.238 132.503 124.821 131.993 125.33 131.338C125.767 130.609 126.059 129.735 125.913 128.788C125.913 128.715 125.913 128.57 125.84 128.497L126.059 128.642C125.112 128.788 124.311 129.152 123.655 129.662C123 130.172 122.563 130.755 122.272 131.265C121.689 132.358 121.689 133.159 121.616 133.159C121.616 133.159 121.544 132.94 121.616 132.576C121.616 132.212 121.762 131.702 122.053 131.119C122.345 130.536 122.782 129.881 123.437 129.298C124.092 128.788 124.966 128.351 125.986 128.205H126.131V128.351C126.131 128.424 126.204 128.57 126.204 128.642C126.35 129.662 126.059 130.682 125.549 131.483C125.039 132.212 124.384 132.722 123.728 133.013C123.073 133.305 122.563 133.305 122.126 133.305C121.762 133.305 121.616 133.232 121.616 133.159Z" fill="#333333"/>
<path d="M121.616 133.159C121.543 133.086 122.126 132.358 122.927 131.629C123.728 130.828 124.384 130.245 124.456 130.318C124.529 130.391 123.947 131.119 123.146 131.848C122.345 132.649 121.689 133.232 121.616 133.159Z" fill="#333333"/>
<path d="M103.119 139.788C103.119 139.788 103.265 139.569 103.556 139.205C103.847 138.841 104.138 138.258 104.284 137.457C104.43 136.655 104.43 135.636 104.066 134.689C103.702 133.669 102.973 132.722 101.954 132.139C101.881 132.066 101.735 131.993 101.662 131.993L101.881 131.92C101.298 132.94 101.007 134.106 101.08 135.126C101.08 136.146 101.371 137.02 101.662 137.748C102.318 139.132 103.192 139.715 103.119 139.788C103.119 139.788 102.9 139.642 102.609 139.351C102.318 139.059 101.881 138.55 101.517 137.821C101.153 137.093 100.861 136.146 100.789 135.053C100.789 133.96 101.007 132.795 101.662 131.702L101.735 131.556L101.881 131.629C101.954 131.702 102.099 131.702 102.245 131.775C103.41 132.43 104.211 133.523 104.503 134.543C104.867 135.636 104.794 136.655 104.648 137.457C104.503 138.258 104.066 138.914 103.774 139.205C103.337 139.642 103.119 139.788 103.119 139.788Z" fill="#333333"/>
<path d="M103.119 139.788C103.046 139.788 102.755 138.695 102.609 137.311C102.391 135.927 102.391 134.834 102.463 134.834C102.536 134.834 102.828 135.927 102.973 137.311C103.119 138.622 103.192 139.715 103.119 139.788Z" fill="#333333"/>
<path d="M215.996 141.901L169.389 121.066C165.821 119.463 163.345 116.185 162.762 112.324L158.829 85.735C158.757 85.0066 159.194 84.3509 159.922 84.2052C160.577 84.0595 161.233 84.4238 161.451 85.0794L169.17 104.53L223.716 121.139C230.561 123.324 233.183 129.735 230.853 135.709C228.595 141.682 221.822 144.523 215.996 141.901Z" fill="#FFBE9D"/>
<path d="M169.17 104.53C169.17 104.53 169.389 104.603 169.753 104.675C170.117 104.821 170.7 104.967 171.355 105.185C172.739 105.622 174.705 106.205 177.108 107.007C181.987 108.536 188.614 110.649 196.043 112.907C203.471 115.166 210.17 117.132 215.05 118.517C217.453 119.245 219.419 119.755 220.803 120.192C221.458 120.411 221.968 120.556 222.405 120.629C222.769 120.775 222.915 120.775 222.915 120.848C222.915 120.848 222.696 120.848 222.332 120.702C221.968 120.629 221.385 120.483 220.73 120.338C219.346 119.973 217.38 119.464 214.904 118.808C210.025 117.497 203.252 115.53 195.824 113.272C188.396 111.013 181.696 108.901 176.89 107.298C174.487 106.497 172.593 105.841 171.209 105.404C170.554 105.185 170.044 104.967 169.68 104.894C169.316 104.603 169.17 104.53 169.17 104.53Z" fill="#EB996E"/>
<path d="M229.906 138.185C229.906 138.185 229.76 138.185 229.469 138.185C229.178 138.185 228.741 138.185 228.231 138.112C227.721 138.04 227.066 137.967 226.337 137.675C225.609 137.457 224.808 137.02 224.007 136.583C223.206 136.073 222.259 135.563 221.313 134.98C220.366 134.397 219.346 133.742 218.327 133.013C216.215 131.629 213.884 130.026 211.19 129.006C208.496 127.987 205.655 127.622 203.179 127.55C200.631 127.55 198.373 127.987 196.552 128.497C194.732 129.006 193.348 129.662 192.329 130.172C191.819 130.391 191.527 130.609 191.236 130.755C191.018 130.901 190.872 130.973 190.872 130.973C190.872 130.973 191.018 130.901 191.236 130.682C191.455 130.536 191.819 130.318 192.256 130.026C193.202 129.516 194.586 128.788 196.407 128.205C198.227 127.622 200.558 127.185 203.107 127.185C205.655 127.185 208.496 127.55 211.263 128.569C214.03 129.589 216.361 131.192 218.472 132.649C219.492 133.377 220.512 134.033 221.458 134.689C222.405 135.271 223.279 135.854 224.153 136.291C224.954 136.801 225.755 137.165 226.483 137.457C227.211 137.748 227.867 137.821 228.377 137.894C229.25 138.112 229.906 138.112 229.906 138.185Z" fill="#333333"/>
<path d="M221.021 134.907C221.021 134.907 221.094 135.126 221.094 135.636C221.094 136.073 220.948 136.728 220.439 137.457C220.002 138.112 219.273 138.841 218.254 139.351C217.234 139.788 215.996 140.006 214.758 139.642C214.613 139.642 214.54 139.569 214.394 139.497L214.249 139.424L214.321 139.278C214.685 138.112 215.341 137.165 216.142 136.437C216.943 135.708 217.817 135.344 218.545 135.126C219.273 134.907 219.929 134.907 220.366 134.907C220.803 134.834 221.021 134.907 221.021 134.907C221.021 134.98 220.074 134.834 218.618 135.271C217.89 135.49 217.089 135.927 216.36 136.583C215.632 137.238 215.05 138.185 214.685 139.278L214.54 139.059C214.613 139.059 214.758 139.132 214.831 139.132C215.923 139.497 217.161 139.351 218.035 138.914C218.982 138.477 219.638 137.821 220.147 137.238C220.584 136.583 220.803 136 220.876 135.563C221.021 135.199 221.021 134.907 221.021 134.907Z" fill="#333333"/>
<path d="M221.021 134.907C221.094 134.98 220.293 135.708 219.201 136.51C218.108 137.311 217.162 137.894 217.162 137.748C217.089 137.675 217.89 136.947 218.982 136.145C220.002 135.417 220.948 134.834 221.021 134.907Z" fill="#333333"/>
<path d="M213.812 130.172C213.812 130.172 213.812 130.463 213.739 130.901C213.593 131.338 213.302 131.993 212.719 132.503C212.137 133.086 211.263 133.596 210.17 133.814C209.078 134.033 207.84 133.887 206.748 133.305C206.602 133.232 206.529 133.159 206.456 133.086L206.311 133.013L206.384 132.867C206.966 131.775 207.84 131.046 208.787 130.536C209.734 130.026 210.607 129.808 211.408 129.808C212.21 129.808 212.792 129.881 213.229 130.026C213.666 130.026 213.812 130.172 213.812 130.172C213.812 130.245 212.865 129.881 211.408 129.954C210.68 130.026 209.806 130.245 208.932 130.755C208.059 131.265 207.258 131.993 206.675 133.013L206.602 132.795C206.675 132.867 206.821 132.94 206.893 132.94C207.913 133.523 209.078 133.669 210.098 133.45C211.117 133.232 211.918 132.795 212.501 132.285C213.083 131.775 213.448 131.192 213.593 130.828C213.739 130.391 213.812 130.172 213.812 130.172Z" fill="#333333"/>
<path d="M213.812 130.172C213.885 130.245 212.865 130.755 211.627 131.265C210.389 131.775 209.369 132.139 209.297 131.993C209.224 131.921 210.243 131.411 211.481 130.901C212.792 130.391 213.812 130.099 213.812 130.172Z" fill="#333333"/>
<path d="M226.337 137.457C226.337 137.457 226.119 137.384 225.755 137.093C225.391 136.801 224.954 136.291 224.735 135.49C224.517 134.689 224.371 133.742 224.59 132.649C224.808 131.556 225.463 130.463 226.483 129.735C226.556 129.662 226.701 129.589 226.774 129.516L226.92 129.444L226.993 129.589C227.721 130.609 228.085 131.702 228.158 132.722C228.231 133.742 228.012 134.689 227.721 135.417C227.43 136.146 227.066 136.656 226.774 137.02C226.556 137.311 226.337 137.457 226.337 137.457C226.264 137.384 226.993 136.728 227.503 135.344C227.721 134.616 227.939 133.742 227.794 132.795C227.721 131.848 227.357 130.755 226.701 129.808L226.92 129.881C226.847 129.954 226.701 130.026 226.629 130.099C225.682 130.755 225.099 131.775 224.808 132.795C224.59 133.814 224.662 134.761 224.881 135.49C225.099 136.218 225.463 136.728 225.755 137.093C226.119 137.311 226.337 137.457 226.337 137.457Z" fill="#333333"/>
<path d="M226.337 137.457C226.264 137.457 226.192 136.364 226.192 135.053C226.264 133.742 226.337 132.649 226.483 132.649C226.556 132.649 226.629 133.742 226.629 135.053C226.556 136.364 226.41 137.457 226.337 137.457Z" fill="#333333"/>
<path d="M208.787 128.278C208.787 128.278 208.568 128.278 208.131 128.205C207.694 128.132 207.112 127.841 206.602 127.331C206.092 126.748 205.583 126.02 205.291 125.073C205.073 124.126 205.146 122.887 205.728 121.867C205.801 121.795 205.874 121.649 205.874 121.576L205.947 121.43L206.092 121.503C207.112 122.013 207.84 122.815 208.277 123.689C208.787 124.49 208.932 125.364 209.005 126.093C209.078 126.821 208.932 127.404 208.86 127.768C208.932 128.06 208.86 128.278 208.787 128.278C208.714 128.278 209.005 127.404 208.86 126.093C208.787 125.437 208.568 124.636 208.059 123.834C207.622 123.033 206.893 122.305 205.947 121.867L206.165 121.795C206.092 121.868 206.092 121.94 206.02 122.086C205.51 123.033 205.437 124.126 205.583 125C205.801 125.874 206.238 126.675 206.748 127.185C207.185 127.695 207.767 127.987 208.131 128.132C208.568 128.205 208.86 128.205 208.787 128.278Z" fill="#333333"/>
<path d="M208.787 128.278C208.714 128.351 208.204 127.477 207.694 126.311C207.185 125.218 206.893 124.271 206.966 124.199C207.039 124.126 207.549 125 208.059 126.165C208.568 127.258 208.932 128.205 208.787 128.278Z" fill="#333333"/>
<path d="M203.034 127.405C203.034 127.405 203.179 127.623 203.252 127.988C203.325 128.425 203.398 129.007 203.179 129.736C202.961 130.464 202.524 131.266 201.796 131.994C201.067 132.65 199.975 133.16 198.81 133.16C198.664 133.16 198.591 133.16 198.446 133.16H198.3V133.014C198.3 131.921 198.591 130.829 199.101 130.027C199.611 129.226 200.266 128.57 200.849 128.206C201.431 127.842 202.014 127.623 202.378 127.55C202.815 127.405 203.034 127.405 203.034 127.405C203.034 127.478 202.16 127.623 201.067 128.425C200.485 128.789 199.902 129.372 199.465 130.173C199.028 130.974 198.737 131.921 198.737 133.014L198.591 132.796C198.664 132.796 198.81 132.796 198.883 132.796C199.975 132.796 200.922 132.358 201.65 131.703C202.305 131.12 202.742 130.319 203.034 129.663C203.252 129.007 203.252 128.425 203.179 127.988C203.106 127.623 203.034 127.405 203.034 127.405Z" fill="#333333"/>
<path d="M203.034 127.404C203.106 127.477 202.597 128.278 201.868 129.298C201.14 130.245 200.485 131.046 200.412 130.973C200.339 130.901 200.849 130.099 201.577 129.079C202.305 128.06 202.961 127.331 203.034 127.404Z" fill="#333333"/>
<path d="M198.956 127.695C198.956 127.695 198.81 127.841 198.446 127.914C198.082 127.987 197.572 127.987 196.917 127.841C196.261 127.623 195.606 127.258 195.023 126.53C194.441 125.874 194.076 124.927 194.076 123.907C194.076 123.834 194.076 123.689 194.076 123.616V123.47H194.222C195.169 123.47 196.116 123.834 196.771 124.272C197.499 124.709 197.936 125.291 198.3 125.874C198.592 126.384 198.737 126.894 198.81 127.258C198.956 127.477 198.956 127.695 198.956 127.695C198.883 127.695 198.81 126.967 198.155 125.947C197.863 125.437 197.354 124.927 196.698 124.49C196.043 124.053 195.169 123.762 194.295 123.762L194.513 123.616C194.513 123.689 194.513 123.762 194.513 123.907C194.513 124.854 194.805 125.728 195.314 126.311C195.824 126.894 196.48 127.331 197.062 127.55C198.155 127.987 198.956 127.55 198.956 127.695Z" fill="#333333"/>
<path d="M198.956 127.695C198.883 127.768 198.155 127.331 197.354 126.603C196.552 125.947 195.897 125.291 195.97 125.219C196.043 125.146 196.771 125.583 197.572 126.311C198.373 126.967 199.029 127.55 198.956 127.695Z" fill="#333333"/>
<path d="M217.38 132.139C217.38 132.139 217.162 132.066 216.797 131.775C216.433 131.483 215.996 130.973 215.778 130.172C215.559 129.371 215.414 128.424 215.632 127.331C215.851 126.238 216.506 125.146 217.526 124.417C217.599 124.344 217.744 124.271 217.817 124.199L217.963 124.126L218.035 124.271C218.764 125.291 219.128 126.384 219.201 127.404C219.273 128.424 219.055 129.371 218.764 130.099C218.472 130.828 218.108 131.338 217.817 131.702C217.599 131.993 217.38 132.139 217.38 132.139C217.307 132.066 218.035 131.411 218.545 130.026C218.764 129.298 218.982 128.424 218.837 127.477C218.764 126.53 218.4 125.437 217.744 124.49L217.963 124.563C217.89 124.636 217.744 124.709 217.671 124.781C216.725 125.437 216.142 126.457 215.851 127.477C215.632 128.497 215.705 129.444 215.924 130.172C216.142 130.901 216.506 131.411 216.797 131.775C217.162 131.92 217.38 132.066 217.38 132.139Z" fill="#333333"/>
<path d="M217.38 132.139C217.307 132.139 217.234 131.046 217.234 129.735C217.307 128.424 217.38 127.331 217.526 127.331C217.598 127.331 217.671 128.424 217.671 129.735C217.598 131.046 217.453 132.139 217.38 132.139Z" fill="#333333"/>
<path d="M22.1386 241.556C22.1386 241.556 22.2114 241.411 22.2842 241.265C22.357 241.046 22.5027 240.755 22.7212 240.318C23.0853 239.517 23.5951 238.278 23.9592 236.603C24.8331 233.325 25.1244 228.298 23.8864 222.397C23.3038 219.411 22.357 216.205 21.2647 212.854C20.1723 209.43 18.8615 205.861 17.7691 202C16.7496 198.139 15.8757 193.914 16.0213 189.47C16.167 185.027 17.4778 180.656 18.9343 176.212C20.3908 171.841 21.8473 167.47 22.2842 163.172C22.794 158.874 21.8473 154.576 19.881 151.152C17.9876 147.656 15.5844 144.596 13.7638 141.536C11.9432 138.404 10.778 135.272 10.1226 132.285C8.73893 126.311 9.2487 121.285 9.90412 117.934C10.6324 114.583 11.4334 112.834 11.4334 112.834C11.4334 112.834 11.4334 112.98 11.3606 113.199C11.2878 113.417 11.215 113.781 11.0693 114.146C10.778 115.02 10.4867 116.258 10.1226 117.934C9.53999 121.285 9.10305 126.238 10.4867 132.212C11.215 135.126 12.3801 138.331 14.2007 141.391C16.0213 144.45 18.4245 147.437 20.318 151.007C22.357 154.503 23.3038 158.874 22.794 163.318C22.357 167.689 20.8277 172.06 19.4441 176.431C17.9876 180.801 16.6768 185.172 16.5311 189.543C16.3855 193.914 17.1865 198.066 18.2061 201.927C19.2256 205.788 20.5364 209.431 21.6288 212.782C22.7212 216.205 23.6679 219.411 24.2505 222.397C25.4885 228.371 25.1244 233.47 24.1777 236.748C23.7407 238.424 23.2309 239.589 22.794 240.464C22.5755 240.828 22.4299 241.119 22.2842 241.338C22.2114 241.411 22.1386 241.556 22.1386 241.556Z" fill="#333333"/>
<path d="M16.3126 144.523C16.3126 144.523 12.6714 132.868 19.2256 126.02C19.444 125.801 19.881 125.874 19.9538 126.238C20.2451 128.132 20.682 134.033 16.3126 144.523Z" fill="#E8505B"/>
<path d="M18.4975 129.881C18.5703 129.881 18.4246 130.682 18.279 132.066C18.0605 133.523 17.7692 135.272 17.4779 137.238C17.1866 139.133 16.8953 140.881 16.6768 142.411C16.4584 143.722 16.3856 144.523 16.3127 144.523C16.2399 144.523 16.2399 143.722 16.3856 142.338C16.5312 141.027 16.7497 139.205 17.041 137.166C17.4051 135.126 17.6964 133.305 17.9877 132.066C18.2062 130.682 18.4246 129.881 18.4975 129.881Z" fill="#333333"/>
<path d="M20.5371 171.987C20.5371 171.987 22.7947 159.967 31.752 156.98C32.0433 156.907 32.4074 157.199 32.2618 157.49C31.6792 159.384 29.3488 164.775 20.5371 171.987Z" fill="#E8505B"/>
<path d="M29.3482 160.113C29.421 160.185 28.9112 160.841 28.1102 161.934C27.2363 163.099 26.1439 164.556 24.9787 166.086C23.8135 167.616 22.7212 169.073 21.8473 170.238C21.0462 171.331 20.5364 171.987 20.5364 171.914C20.4636 171.914 20.9006 171.185 21.6288 170.02C22.3571 168.927 23.4494 167.397 24.6874 165.795C25.9254 164.192 27.0906 162.735 27.9645 161.715C28.6928 160.695 29.2753 160.113 29.3482 160.113Z" fill="#333333"/>
<path d="M18.1332 202.146C18.1332 202.146 16.7496 189.98 24.4689 184.517C24.7602 184.298 25.1243 184.517 25.1243 184.881C25.1243 186.848 24.4689 192.676 18.1332 202.146Z" fill="#E8505B"/>
<path d="M23.0852 188.232C23.1581 188.232 22.8668 189.033 22.4298 190.272C21.92 191.656 21.3375 193.331 20.6092 195.152C19.9538 196.974 19.3712 198.649 18.8614 200.033C18.4245 201.272 18.1332 202.073 18.0604 202.073C17.9875 202.073 18.1332 201.272 18.5701 199.96C18.9343 198.649 19.5168 196.901 20.2451 195.007C20.9733 193.113 21.6287 191.364 22.1385 190.126C22.6483 188.96 23.0124 188.232 23.0852 188.232Z" fill="#333333"/>
<path d="M24.9057 232.45C24.9057 232.45 23.959 220.285 31.8968 215.113C32.1881 214.967 32.5523 215.113 32.5523 215.477C32.4066 217.444 31.5327 223.272 24.9057 232.45Z" fill="#E8505B"/>
<path d="M30.2948 218.755C30.3676 218.755 30.0763 219.556 29.5665 220.795C28.9839 222.179 28.3285 223.781 27.6003 225.603C26.872 227.424 26.2166 229.027 25.634 230.411C25.1243 231.649 24.833 232.45 24.7601 232.378C24.6873 232.378 24.9058 231.576 25.3427 230.265C25.7797 229.027 26.4351 227.278 27.1633 225.384C27.9644 223.49 28.6926 221.815 29.2752 220.576C29.8578 219.411 30.2948 218.682 30.2948 218.755Z" fill="#333333"/>
<path d="M11.0693 134.252C11.0693 134.252 0.218472 128.57 0 119.172C0 118.808 0.364121 118.662 0.655417 118.808C2.25755 119.901 6.69982 123.762 11.0693 134.252Z" fill="#E8505B"/>
<path d="M2.25761 122.378C2.33044 122.378 2.84021 122.96 3.64127 124.053C4.51516 125.292 5.5347 126.676 6.69989 128.278C7.86507 129.881 8.88461 131.265 9.7585 132.504C10.5596 133.596 11.0693 134.252 10.9965 134.252C10.9237 134.325 10.3411 133.669 9.54003 132.649C8.66614 131.629 7.57378 130.172 6.33577 128.497C5.17058 126.821 4.07822 125.292 3.4228 124.199C2.62173 123.179 2.18479 122.451 2.25761 122.378Z" fill="#333333"/>
<path d="M22.6482 159.311C22.6482 159.311 11.5061 154.358 10.7051 144.887C10.7051 144.523 10.9964 144.305 11.2877 144.523C13.0355 145.543 17.6962 149.04 22.6482 159.311Z" fill="#E8505B"/>
<path d="M13.1812 148.02C13.254 147.947 13.7638 148.603 14.6377 149.623C15.5844 150.788 16.6768 152.172 17.9148 153.629C19.1528 155.159 20.2451 156.47 21.2647 157.636C22.1386 158.656 22.6483 159.311 22.5755 159.311C22.5027 159.384 21.9201 158.801 20.9734 157.854C20.0267 156.907 18.8615 155.523 17.5506 153.921C16.2398 152.318 15.1474 150.861 14.3464 149.768C13.5453 148.748 13.1084 148.02 13.1812 148.02Z" fill="#333333"/>
<path d="M16.2398 187.212C16.2398 187.212 8.5933 177.669 12.1617 168.927C12.3073 168.636 12.6714 168.563 12.8899 168.854C13.9095 170.603 16.4583 175.848 16.2398 187.212Z" fill="#E8505B"/>
<path d="M12.9628 172.861C13.0356 172.861 13.2541 173.662 13.5454 174.974C13.8367 176.431 14.2736 178.179 14.6377 180.073C15.0747 181.967 15.4388 183.715 15.7301 185.172C16.0214 186.484 16.2399 187.285 16.1671 187.285C16.0942 187.285 15.8029 186.556 15.4388 185.245C15.0747 183.934 14.6377 182.186 14.2008 180.146C13.7639 178.179 13.3997 176.358 13.2541 175.047C12.9628 173.662 12.89 172.861 12.9628 172.861Z" fill="#333333"/>
<path d="M23.8136 220.139C23.8136 220.139 12.7443 214.967 12.0889 205.497C12.0889 205.133 12.453 204.914 12.6715 205.133C14.4192 206.152 19.0072 209.795 23.8136 220.139Z" fill="#E8505B"/>
<path d="M14.565 208.629C14.6378 208.556 15.1476 209.212 16.0214 210.232C16.9682 211.398 18.0605 212.782 19.2257 214.311C20.4637 215.841 21.5561 217.225 22.5028 218.391C23.3039 219.411 23.8864 220.066 23.8136 220.139C23.7408 220.212 23.1582 219.629 22.2843 218.609C21.4104 217.59 20.1724 216.205 18.9344 214.603C17.6964 213 16.604 211.543 15.803 210.45C14.9291 209.431 14.4921 208.702 14.565 208.629Z" fill="#333333"/>
<path d="M45.8793 172.06C45.8793 172.06 45.8793 172.133 45.8793 172.351C45.8793 172.57 45.8793 172.788 45.8793 173.153C45.8793 173.881 45.8064 174.901 45.7336 176.139C45.588 178.762 45.3695 182.404 45.151 186.702C44.35 191.146 42.0924 196.027 39.1066 200.762C36.9219 204.258 34.5915 207.464 32.5524 210.451C30.5134 213.437 28.8384 216.133 27.6732 218.537C26.508 220.941 25.7798 223.053 25.3428 224.51C25.1244 225.239 24.9787 225.821 24.9059 226.186C24.8331 226.55 24.7603 226.768 24.7603 226.768C24.7603 226.768 24.7603 226.55 24.8331 226.186C24.9059 225.821 24.9787 225.239 25.1972 224.437C25.5613 222.98 26.2167 220.868 27.3819 218.391C28.5471 215.914 30.2221 213.146 32.2611 210.159C34.2274 207.172 36.5578 203.967 38.7425 200.47C41.7283 195.735 43.9858 190.927 44.7869 186.557C45.0782 182.186 45.3695 178.616 45.5151 175.994C45.588 174.755 45.6608 173.735 45.7336 173.007C45.7336 172.715 45.8064 172.424 45.8064 172.206C45.8793 172.206 45.8793 172.06 45.8793 172.06Z" fill="#333333"/>
<path d="M39.3249 199.888C39.3249 199.888 43.9857 188.596 38.0869 181.239C37.8684 180.947 37.4315 181.02 37.3587 181.384C36.8489 183.206 35.9022 189.033 39.3249 199.888Z" fill="#E8505B"/>
<path d="M38.4511 185.1C38.5239 185.1 38.6696 185.901 38.8152 187.212C38.9609 188.523 39.1793 190.345 39.325 192.384C39.4706 194.424 39.5435 196.245 39.5435 197.629C39.5435 198.941 39.4706 199.815 39.3978 199.815C39.325 199.815 39.2522 199.013 39.1793 197.629C39.1065 196.1 38.9609 194.351 38.8152 192.457C38.6696 190.49 38.5239 188.742 38.4511 187.285C38.3783 185.974 38.3783 185.1 38.4511 185.1Z" fill="#333333"/>
<g opacity="0.3">
<g opacity="0.3">
<g opacity="0.3">
<g opacity="0.3">
<path opacity="0.3" d="M39.3249 199.888C39.3249 199.888 43.9857 188.596 38.0869 181.239C37.8684 180.947 37.4315 181.02 37.3587 181.384C36.8489 183.206 35.9022 189.033 39.3249 199.888Z" fill="#333333"/>
</g>
</g>
</g>
</g>
<path d="M24.7602 227.06C24.7602 227.06 28.547 215.404 22.0657 208.557C21.8472 208.338 21.4103 208.411 21.3374 208.775C20.9733 210.669 20.5364 216.497 24.7602 227.06Z" fill="#E8505B"/>
<path d="M22.721 212.417C22.7939 212.417 23.0123 213.219 23.2308 214.53C23.5221 215.841 23.8134 217.663 24.1775 219.702C24.4688 221.742 24.6873 223.563 24.8329 224.874C24.9058 226.186 24.9058 227.06 24.9058 227.06C24.8329 227.06 24.7601 226.259 24.5416 224.947C24.3232 223.49 24.0319 221.742 23.7406 219.775C23.4493 217.881 23.158 216.133 22.9395 214.603C22.7939 213.292 22.6482 212.49 22.721 212.417Z" fill="#333333"/>
<g opacity="0.3">
<g opacity="0.3">
<g opacity="0.3">
<g opacity="0.3">
<path opacity="0.3" d="M24.7602 227.06C24.7602 227.06 28.547 215.404 22.0657 208.557C21.8472 208.338 21.4103 208.411 21.3374 208.775C20.9733 210.669 20.5364 216.497 24.7602 227.06Z" fill="#333333"/>
</g>
</g>
</g>
</g>
<path d="M45.2966 186.047C45.2966 186.047 55.2735 179.053 54.3268 169.656C54.3268 169.292 53.8899 169.146 53.6714 169.364C52.1421 170.749 48.2096 175.119 45.2966 186.047Z" fill="#E8505B"/>
<g opacity="0.3">
<g opacity="0.3">
<g opacity="0.3">
<g opacity="0.3">
<path opacity="0.3" d="M45.2966 186.047C45.2966 186.047 55.2735 179.053 54.3268 169.656C54.3268 169.292 53.8899 169.146 53.6714 169.364C52.1421 170.749 48.2096 175.119 45.2966 186.047Z" fill="#333333"/>
</g>
</g>
</g>
</g>
<path d="M52.4334 173.152C52.5063 173.152 52.1421 173.954 51.6324 175.119C51.0498 176.358 50.2487 177.96 49.2292 179.781C48.2825 181.603 47.3357 183.205 46.6075 184.298C45.8793 185.391 45.3695 186.119 45.3695 186.046C45.2967 185.974 45.7336 185.318 46.389 184.152C47.1173 182.841 47.9183 181.311 48.865 179.563C49.8118 177.815 50.6128 176.285 51.3411 174.974C51.9965 173.881 52.3606 173.152 52.4334 173.152Z" fill="#333333"/>
<path d="M28.8384 215.55C28.8384 215.55 40.9272 213.656 44.1314 204.768C44.2771 204.477 43.9858 204.113 43.6217 204.259C41.7283 204.768 36.2664 206.954 28.8384 215.55Z" fill="#E8505B"/>
<g opacity="0.3">
<g opacity="0.3">
<g opacity="0.3">
<g opacity="0.3">
<path opacity="0.3" d="M28.8384 215.55C28.8384 215.55 40.9272 213.656 44.1314 204.768C44.2771 204.477 43.9858 204.113 43.6217 204.259C41.7283 204.768 36.2664 206.954 28.8384 215.55Z" fill="#333333"/>
</g>
</g>
</g>
</g>
<path d="M40.9271 207.1C40.9999 207.172 40.3445 207.682 39.325 208.557C38.3054 209.358 36.7761 210.523 35.174 211.689C33.4991 212.855 31.9697 213.874 30.8046 214.603C29.6394 215.331 28.9111 215.696 28.9111 215.623C28.9111 215.55 29.5665 215.113 30.6589 214.312C31.8969 213.437 33.3534 212.417 34.8827 211.325C36.4848 210.232 37.9413 209.139 39.1065 208.338C40.1989 207.537 40.9271 207.1 40.9271 207.1Z" fill="#333333"/>
<path d="M14.4919 237.768L17.9875 260.497L31.8241 260.424L36.4848 237.768H14.4919Z" fill="#4F4F4F"/>
<path d="M34.4458 246.51C34.4458 246.51 34.4458 246.51 34.3001 246.583C34.2273 246.656 34.0816 246.729 33.936 246.801C33.5719 246.947 33.0621 247.166 32.4067 247.239C31.6784 247.311 30.8045 247.311 29.8578 247.02C28.9111 246.729 27.8916 246.073 27.0905 245.053C26.7264 244.543 26.5079 243.888 26.4351 243.159C26.3623 242.431 26.6536 241.629 27.3818 241.192C28.1101 240.755 28.9839 240.901 29.7122 241.411C30.4404 241.848 30.8045 242.649 31.023 243.523C31.2415 244.325 31.2415 245.199 31.1687 246.073C31.0958 246.947 30.9502 247.821 30.5861 248.695C30.222 249.57 29.7122 250.371 28.9839 250.954C28.2557 251.609 27.309 252.046 26.2894 252.046C25.2699 252.119 24.3232 251.755 23.5221 251.245C22.7211 250.735 22.0656 250.08 21.4831 249.351C20.9005 248.623 20.4635 247.748 20.4635 246.874C20.3907 246 20.7548 245.053 21.4102 244.47C22.1385 243.888 23.158 243.96 23.8862 244.325C24.6145 244.689 25.1971 245.417 25.2699 246.146C25.5612 247.676 24.6145 249.133 23.5221 249.715C22.3569 250.371 21.1918 250.371 20.1722 250.225C19.1527 250.007 18.4244 249.642 17.769 249.278C17.1864 248.914 16.7495 248.623 16.4582 248.404C16.1669 248.186 16.0212 248.04 16.0212 248.04C16.0212 248.04 16.1669 248.113 16.4582 248.331C16.7495 248.55 17.1864 248.841 17.8418 249.133C18.4244 249.424 19.2255 249.788 20.1722 250.007C21.1189 250.152 22.2841 250.152 23.3037 249.497C24.3232 248.914 25.1243 247.603 24.9058 246.219C24.7601 245.563 24.3232 244.907 23.6678 244.616C23.0124 244.252 22.2113 244.252 21.5559 244.762C20.9733 245.272 20.682 246.073 20.7548 246.874C20.8276 247.676 21.1918 248.477 21.7015 249.133C22.2113 249.788 22.9395 250.444 23.6678 250.881C24.396 251.318 25.3427 251.682 26.2166 251.609C27.0905 251.537 27.9644 251.172 28.6198 250.59C29.2752 250.007 29.785 249.278 30.1491 248.477C30.4404 247.676 30.6589 246.801 30.6589 246C30.7317 245.126 30.6589 244.325 30.5132 243.523C30.3676 242.722 29.9307 242.066 29.3481 241.629C28.7655 241.192 27.9644 241.119 27.3818 241.411C26.7992 241.775 26.5079 242.431 26.5807 243.086C26.5807 243.742 26.7992 244.325 27.1633 244.835C27.8188 245.854 28.8383 246.437 29.7122 246.801C30.6589 247.093 31.46 247.166 32.1882 247.093C33.7903 246.947 34.4458 246.437 34.4458 246.51Z" fill="#333333"/>
</svg>
