<svg width="461" height="428" viewBox="0 0 461 428" fill="none" xmlns="http://www.w3.org/2000/svg">
<path d="M361.313 423.253C337.47 406.64 332.075 375.679 332.938 347.847C333.046 343.208 332.615 338.353 334.772 334.254C336.93 330.155 342.109 327.35 346.316 329.399C349.769 331.018 351.279 335.009 353.221 338.353C355.81 342.776 359.586 346.444 364.118 348.71C367.031 350.22 370.699 351.191 373.612 349.573C377.604 347.415 378.035 341.805 378.035 337.167C377.927 328.536 377.927 319.906 377.927 311.384C377.927 306.745 377.927 302.106 379.33 297.683C380.732 293.26 383.969 289.269 388.284 287.974C392.708 286.788 398.102 289.269 399.073 293.8C399.505 295.634 399.073 297.683 399.181 299.517C399.289 301.459 400.152 303.509 401.986 304.048C403.82 304.588 405.654 303.293 407.057 301.891C411.804 297.252 415.04 291.211 418.061 285.277C421.082 279.344 423.995 273.195 428.31 268.125C432.626 263.055 438.667 259.063 445.249 258.632C451.83 258.308 458.95 262.299 460.568 268.88C462.295 275.353 458.411 282.041 454.311 287.219C448.161 294.986 440.933 301.999 432.842 307.716C431.439 308.795 429.821 309.874 429.281 311.6C428.31 314.728 431.223 317.749 434.244 318.72C437.696 319.906 441.472 319.475 445.033 319.906C448.593 320.338 452.585 321.956 453.879 325.3C455.821 330.047 451.83 335.009 447.946 338.245C440.178 344.718 431.331 349.896 421.837 353.348C418.493 354.643 414.824 355.722 412.127 358.095C409.43 360.468 407.704 364.676 409.43 367.912C411.048 371.148 415.364 372.227 418.924 371.58C422.484 370.932 425.613 368.991 429.066 367.696C435.431 365.323 443.63 365.754 447.622 371.256C450.319 374.816 450.535 379.886 449.132 384.201C447.73 388.517 445.033 392.184 442.12 395.637C431.978 407.611 418.924 417.212 404.252 422.282C389.579 427.245 375.877 428.539 361.313 423.253Z" fill="#CBF7E3"/>
<path d="M368.433 405.777C372.533 391.753 378.251 376.758 384.832 361.223C386.45 357.34 388.176 353.564 389.687 349.788C391.305 346.013 392.923 342.345 394.757 338.785C398.318 331.665 402.31 325.084 406.193 319.043C410.185 312.894 414.177 307.284 417.845 301.998C421.621 296.712 425.181 291.858 428.742 287.651C435.647 279.128 442.012 272.871 446.651 268.772C448.917 266.722 450.751 265.212 452.045 264.133C452.693 263.594 453.124 263.27 453.448 262.947C453.771 262.731 453.987 262.515 453.987 262.623C453.987 262.623 453.879 262.731 453.556 263.054C453.232 263.378 452.801 263.81 452.153 264.241C450.966 265.32 449.132 266.938 446.867 268.988C442.336 273.195 436.078 279.452 429.281 287.974C425.829 292.289 422.269 297.144 418.493 302.322C414.716 307.608 410.833 313.218 406.841 319.367C402.957 325.516 398.965 331.988 395.405 339.108C393.679 342.668 392.06 346.336 390.442 350.112C388.824 353.888 387.205 357.663 385.587 361.547C379.006 376.974 373.288 391.969 369.188 405.993" fill="#43D190"/>
<path d="M395.081 338.785C394.973 338.785 394.865 338.138 394.65 336.843C394.434 335.549 394.11 333.715 393.787 331.449C393.139 326.81 392.492 320.446 391.737 313.434C390.981 306.422 390.226 300.057 389.471 295.526C389.147 293.26 388.824 291.426 388.608 290.132C388.392 288.837 388.284 288.19 388.392 288.082C388.5 288.082 388.608 288.73 388.932 290.024C389.255 291.319 389.687 293.153 390.118 295.418C390.981 299.949 391.845 306.314 392.6 313.434C393.247 320.338 393.894 326.703 394.434 331.449C394.65 333.607 394.865 335.441 394.973 336.951C395.081 338.03 395.081 338.785 395.081 338.785Z" fill="#43D190"/>
<path d="M454.419 327.673C454.419 327.781 453.556 327.781 452.045 327.997C450.535 328.105 448.269 328.321 445.572 328.644C440.178 329.184 432.626 330.262 424.426 331.881C416.227 333.391 408.891 335.117 403.604 336.519C400.907 337.167 398.857 337.814 397.347 338.245C395.836 338.677 395.081 338.893 395.081 338.785C395.081 338.677 395.836 338.461 397.347 337.922C398.749 337.382 400.907 336.735 403.496 335.98C408.783 334.47 416.119 332.636 424.318 331.018C432.518 329.507 440.07 328.536 445.572 328.105C448.269 327.889 450.535 327.781 452.045 327.781C453.556 327.566 454.419 327.566 454.419 327.673Z" fill="#43D190"/>
<path d="M369.189 404.698C369.189 404.698 368.973 404.483 368.757 403.943C368.433 403.404 368.11 402.649 367.786 401.786C366.923 399.952 365.736 397.147 364.334 393.803C361.421 387.006 357.86 377.513 353.869 366.941C349.985 356.369 346.424 346.876 343.727 339.972C342.433 336.627 341.246 333.93 340.491 331.881C340.167 331.018 339.843 330.263 339.627 329.723C339.412 329.184 339.304 328.968 339.412 328.968C339.412 328.968 339.627 329.184 339.843 329.723C340.167 330.263 340.491 331.018 340.814 331.881C341.677 333.715 342.864 336.519 344.267 339.864C347.18 346.66 350.74 356.153 354.732 366.725C358.616 377.297 362.176 386.791 364.873 393.695C366.168 397.039 367.354 399.736 368.11 401.786C368.433 402.649 368.757 403.404 368.973 403.943C369.081 404.375 369.189 404.698 369.189 404.698Z" fill="#43D190"/>
<path d="M448.054 379.239C448.054 379.239 447.838 379.347 447.298 379.563C446.651 379.778 445.896 379.994 445.033 380.318C442.875 380.965 440.07 381.936 436.618 383.015C429.497 385.28 419.679 388.624 408.783 392.292C397.994 395.96 388.069 399.196 380.948 401.354C377.388 402.433 374.475 403.296 372.425 403.835C371.454 404.051 370.699 404.267 370.052 404.482C369.512 404.59 369.188 404.698 369.188 404.59C369.188 404.59 369.404 404.482 369.944 404.267C370.591 404.051 371.346 403.835 372.209 403.512C374.367 402.864 377.172 401.893 380.624 400.815C387.745 398.549 397.563 395.205 408.459 391.537C419.248 387.869 429.174 384.633 436.294 382.475C439.854 381.397 442.767 380.534 444.817 379.994C445.788 379.778 446.543 379.563 447.191 379.347C447.73 379.347 448.054 379.239 448.054 379.239Z" fill="#43D190"/>
<path d="M84.4607 74.4016L84.7103 76.7642C84.7103 76.7642 96.6778 70.86 104.334 74.1838C104.576 74.6017 105.133 74.8925 105.678 74.9679L108.713 75.1104C109.359 75.0717 109.986 74.7099 110.163 74.0509C110.163 74.0509 117.28 70.1663 124.949 73.7056L127.826 74.8301L120.466 45.7676L84.8434 41.0927L84.4607 74.4016Z" fill="#CBF7E3"/>
<path d="M82.3288 71.2872L82.688 75.4804C82.688 75.4804 94.4188 67.4289 107.147 74.2315L102.825 54.3892C102.825 54.3892 83.0465 67.0294 82.3288 71.2872Z" fill="#CBF7E3"/>
<path d="M78.2612 41.2707C78.2612 41.2707 92.2368 29.1942 104.157 44.1505L107.147 74.2314C107.147 74.2314 92.9807 61.4629 81.088 72.2259L78.2612 41.2707Z" fill="#E9FAF7"/>
<path d="M107.147 74.2315C107.147 74.2315 119.264 65.4004 128.927 73.3592L124.698 46.0544L104.437 45.2146L107.147 74.2315Z" fill="#CBF7E3"/>
<path d="M104.163 44.2584C104.163 44.2584 107.89 34.3087 117.204 34.6155L123.172 35.0145L127.953 62.5025C127.953 62.5025 113.425 61.7515 107.04 74.238L104.163 44.2584Z" fill="#E9FAF7"/>
<path d="M107.147 74.2316C107.147 74.2316 107.014 73.8073 106.969 73.0535C106.917 72.192 106.745 71.1216 106.56 69.8358C106.285 67.0425 105.843 63.2864 105.497 59.3085C105.037 55.2294 104.71 51.5745 104.434 48.7812C104.249 47.4954 104.185 46.4186 104.133 45.5571C104.088 44.8033 104.062 44.3726 104.062 44.3726C104.062 44.3726 104.196 44.7968 104.348 45.5442C104.501 46.2915 104.673 47.3619 104.865 48.7554C105.242 51.4346 105.683 55.1907 106.143 59.2698C106.604 63.3489 106.937 67.1115 107.105 69.9113C107.189 71.3112 107.253 72.388 107.298 73.1418C107.122 73.8008 107.147 74.2316 107.147 74.2316Z" fill="#CBF7E3"/>
<path d="M120.326 39.832C120.333 39.9397 119.351 39.7824 117.843 39.8727C116.335 39.963 114.308 40.4086 112.206 41.3991C110.104 42.3896 108.566 43.7786 107.553 44.9199C106.541 46.0613 106.048 46.8473 106.048 46.8473C106.048 46.8473 106.143 46.6255 106.332 46.1818C106.528 45.8459 106.819 45.2881 107.325 44.7174C108.223 43.4749 109.869 42.0794 111.965 40.9813C114.067 39.9908 116.202 39.5387 117.716 39.5561C118.47 39.5109 119.122 39.5799 119.56 39.6618C120.105 39.7372 120.326 39.832 120.326 39.832Z" fill="#CBF7E3"/>
<path d="M121.267 42.9096C121.274 43.0173 120.291 42.86 118.784 42.9503C117.276 43.0406 115.249 43.4862 113.147 44.4767C111.045 45.4672 109.507 46.8562 108.494 47.9975C107.482 49.1389 106.988 49.925 106.988 49.925C106.988 49.925 107.083 49.7031 107.273 49.2595C107.469 48.9235 107.76 48.3658 108.266 47.7951C109.164 46.5525 110.81 45.1571 112.906 44.0589C115.008 43.0684 117.142 42.6163 118.657 42.6337C119.411 42.5886 120.063 42.6575 120.5 42.7394C121.045 42.8149 121.267 42.9096 121.267 42.9096Z" fill="#CBF7E3"/>
<path d="M121.689 46.3427C121.695 46.4504 120.713 46.2931 119.206 46.3834C117.698 46.4737 115.671 46.9193 113.569 47.9098C111.466 48.9003 109.928 50.2893 108.916 51.4307C107.904 52.572 107.41 53.3581 107.41 53.3581C107.41 53.3581 107.505 53.1362 107.695 52.6926C107.891 52.3566 108.182 51.7989 108.688 51.2282C109.586 49.9856 111.232 48.5902 113.328 47.492C115.43 46.5015 117.564 46.0494 119.079 46.0668C119.832 46.0217 120.485 46.0906 120.922 46.1725C121.467 46.248 121.683 46.2351 121.689 46.3427Z" fill="#CBF7E3"/>
<path d="M122.522 49.4267C122.529 49.5344 121.547 49.3771 120.039 49.4674C118.531 49.5577 116.504 50.0033 114.402 50.9938C112.3 51.9843 110.762 53.3733 109.749 54.5146C108.737 55.656 108.244 56.442 108.244 56.442C108.244 56.442 108.338 56.2202 108.528 55.7766C108.724 55.4406 109.015 54.8828 109.521 54.3122C110.419 53.0696 112.065 51.6742 114.161 50.576C116.263 49.5855 118.398 49.1334 119.912 49.1508C120.666 49.1057 121.318 49.1746 121.755 49.2565C122.3 49.3319 122.522 49.4267 122.522 49.4267Z" fill="#CBF7E3"/>
<path d="M123.476 52.7199C123.483 52.8276 122.5 52.6703 120.993 52.7606C119.485 52.8509 117.458 53.2965 115.356 54.287C113.254 55.2775 111.716 56.6665 110.703 57.8079C109.691 58.9492 109.197 59.7353 109.197 59.7353C109.197 59.7353 109.292 59.5134 109.482 59.0698C109.678 58.7338 109.969 58.1761 110.475 57.6054C111.373 56.3628 113.019 54.9674 115.115 53.8692C117.217 52.8787 119.351 52.4266 120.866 52.444C121.62 52.3989 122.272 52.4678 122.709 52.5497C123.254 52.6252 123.476 52.7199 123.476 52.7199Z" fill="#CBF7E3"/>
<path d="M124.671 56.4308C124.677 56.5385 123.695 56.3811 121.979 56.592C121.117 56.6436 120.154 56.8094 119.198 57.0828C118.134 57.3627 117.076 57.7502 115.917 58.2519C114.759 58.7536 113.714 59.3566 112.885 59.9466C112.055 60.5366 111.232 61.2343 110.726 61.805C109.606 62.9528 109.119 63.8465 109.012 63.853C109.012 63.853 109.106 63.6312 109.296 63.1875C109.391 62.9657 109.593 62.7374 109.796 62.5092C109.998 62.2809 110.194 61.9449 110.498 61.6025C110.998 60.9242 111.827 60.3341 112.65 59.6364C113.587 59.04 114.625 58.3293 115.784 57.8276C116.943 57.326 118.108 56.9319 119.172 56.6521C120.236 56.3722 121.205 56.3141 122.067 56.2625C122.498 56.2367 122.821 56.2174 123.15 56.3057C123.473 56.2864 123.803 56.3747 124.018 56.3618C124.341 56.3424 124.671 56.4308 124.671 56.4308Z" fill="#CBF7E3"/>
<path d="M124.959 59.4396C124.966 59.5473 123.876 59.3964 122.267 59.6009C121.405 59.6525 120.449 59.9259 119.493 60.1993C118.429 60.4792 117.378 60.9744 116.219 61.4761C115.066 62.0855 114.129 62.682 113.192 63.2785C112.37 63.9762 111.54 64.5662 111.034 65.1369C109.914 66.2847 109.427 67.1784 109.319 67.1849C109.319 67.1849 109.414 66.9631 109.604 66.5194C109.699 66.2976 109.901 66.0693 110.103 65.841C110.306 65.6128 110.502 65.2768 110.806 64.9344C111.306 64.2561 112.128 63.5583 112.951 62.8606C113.882 62.1565 114.819 61.56 115.971 60.9506C117.124 60.3412 118.289 59.9472 119.353 59.6673C120.417 59.3875 121.38 59.2217 122.241 59.1701C122.672 59.1443 122.995 59.125 123.318 59.1056C123.641 59.0863 123.971 59.1746 124.186 59.1617C124.738 59.3448 124.953 59.3319 124.959 59.4396Z" fill="#CBF7E3"/>
<path d="M102.375 66.7361C102.274 66.8502 101.684 66.021 100.213 64.9203C98.8562 63.9209 96.7326 62.7512 94.2234 62.3611C91.7142 61.9711 89.3579 62.3283 87.7683 62.8558C86.1786 63.3833 85.2352 63.8721 85.2352 63.8721C85.2352 63.8721 85.4377 63.6439 85.8556 63.4027C86.2734 63.1615 86.9003 62.7998 87.7489 62.5328C89.3321 61.8976 91.7897 61.4262 94.413 61.9175C97.0364 62.4088 99.1599 63.5785 100.523 64.6856C101.202 65.1853 101.665 65.6979 102.014 66.1093C102.255 66.5272 102.375 66.7361 102.375 66.7361Z" fill="#CBF7E3"/>
<path d="M101.928 62.8725C101.826 62.9867 101.236 62.1574 99.7653 61.0568C98.4085 60.0573 96.2849 58.8877 93.7757 58.4976C91.2665 58.1075 88.9101 58.4648 87.3205 58.9923C85.7309 59.5198 84.7874 60.0086 84.7874 60.0086C84.7874 60.0086 84.9899 59.7803 85.4078 59.5392C85.8257 59.298 86.4525 58.9362 87.3012 58.6693C88.8843 58.0341 91.3419 57.5627 93.9653 58.054C96.5886 58.5453 98.7122 59.7149 100.075 60.822C100.754 61.3218 101.217 61.8344 101.566 62.2458C101.807 62.6636 101.928 62.8725 101.928 62.8725Z" fill="#CBF7E3"/>
<path d="M101.48 59.0088C101.379 59.1229 100.789 58.2937 99.3178 57.193C97.9609 56.1936 95.8374 55.0239 93.3282 54.6338C90.819 54.2438 88.4626 54.6011 86.873 55.1285C85.2834 55.656 84.3399 56.1448 84.3399 56.1448C84.3399 56.1448 84.5424 55.9166 84.9603 55.6754C85.3782 55.4342 86.005 55.0725 86.8536 54.8055C88.4368 54.1703 90.8944 53.6989 93.5178 54.1902C96.1411 54.6815 98.2647 55.8512 99.628 56.9583C100.306 57.458 100.769 57.9706 101.118 58.382C101.359 58.7999 101.48 59.0088 101.48 59.0088Z" fill="#CBF7E3"/>
<path d="M101.033 55.145C100.931 55.2591 100.341 54.4299 98.8703 53.3292C97.5134 52.3298 95.3899 51.1601 92.8807 50.7701C90.3715 50.38 88.0151 50.7373 86.4255 51.2648C84.8359 51.7923 83.8924 52.2811 83.8924 52.2811C83.8924 52.2811 84.0949 52.0528 84.5128 51.8116C84.9307 51.5705 85.5575 51.2087 86.4061 50.9417C87.9893 50.3065 90.4469 49.8351 93.0702 50.3264C95.6936 50.8177 97.8172 51.9874 99.1804 53.0945C99.8589 53.5942 100.322 54.1069 100.671 54.5182C100.912 54.9361 101.033 55.145 101.033 55.145Z" fill="#CBF7E3"/>
<path d="M100.484 51.3952C100.382 51.5094 99.7924 50.6802 98.3214 49.5795C96.9646 48.58 94.841 47.4104 92.3318 47.0203C89.8226 46.6302 87.4663 46.9875 85.8767 47.515C84.287 48.0425 83.3436 48.5313 83.3436 48.5313C83.3436 48.5313 83.5461 48.303 83.964 48.0619C84.3818 47.8207 85.0087 47.4589 85.8573 47.192C87.4405 46.5568 89.8981 46.0854 92.5214 46.5767C95.1448 47.068 97.2683 48.2376 98.6316 49.3448C99.31 49.8445 99.773 50.3571 100.122 50.7685C100.357 51.0786 100.585 51.2811 100.484 51.3952Z" fill="#CBF7E3"/>
<path d="M100.036 47.5315C99.9347 47.6456 99.3446 46.8164 97.8737 45.7157C96.5169 44.7163 94.3933 43.5466 91.8841 43.1565C89.3749 42.7665 87.0185 43.1238 85.4289 43.6513C83.8393 44.1787 82.8958 44.6675 82.8958 44.6675C82.8958 44.6675 83.0983 44.4393 83.5162 44.1981C83.9341 43.9569 84.5609 43.5952 85.4095 43.3282C86.9927 42.693 89.4503 42.2216 92.0737 42.7129C94.697 43.2042 96.8206 44.3739 98.1839 45.481C98.8623 45.9807 99.3253 46.4933 99.6742 46.9047C99.9089 47.2149 100.03 47.4238 100.036 47.5315Z" fill="#CBF7E3"/>
<path d="M384.294 161.438L382.844 163.715C382.844 163.715 373.445 151.148 363.729 150.575C363.244 150.895 362.555 150.942 361.962 150.661L358.668 149.162C357.986 148.82 357.55 148.124 357.627 147.257C357.627 147.257 352.267 139.465 342.34 139.008L338.697 138.58L361.759 112.172L401.356 126.269L384.294 161.438Z" fill="#CBF7E3"/>
<path d="M388.165 159.267L385.574 163.377C385.574 163.377 377.589 148.772 360.674 149.11L375.716 130.661C375.743 130.811 389.782 154.479 388.165 159.267Z" fill="#CBF7E3"/>
<path d="M408.407 130.113C408.407 130.113 400.286 110.028 379.729 119.395L360.701 149.261C360.701 149.261 382.297 143.504 388.968 161.137L408.407 130.113Z" fill="#E9FAF7"/>
<path d="M360.763 149.172C360.763 149.172 352.827 133.55 338.522 136.751L357.511 110.536L379.141 120.432L360.763 149.172Z" fill="#CBF7E3"/>
<path d="M379.818 119.457C379.818 119.457 379.43 108.287 368.739 102.309L361.415 98.669L341.506 124.508C341.506 124.508 360.832 132.804 360.701 149.261L379.818 119.457Z" fill="#E9FAF7"/>
<path d="M360.763 149.172C360.763 149.172 361.07 148.729 361.563 148.02C362.116 147.222 362.855 146.159 363.627 144.857C365.446 142.048 367.818 138.442 370.348 134.42C373.028 130.371 375.312 126.703 377.069 123.983C377.93 122.743 378.58 121.618 379.134 120.82C379.626 120.112 379.845 119.607 379.845 119.607C379.845 119.607 379.448 119.988 378.956 120.697C378.464 121.406 377.726 122.47 376.714 123.737C374.869 126.396 372.496 130.002 369.755 134.14C367.163 138.25 364.818 142.007 363.123 144.638C362.288 146.029 361.639 147.154 361.147 147.862C360.92 148.756 360.763 149.172 360.763 149.172Z" fill="#CBF7E3"/>
<path d="M365.254 106.193C365.192 106.282 366.263 106.631 367.743 107.527C369.222 108.423 371.137 110.015 372.833 112.112C374.468 114.298 375.414 116.53 375.8 118.244C376.187 119.957 376.315 121.096 376.377 121.008C376.377 121.008 376.411 120.769 376.391 120.23C376.372 119.691 376.325 119.002 376.162 118.101C375.837 116.299 374.953 113.978 373.23 111.731C371.595 109.545 369.53 107.98 367.9 107.111C367.13 106.708 366.448 106.365 365.97 106.297C365.581 106.289 365.254 106.193 365.254 106.193Z" fill="#CBF7E3"/>
<path d="M362.657 108.987C362.596 109.076 363.667 109.425 365.146 110.321C366.626 111.217 368.541 112.809 370.237 114.906C371.872 117.092 372.817 119.324 373.204 121.037C373.591 122.751 373.719 123.89 373.78 123.802C373.78 123.802 373.815 123.563 373.795 123.024C373.775 122.485 373.728 121.796 373.566 120.895C373.241 119.093 372.357 116.772 370.633 114.525C368.999 112.339 366.933 110.774 365.304 109.905C364.533 109.502 363.851 109.159 363.374 109.091C362.896 109.022 362.657 108.987 362.657 108.987Z" fill="#CBF7E3"/>
<path d="M360.381 112.266C360.319 112.354 361.39 112.704 362.87 113.6C364.349 114.496 366.264 116.088 367.961 118.185C369.595 120.371 370.541 122.603 370.928 124.316C371.314 126.029 371.442 127.169 371.504 127.08C371.504 127.08 371.538 126.841 371.519 126.302C371.499 125.763 371.452 125.074 371.289 124.173C370.964 122.372 370.08 120.051 368.357 117.803C366.722 115.618 364.657 114.052 363.027 113.184C362.257 112.78 361.575 112.438 361.097 112.369C360.708 112.362 360.381 112.266 360.381 112.266Z" fill="#CBF7E3"/>
<path d="M357.873 115.121C357.812 115.21 358.882 115.559 360.362 116.455C361.841 117.351 363.757 118.943 365.453 121.04C367.088 123.226 368.033 125.458 368.42 127.172C368.806 128.885 368.935 130.024 368.996 129.936C368.996 129.936 369.031 129.697 369.011 129.158C368.991 128.619 368.944 127.93 368.782 127.029C368.456 125.227 367.572 122.906 365.849 120.659C364.214 118.473 362.149 116.908 360.519 116.039C359.749 115.636 359.067 115.293 358.589 115.225C358.112 115.156 357.873 115.121 357.873 115.121Z" fill="#CBF7E3"/>
<path d="M355.154 118.092C355.092 118.181 356.163 118.53 357.642 119.426C359.122 120.322 361.037 121.915 362.733 124.012C364.368 126.197 365.314 128.43 365.7 130.143C366.087 131.856 366.215 132.995 366.277 132.907C366.277 132.907 366.311 132.668 366.291 132.129C366.272 131.59 366.225 130.901 366.062 130C365.737 128.198 364.853 125.877 363.13 123.63C361.495 121.444 359.43 119.879 357.8 119.01C357.029 118.607 356.348 118.265 355.87 118.196C355.392 118.127 355.154 118.092 355.154 118.092Z" fill="#CBF7E3"/>
<path d="M351.861 121.322C351.799 121.41 352.959 121.821 354.615 122.84C355.475 123.305 356.299 124.009 357.301 124.836C358.242 125.752 359.182 126.667 360.088 127.822C360.994 128.976 361.75 130.158 362.328 131.216C362.845 132.363 363.335 133.36 363.587 134.322C364.151 136.158 364.217 137.386 364.367 137.359C364.367 137.359 364.463 137.032 364.443 136.493C364.478 136.254 364.335 135.892 364.342 135.504C364.35 135.115 364.268 134.664 364.037 134.241C363.786 133.278 363.357 132.193 362.84 131.046C362.235 129.838 361.479 128.656 360.573 127.502C359.667 126.347 358.638 125.37 357.636 124.543C356.634 123.716 355.659 123.04 354.8 122.574C354.357 122.267 353.941 122.109 353.613 122.013C353.197 121.856 352.932 121.671 352.693 121.637C352.25 121.329 351.922 121.233 351.861 121.322Z" fill="#CBF7E3"/>
<path d="M349.981 124.219C349.919 124.308 351.079 124.719 352.674 125.826C353.471 126.38 354.296 127.084 355.298 127.911C356.238 128.826 357.117 129.831 358.023 130.985C358.929 132.139 359.623 133.409 360.202 134.468C360.719 135.615 361.148 136.7 361.46 137.574C362.024 139.41 362.091 140.638 362.241 140.611C362.241 140.611 362.337 140.284 362.317 139.745C362.352 139.506 362.209 139.144 362.216 138.755C362.223 138.366 362.142 137.916 361.972 137.404C361.721 136.442 361.293 135.356 360.837 134.12C360.231 132.912 359.537 131.642 358.631 130.488C357.725 129.333 356.758 128.268 355.817 127.352C354.815 126.525 353.902 125.76 353.043 125.294C352.6 124.987 352.184 124.829 351.918 124.645C351.502 124.487 351.236 124.303 350.997 124.268C350.308 124.315 349.981 124.219 349.981 124.219Z" fill="#CBF7E3"/>
<path d="M369.66 143.924C369.687 144.074 370.834 143.557 372.786 143.205C374.738 142.853 377.522 142.816 380.407 143.768C383.292 144.72 385.596 146.32 387.007 147.694C388.417 149.067 389.085 150.187 389.146 150.098C389.146 150.098 389.092 149.798 388.772 149.313C388.452 148.828 388.016 148.132 387.342 147.401C385.992 145.939 383.723 144.1 380.688 143.175C377.653 142.25 374.807 142.375 372.794 142.816C371.831 143.067 371.019 143.291 370.507 143.461C369.934 143.719 369.572 143.862 369.66 143.924Z" fill="#CBF7E3"/>
<path d="M372.156 140.14C372.183 140.291 373.33 139.774 375.282 139.421C377.233 139.069 380.017 139.032 382.902 139.985C385.787 140.937 388.091 142.537 389.502 143.91C390.913 145.284 391.58 146.403 391.641 146.315C391.641 146.315 391.587 146.014 391.267 145.53C390.947 145.045 390.511 144.348 389.837 143.617C388.488 142.155 386.218 140.317 383.183 139.391C380.148 138.466 377.302 138.592 375.289 139.033C374.327 139.284 373.514 139.508 373.002 139.678C372.429 139.936 372.156 140.14 372.156 140.14Z" fill="#CBF7E3"/>
<path d="M374.651 136.357C374.678 136.507 375.825 135.99 377.777 135.638C379.729 135.286 382.513 135.249 385.398 136.201C388.283 137.154 390.587 138.753 391.997 140.127C393.408 141.5 394.075 142.62 394.137 142.531C394.137 142.531 394.083 142.231 393.763 141.746C393.442 141.261 393.007 140.565 392.332 139.834C390.983 138.372 388.713 136.533 385.678 135.608C382.643 134.683 379.798 134.808 377.784 135.249C376.822 135.5 376.01 135.724 375.498 135.894C374.924 136.153 374.713 136.268 374.651 136.357Z" fill="#CBF7E3"/>
<path d="M377.297 132.547C377.324 132.697 378.471 132.18 380.422 131.828C382.374 131.476 385.158 131.439 388.043 132.391C390.928 133.343 393.232 134.943 394.643 136.316C396.054 137.69 396.721 138.81 396.782 138.721C396.782 138.721 396.728 138.421 396.408 137.936C396.088 137.451 395.652 136.754 394.978 136.023C393.629 134.561 391.359 132.723 388.324 131.798C385.289 130.872 382.443 130.998 380.43 131.439C379.467 131.69 378.655 131.914 378.143 132.084C377.508 132.431 377.297 132.547 377.297 132.547Z" fill="#CBF7E3"/>
<path d="M379.792 128.763C379.819 128.913 380.966 128.396 382.918 128.044C384.87 127.692 387.654 127.655 390.539 128.607C393.424 129.56 395.728 131.16 397.139 132.533C398.549 133.906 399.216 135.026 399.278 134.938C399.278 134.938 399.224 134.637 398.904 134.152C398.584 133.668 398.148 132.971 397.473 132.24C396.124 130.778 393.854 128.94 390.819 128.014C387.784 127.089 384.939 127.215 382.925 127.655C381.963 127.907 381.151 128.131 380.639 128.3C380.004 128.648 379.792 128.763 379.792 128.763Z" fill="#CBF7E3"/>
<path d="M382.376 125.041C382.403 125.192 383.55 124.675 385.502 124.323C387.454 123.97 390.238 123.933 393.123 124.886C396.008 125.838 398.312 127.438 399.722 128.811C401.133 130.185 401.8 131.304 401.862 131.216C401.862 131.216 401.808 130.916 401.488 130.431C401.167 129.946 400.732 129.249 400.057 128.518C398.708 127.056 396.438 125.218 393.403 124.292C390.368 123.367 387.523 123.493 385.509 123.934C384.547 124.185 383.735 124.409 383.223 124.579C382.649 124.837 382.287 124.98 382.376 125.041Z" fill="#CBF7E3"/>
<path d="M450.211 427.676C450.211 427.784 349.661 428 225.699 428C101.737 428 1.18677 427.892 1.18677 427.676C1.18677 427.46 101.737 427.353 225.699 427.353C349.769 427.46 450.211 427.568 450.211 427.676Z" fill="#263238"/>
<path d="M365.736 230.476H318.481V286.68H365.736V230.476Z" fill="#CBF7E3"/>
<path d="M320.1 226.808H106.376V290.24H320.1V226.808Z" fill="#E8505B"/>
<path d="M367.138 232.094H314.274V226.808H367.138C368.649 226.808 369.836 227.994 369.836 229.505C369.836 230.907 368.649 232.094 367.138 232.094Z" fill="#E8505B"/>
<path d="M367.138 290.24H314.274V284.846H367.138C368.649 284.846 369.836 286.033 369.836 287.543C369.836 288.945 368.649 290.24 367.138 290.24Z" fill="#E8505B"/>
<g opacity="0.4">
<path opacity="0.4" d="M303.27 226.808H278.024V290.24H303.27V226.808Z" fill="#333333"/>
</g>
<g opacity="0.4">
<path opacity="0.4" d="M150.502 226.808H125.256V290.24H150.502V226.808Z" fill="#333333"/>
</g>
<path d="M365.736 239.753C365.736 239.861 355.487 240.077 342.864 240.077C330.241 240.077 319.992 239.969 319.992 239.753C319.992 239.537 330.241 239.429 342.864 239.429C355.487 239.429 365.736 239.537 365.736 239.753Z" fill="#43D190"/>
<path d="M365.736 248.167C365.736 248.275 355.487 248.491 342.864 248.491C330.241 248.491 319.992 248.383 319.992 248.167C319.992 248.06 330.241 247.844 342.864 247.844C355.487 247.844 365.736 248.06 365.736 248.167Z" fill="#43D190"/>
<path d="M365.736 258.524C365.736 258.632 355.487 258.848 342.864 258.848C330.241 258.848 319.992 258.74 319.992 258.524C319.992 258.308 330.241 258.2 342.864 258.2C355.487 258.308 365.736 258.416 365.736 258.524Z" fill="#43D190"/>
<path d="M365.736 268.88C365.736 268.988 355.487 269.204 342.864 269.204C330.241 269.204 319.992 269.096 319.992 268.88C319.992 268.772 330.241 268.556 342.864 268.556C355.487 268.664 365.736 268.772 365.736 268.88Z" fill="#43D190"/>
<path d="M365.736 279.344C365.736 279.452 355.487 279.668 342.864 279.668C330.241 279.668 319.992 279.56 319.992 279.344C319.992 279.128 330.241 279.021 342.864 279.021C355.487 279.021 365.736 279.128 365.736 279.344Z" fill="#43D190"/>
<g opacity="0.2">
<path opacity="0.2" d="M264.43 252.806H168.303V264.241H264.43V252.806Z" fill="#333333"/>
</g>
<path d="M365.304 291.426H317.295V325.731H365.304V291.426Z" fill="#CBF7E3"/>
<path d="M317.726 290.24H113.389V327.026H317.726V290.24Z" fill="#4F4F4F"/>
<path d="M316.324 292.721H367.894C368.541 292.721 369.188 292.182 369.188 291.426C369.188 290.779 368.649 290.132 367.894 290.132H316.324V292.721Z" fill="#4F4F4F"/>
<path d="M316.324 326.918H367.894C368.541 326.918 369.188 326.379 369.188 325.624C369.188 324.976 368.649 324.329 367.894 324.329H316.324V326.918Z" fill="#4F4F4F"/>
<path d="M365.304 297.899C365.304 298.007 354.623 298.223 341.569 298.223C328.407 298.223 317.834 298.115 317.834 297.899C317.834 297.683 328.515 297.575 341.569 297.575C354.623 297.683 365.304 297.791 365.304 297.899Z" fill="#43D190"/>
<path d="M365.304 304.372C365.304 304.48 354.623 304.695 341.569 304.695C328.407 304.695 317.834 304.588 317.834 304.372C317.834 304.264 328.515 304.048 341.569 304.048C354.623 304.156 365.304 304.264 365.304 304.372Z" fill="#43D190"/>
<path d="M365.304 310.952C365.304 311.06 354.623 311.276 341.569 311.276C328.407 311.276 317.834 311.168 317.834 310.952C317.834 310.844 328.515 310.629 341.569 310.629C354.623 310.629 365.304 310.737 365.304 310.952Z" fill="#43D190"/>
<path d="M365.304 317.425C365.304 317.533 354.623 317.749 341.569 317.749C328.407 317.749 317.834 317.641 317.834 317.425C317.834 317.317 328.515 317.101 341.569 317.101C354.623 317.101 365.304 317.209 365.304 317.425Z" fill="#43D190"/>
<path d="M286.115 303.293H145.215V312.894H286.115V303.293Z" fill="#263238"/>
<path d="M372.533 330.155H323.552V423.037H372.533V330.155Z" fill="#E9FAF7"/>
<path d="M323.552 326.918H93.4297V427.568H323.552V326.918Z" fill="#E8505B"/>
<path d="M376.417 427.676H317.295V421.096H376.417C378.251 421.096 379.653 422.606 379.653 424.332C379.653 426.166 378.143 427.676 376.417 427.676Z" fill="#E8505B"/>
<path d="M376.417 333.499H317.295V326.918H376.417C378.251 326.918 379.653 328.429 379.653 330.155C379.653 331.988 378.143 333.499 376.417 333.499Z" fill="#E8505B"/>
<g opacity="0.4">
<path opacity="0.4" d="M274.032 326.918L225.699 427.676H266.48L312.44 326.918H274.032Z" fill="white"/>
</g>
<g opacity="0.4">
<path opacity="0.4" d="M197.648 326.918L149.315 427.676H190.204L236.056 326.918H197.648Z" fill="white"/>
</g>
<path d="M372.533 342.668C372.533 342.776 361.528 342.992 348.042 342.992C334.556 342.992 323.552 342.884 323.552 342.668C323.552 342.561 334.556 342.345 348.042 342.345C361.528 342.345 372.533 342.453 372.533 342.668Z" fill="#CBF7E3"/>
<path d="M372.533 354.535C372.533 354.643 361.528 354.859 348.042 354.859C334.556 354.859 323.552 354.751 323.552 354.535C323.552 354.319 334.556 354.211 348.042 354.211C361.528 354.319 372.533 354.427 372.533 354.535Z" fill="#CBF7E3"/>
<path d="M372.533 366.509C372.533 366.617 361.528 366.833 348.042 366.833C334.556 366.833 323.552 366.725 323.552 366.509C323.552 366.402 334.556 366.186 348.042 366.186C361.528 366.186 372.533 366.294 372.533 366.509Z" fill="#CBF7E3"/>
<path d="M372.533 378.376C372.533 378.484 361.528 378.7 348.042 378.7C334.556 378.7 323.552 378.592 323.552 378.376C323.552 378.16 334.556 378.052 348.042 378.052C361.528 378.052 372.533 378.268 372.533 378.376Z" fill="#CBF7E3"/>
<path d="M372.533 390.35C372.533 390.458 361.528 390.674 348.042 390.674C334.556 390.674 323.552 390.566 323.552 390.35C323.552 390.243 334.556 390.027 348.042 390.027C361.528 390.027 372.533 390.135 372.533 390.35Z" fill="#CBF7E3"/>
<path d="M372.533 402.217C372.533 402.325 361.528 402.541 348.042 402.541C334.556 402.541 323.552 402.433 323.552 402.217C323.552 402.001 334.556 401.893 348.042 401.893C361.528 401.893 372.533 402.001 372.533 402.217Z" fill="#CBF7E3"/>
<path d="M372.533 414.084C372.533 414.192 361.528 414.407 348.042 414.407C334.556 414.407 323.552 414.299 323.552 414.084C323.552 413.976 334.556 413.76 348.042 413.76C361.528 413.868 372.533 413.976 372.533 414.084Z" fill="#CBF7E3"/>
<path d="M343.403 56.3605L328.407 32.3037C328.083 31.7643 327.328 31.7643 327.005 32.3037L312.224 57.7629L343.403 56.3605Z" fill="#E8505B"/>
<g opacity="0.3">
<path opacity="0.3" d="M343.403 56.3605L328.407 32.3037C328.083 31.7643 327.328 31.7643 327.005 32.3037L312.224 57.7629L343.403 56.3605Z" fill="#333333"/>
</g>
<path d="M328.407 33.4902L342.433 56.2525L338.872 55.7131L315.892 52.1531L324.415 34.1375L328.407 33.4902Z" fill="#CBF7E3"/>
<path d="M329.81 78.3676L343.296 56.3605L308.232 49.8878C307.046 49.672 305.967 50.2114 305.319 51.1823L285.576 84.6245C284.929 85.7033 285.576 86.9978 286.763 87.2136L319.668 93.039L329.81 78.3676Z" fill="#E8505B"/>
<path d="M320.531 34.7849L339.951 55.8211L311.685 50.5351L320.531 34.7849Z" fill="#CBF7E3"/>
<path d="M311.685 50.5351C311.685 50.5351 311.685 50.4273 311.792 50.2115C311.9 49.9958 312.008 49.6721 312.224 49.3485C312.656 48.5933 313.195 47.5146 313.95 46.1121C315.461 43.3073 317.618 39.3158 320.208 34.6771L320.316 34.3535L320.531 34.5692C324.199 38.5607 328.515 43.1994 333.154 48.2697C335.528 50.8588 337.793 53.34 339.951 55.6054L339.519 55.929C335.096 49.6721 331.212 44.2782 328.515 40.2867C327.22 38.3449 326.141 36.8346 325.386 35.7559C325.063 35.2165 324.739 34.8928 324.523 34.5692C324.307 34.2456 324.199 34.1377 324.307 34.1377C324.307 34.1377 324.415 34.2456 324.631 34.5692C324.847 34.8928 325.17 35.2165 325.494 35.7559C326.249 36.8346 327.436 38.3449 328.839 40.1789C331.644 44.0625 335.528 49.4564 340.059 55.7133L339.627 56.0369C337.469 53.7715 335.204 51.2903 332.83 48.7012C328.191 43.631 323.876 38.9922 320.208 35.0007H320.639C317.942 39.6395 315.784 43.5231 314.166 46.3279C313.411 47.6224 312.763 48.7012 312.332 49.4564C312.116 49.78 312.008 50.1036 311.792 50.3194C311.792 50.5351 311.792 50.5351 311.685 50.5351Z" fill="#263238"/>
<g opacity="0.3">
<path opacity="0.3" d="M312.116 59.7046C311.792 60.1361 300.356 79.3384 300.356 79.3384L319.021 82.7905L331.428 62.9409L312.116 59.7046Z" fill="white"/>
</g>
<path d="M171.324 386.035L181.573 372.659L182.113 372.011L199.59 385.064L183.407 402.864L184.055 420.88C193.117 423.253 194.412 427.784 194.412 427.784H175.64L158.594 394.773L171.324 386.035Z" fill="#4F4F4F"/>
<path d="M158.594 394.773L175.64 427.676H194.412C193.98 426.597 193.225 425.734 192.254 424.871L176.934 424.008L161.183 392.939L158.594 394.773Z" fill="#CBF7E3"/>
<path d="M183.947 412.465C183.839 412.681 182.76 412.034 181.25 412.034C179.847 412.034 178.768 412.681 178.552 412.465C178.337 412.358 179.416 411.171 181.25 411.171C183.084 411.279 184.163 412.358 183.947 412.465Z" fill="#263238"/>
<path d="M183.623 408.043C183.407 408.15 182.652 407.072 181.142 406.748C179.631 406.424 178.445 407.18 178.337 406.964C178.229 406.856 178.445 406.532 178.984 406.316C179.524 405.993 180.387 405.777 181.25 405.993C182.221 406.209 182.868 406.748 183.3 407.179C183.623 407.611 183.731 407.935 183.623 408.043Z" fill="#263238"/>
<path d="M183.731 402.325C183.515 402.433 182.868 401.354 181.573 400.923C180.279 400.491 179.092 400.923 178.984 400.707C178.984 400.599 179.2 400.383 179.739 400.167C180.279 399.952 181.034 399.844 181.897 400.167C182.76 400.491 183.3 401.03 183.623 401.462C183.839 401.893 183.839 402.217 183.731 402.325Z" fill="#263238"/>
<path d="M188.802 397.794C188.586 397.902 188.047 396.823 186.86 396.068C185.673 395.313 184.486 395.205 184.486 394.989C184.379 394.773 185.889 394.45 187.291 395.421C188.802 396.284 189.018 397.794 188.802 397.794Z" fill="#263238"/>
<path d="M191.283 394.018C191.175 394.126 190.528 393.371 189.665 392.077C189.125 391.321 188.586 390.566 188.047 389.811C187.723 389.38 187.399 388.948 187.183 388.301C187.076 387.977 187.076 387.546 187.291 387.114C187.507 386.683 188.047 386.467 188.478 386.575C189.341 386.683 189.773 387.114 190.204 387.438C190.636 387.869 191.067 388.301 191.391 388.732C192.038 389.703 192.254 390.674 192.362 391.429C192.578 393.048 192.038 394.018 191.93 394.018C191.823 394.018 192.146 393.048 191.823 391.537C191.715 390.782 191.391 389.919 190.744 389.164C190.42 388.732 190.096 388.409 189.665 388.085C189.233 387.762 188.802 387.438 188.37 387.33C188.154 387.33 188.047 387.33 188.047 387.546C187.939 387.654 187.939 387.869 188.047 388.085C188.154 388.517 188.478 388.948 188.802 389.38C189.341 390.135 189.773 390.998 190.204 391.753C190.959 393.048 191.391 393.911 191.283 394.018Z" fill="#263238"/>
<path d="M191.93 394.558C191.822 394.558 191.93 393.587 192.901 392.4C193.872 391.321 196.03 390.243 198.511 391.429C198.727 391.537 198.835 391.861 198.835 392.077C198.835 392.292 198.727 392.508 198.619 392.724C198.404 393.048 198.188 393.155 197.972 393.263C197.541 393.587 197.109 393.803 196.677 394.018C195.814 394.45 194.951 394.666 194.196 394.666C192.686 394.774 191.823 394.558 191.823 394.45C191.823 394.342 192.686 394.342 194.088 394.126C194.735 394.018 195.491 393.695 196.354 393.371C196.785 393.155 197.109 392.94 197.541 392.616C197.756 392.508 197.972 392.292 198.08 392.184C198.188 391.969 198.188 392.077 198.08 391.969C197.972 391.861 197.756 391.861 197.541 391.753C197.325 391.645 197.109 391.645 196.893 391.645C196.462 391.645 196.03 391.645 195.599 391.753C194.735 391.969 194.088 392.292 193.549 392.832C192.362 393.695 192.038 394.558 191.93 394.558Z" fill="#263238"/>
<path d="M173.59 394.126C173.59 395.313 172.619 396.392 171.324 396.392C170.137 396.392 169.059 395.421 169.059 394.126C169.059 392.94 170.03 391.861 171.324 391.861C172.619 391.969 173.59 392.94 173.59 394.126Z" fill="#CBF7E3"/>
<g opacity="0.3">
<path opacity="0.3" d="M198.08 386.683L194.412 390.674L179.308 375.679L181.358 372.874L198.08 386.683Z" fill="#333333"/>
</g>
<path d="M244.903 392.832L242.961 415.702C242.961 415.702 265.509 423.361 265.617 427.676L221.168 427.461L222.678 391.753L244.903 392.832Z" fill="#4F4F4F"/>
<path d="M229.367 413.113C228.504 413.328 227.857 414.191 227.965 415.162C228.073 416.133 229.044 416.673 229.907 416.565C230.77 416.349 231.633 415.27 231.309 414.407C231.093 413.544 229.907 412.789 229.044 413.221" fill="#CBF7E3"/>
<path d="M221.168 427.353L221.276 423.793L263.351 424.764C263.351 424.764 265.617 426.598 265.617 427.568L221.168 427.353Z" fill="#CBF7E3"/>
<path d="M243.716 415.486C243.716 415.702 242.637 415.702 241.558 416.349C240.48 416.996 239.832 417.859 239.616 417.752C239.401 417.752 239.832 416.457 241.127 415.702C242.422 414.947 243.716 415.27 243.716 415.486Z" fill="#263238"/>
<path d="M248.247 417.644C248.247 417.859 247.276 418.183 246.521 419.046C245.766 419.909 245.442 420.88 245.226 420.88C245.011 420.88 244.903 419.585 245.874 418.507C246.953 417.428 248.247 417.428 248.247 417.644Z" fill="#263238"/>
<path d="M250.621 423.361C250.405 423.361 250.189 422.282 250.837 421.096C251.484 419.909 252.455 419.478 252.563 419.693C252.671 419.909 252.023 420.448 251.484 421.419C250.944 422.39 250.837 423.361 250.621 423.361Z" fill="#263238"/>
<path d="M243.5 410.2C243.392 410.416 242.421 410.092 241.235 410.092C240.048 410.092 239.077 410.416 238.969 410.308C238.861 410.092 239.832 409.337 241.235 409.337C242.637 409.337 243.608 410.092 243.5 410.2Z" fill="#263238"/>
<path d="M243.824 405.561C243.824 405.669 242.961 405.777 241.558 405.453C240.911 405.346 240.048 405.022 239.293 404.59C238.861 404.375 238.43 404.159 237.998 403.835C237.782 403.727 237.567 403.512 237.351 403.296C237.135 403.08 237.027 402.433 237.351 402.109C237.567 401.786 237.998 401.678 238.322 401.678C238.645 401.678 238.861 401.786 239.185 401.786C239.724 401.893 240.156 402.109 240.587 402.325C241.45 402.757 242.098 403.296 242.529 403.727C243.5 404.698 243.824 405.561 243.716 405.561C243.608 405.669 243.177 404.914 242.098 404.051C241.558 403.62 240.911 403.188 240.156 402.864C239.724 402.649 239.293 402.541 238.861 402.433C238.43 402.325 237.998 402.217 237.89 402.433C237.89 402.541 237.782 402.541 237.89 402.649C237.998 402.757 238.214 402.864 238.322 403.08C238.753 403.404 239.077 403.62 239.508 403.835C240.264 404.267 241.019 404.59 241.666 404.806C243.069 405.346 243.824 405.453 243.824 405.561Z" fill="#263238"/>
<path d="M243.5 405.885C243.393 405.885 243.069 405.13 243.069 403.727C243.069 403.08 243.177 402.217 243.5 401.354C243.608 400.923 243.824 400.491 244.148 400.059C244.471 399.628 244.795 399.089 245.658 398.981C246.09 398.981 246.413 399.304 246.521 399.628C246.629 399.952 246.629 400.167 246.737 400.491C246.845 401.03 246.737 401.57 246.629 402.001C246.413 402.972 245.982 403.727 245.55 404.267C244.579 405.346 243.716 405.561 243.716 405.561C243.608 405.453 244.471 405.022 245.119 403.943C245.442 403.404 245.766 402.756 245.874 401.893C245.982 401.462 245.982 401.03 245.874 400.599C245.874 400.167 245.658 399.736 245.442 399.736C245.227 399.736 244.795 400.06 244.579 400.383C244.363 400.815 244.148 401.138 243.932 401.57C243.608 402.325 243.5 403.08 243.393 403.727C243.5 405.022 243.716 405.885 243.5 405.885Z" fill="#263238"/>
<path d="M334.988 85.5954C335.42 84.3009 335.312 82.8985 334.881 81.7118C333.046 77.3967 328.731 67.6877 327.221 68.0113C325.818 68.2271 324.847 70.924 326.358 73.8367L321.287 69.5216C320.208 68.6586 318.698 69.5216 318.913 70.8161C319.021 71.3555 319.237 72.0028 319.561 72.7579C321.179 76.1022 325.494 79.2306 325.494 79.2306H316.648C316.648 79.2306 315.029 81.4961 318.05 83.1142C318.698 83.4379 319.453 83.6536 320.208 83.7615L324.739 84.193C324.739 84.193 316.432 93.3626 316.216 94.2257C315.569 96.1675 315.461 98.4329 315.461 98.4329L299.602 116.125L303.809 142.986L332.507 93.3626L334.988 85.5954Z" fill="#FFBE9D"/>
<path d="M332.615 81.4961C332.507 81.4961 332.291 81.1724 331.644 80.6331C330.997 80.2015 330.026 79.6622 328.839 79.4464C327.652 79.2306 326.573 79.2306 325.71 79.2306C324.847 79.2306 324.416 79.2306 324.416 79.1228C324.416 79.0149 324.955 78.907 325.71 78.7991C326.573 78.6912 327.652 78.5834 328.947 78.7991C330.241 79.0149 331.32 79.6622 331.86 80.2015C332.507 80.9567 332.723 81.4961 332.615 81.4961Z" fill="#EC9B71"/>
<path d="M332.831 78.799C332.723 78.9069 331.105 77.8281 329.271 76.3178C327.329 74.8075 325.926 73.513 326.034 73.4051C326.142 73.2973 327.76 74.376 329.594 75.8863C331.428 77.3966 332.939 78.6911 332.831 78.799Z" fill="#EC9B71"/>
<path d="M254.613 211.057C254.828 211.057 255.691 263.918 256.015 287.759C256.123 295.31 254.181 302.646 250.405 309.118L198.835 399.844L169.166 375.14L217.068 294.123L199.375 208.684L234.33 178.586L254.613 211.057Z" fill="#263238"/>
<path d="M279.642 200.27C279.534 203.29 251.592 399.304 251.592 399.304L217.068 396.823L229.799 198.975L279.642 200.27Z" fill="#263238"/>
<path d="M250.729 213.97C250.729 213.97 250.729 214.186 250.837 214.51C250.837 214.833 250.945 215.373 250.945 216.02C251.052 217.422 251.268 219.364 251.484 221.845C251.916 226.916 252.455 234.251 253.21 243.205C253.857 252.267 254.721 263.055 255.584 274.921C255.799 277.942 256.015 280.962 256.231 284.091C256.339 285.709 256.447 287.219 256.447 288.838C256.447 290.456 256.231 292.074 256.015 293.692C255.476 296.928 254.505 300.165 252.994 303.185C252.239 304.696 251.376 306.206 250.621 307.716C249.758 309.226 249.003 310.737 248.139 312.247C234.654 336.412 222.355 358.203 213.508 374.061C209.084 381.936 205.416 388.301 202.935 392.724C201.64 394.882 200.669 396.608 200.022 397.794C199.698 398.334 199.483 398.765 199.267 399.089C199.051 399.412 198.943 399.52 198.943 399.52C198.943 399.52 199.051 399.304 199.159 399.089C199.375 398.765 199.59 398.334 199.914 397.794C200.561 396.608 201.532 394.882 202.719 392.616C205.201 388.193 208.761 381.72 213.076 373.845C221.923 357.987 234.114 336.088 247.492 311.923C248.355 310.413 249.218 308.903 249.974 307.392C250.837 305.882 251.7 304.48 252.347 302.969C253.75 299.949 254.721 296.82 255.26 293.584C255.584 291.966 255.692 290.348 255.692 288.838C255.799 287.219 255.584 285.709 255.584 284.091C255.368 280.962 255.152 277.942 255.044 274.921C254.181 262.947 253.426 252.159 252.779 243.097C252.131 234.036 251.592 226.808 251.268 221.63C251.052 219.148 250.945 217.207 250.837 215.804C250.837 215.157 250.729 214.617 250.729 214.294C250.729 214.186 250.729 213.97 250.729 213.97Z" fill="#4F4F4F"/>
<path d="M227.101 306.637C227.101 306.637 226.886 306.637 226.454 306.53C226.023 306.422 225.375 306.206 224.62 305.882C223.11 305.235 221.275 303.833 219.765 301.783C218.255 299.733 217.499 297.576 217.284 295.957C217.176 295.202 217.068 294.447 217.176 294.016C217.176 293.584 217.176 293.26 217.284 293.26C217.392 293.26 217.392 294.231 217.715 295.85C218.039 297.36 218.794 299.517 220.305 301.459C221.707 303.401 223.541 304.696 224.944 305.451C226.238 306.314 227.209 306.53 227.101 306.637Z" fill="#4F4F4F"/>
<path d="M231.093 300.812C231.093 300.92 230.122 301.028 228.612 300.812C227.101 300.596 224.944 300.057 222.894 298.87C220.844 297.683 219.226 296.065 218.363 294.879C217.392 293.584 217.068 292.721 217.176 292.721C217.284 292.721 217.715 293.476 218.686 294.663C219.657 295.849 221.168 297.252 223.217 298.438C225.267 299.625 227.209 300.272 228.72 300.488C230.122 300.704 231.093 300.704 231.093 300.812Z" fill="#4F4F4F"/>
<path d="M206.711 216.775C206.711 216.775 206.927 217.099 207.574 217.314C208.113 217.53 209.192 217.638 210.163 217.099C211.242 216.559 212.321 215.696 213.616 214.725C214.802 213.754 216.205 212.568 217.5 211.381C220.197 208.9 222.355 206.311 223.865 204.477C225.375 202.643 226.238 201.348 226.238 201.456C226.238 201.456 226.131 201.78 225.699 202.427C225.375 202.967 224.836 203.83 224.081 204.8C222.678 206.742 220.52 209.331 217.823 211.92C216.529 213.215 215.126 214.294 213.831 215.265C212.537 216.235 211.458 217.099 210.271 217.638C209.084 218.177 208.006 217.962 207.358 217.638C206.819 217.206 206.711 216.775 206.711 216.775Z" fill="#4F4F4F"/>
<path d="M225.915 215.265C226.023 215.265 225.483 216.451 224.512 218.285C223.541 220.119 222.031 222.6 219.549 224.65C217.068 226.7 214.155 227.563 211.997 227.563C210.918 227.563 210.055 227.347 209.516 227.239C208.976 227.023 208.653 226.915 208.653 226.915C208.653 226.808 209.84 227.347 211.889 227.239C213.939 227.131 216.636 226.268 219.01 224.326C221.383 222.385 222.894 219.903 223.973 218.177C225.267 216.343 225.915 215.157 225.915 215.265Z" fill="#4F4F4F"/>
<path d="M279.642 200.27C279.642 200.27 252.994 212.675 243.392 208.468C233.79 204.153 227.533 194.336 220.628 196.602C213.724 198.867 203.151 200.917 199.59 210.734C199.59 210.734 197.325 208.684 197.325 204.585C197.325 200.701 200.561 195.523 200.561 195.523L196.246 150.969L196.462 76.1021C196.462 76.1021 203.906 64.9907 223.973 65.7458L251.7 69.7373C251.7 69.7373 265.833 74.0524 269.825 81.2802C273.816 88.508 272.09 140.074 272.09 140.074C272.09 140.074 280.829 190.129 280.829 194.013C280.937 197.788 279.642 200.27 279.642 200.27Z" fill="#E8505B"/>
<path d="M295.394 115.154L283.958 125.402L269.825 81.2803L257.957 107.818L262.704 150.969C263.459 157.874 268.53 163.591 275.219 165.209C280.505 166.504 286.008 165.101 290.107 161.541L302.191 151.185C303.917 149.675 304.78 147.409 304.348 145.144L299.817 116.772C299.601 114.615 297.012 113.752 295.394 115.154Z" fill="#E8505B"/>
<path d="M208.761 103.179C208.761 104.15 203.474 152.372 203.474 152.372L226.023 201.133C223.757 205.771 219.657 209.871 215.018 213.97C215.018 213.97 209.3 208.684 208.869 197.465C208.869 197.465 183.299 167.367 180.602 159.492C178.013 151.617 185.241 97.5698 185.241 97.5698L208.761 103.179Z" fill="#FFBE9D"/>
<path d="M266.049 111.594C266.049 111.594 265.941 111.918 265.617 112.565C265.293 113.212 264.754 114.075 264.215 115.154C263.567 116.233 262.92 117.527 261.949 118.93C261.409 119.577 260.87 120.224 260.007 120.764C259.252 121.303 258.281 121.519 257.202 121.627C255.26 121.735 253.426 120.979 252.023 120.008C250.621 119.038 249.65 117.851 249.003 116.772C248.247 115.801 247.816 114.83 247.492 114.291C247.168 113.644 246.953 113.32 247.061 113.32C247.168 113.212 247.924 114.615 249.434 116.556C250.189 117.527 251.16 118.606 252.455 119.577C253.75 120.44 255.476 121.195 257.31 121.087C258.173 121.087 259.036 120.764 259.791 120.332C260.546 119.901 261.086 119.253 261.625 118.714C262.596 117.419 263.351 116.125 263.999 115.046C264.646 113.967 265.186 113.104 265.617 112.565C265.725 111.918 266.049 111.594 266.049 111.594Z" fill="#263238"/>
<path d="M282.663 151.617C282.663 151.617 282.447 151.293 282.232 150.646C282.016 149.998 281.692 149.028 281.368 147.841C280.721 145.468 280.29 142.015 280.505 138.24C280.721 134.464 281.584 131.12 282.339 128.746C282.771 127.56 283.202 126.697 283.526 126.05C283.85 125.402 284.066 125.079 284.066 125.079C284.173 125.079 283.526 126.481 282.771 128.854C282.016 131.228 281.261 134.464 281.045 138.24C280.829 141.908 281.261 145.36 281.8 147.733C282.232 150.106 282.771 151.509 282.663 151.617Z" fill="#263238"/>
<path d="M288.705 142.771C288.597 142.771 288.057 141.908 287.302 140.505C286.547 138.995 285.684 136.837 285.037 134.356C284.389 131.875 284.066 129.61 283.958 127.883C283.85 126.265 283.958 125.187 284.066 125.187C284.174 125.187 284.174 126.265 284.389 127.883C284.605 129.502 284.929 131.767 285.576 134.248C286.223 136.729 287.087 138.779 287.734 140.289C288.273 141.8 288.705 142.663 288.705 142.771Z" fill="#263238"/>
<path d="M265.293 120.656C265.293 120.656 265.401 120.764 265.509 121.087C265.617 121.411 265.833 121.842 266.049 122.49C266.48 123.784 266.912 125.726 266.804 128.099C266.696 130.473 265.833 133.385 263.675 135.866C262.596 137.053 261.194 138.132 259.575 138.779C257.957 139.426 256.015 139.642 254.181 139.211C252.347 138.887 250.621 137.916 249.434 136.622C248.247 135.327 247.492 133.709 247.168 132.199C246.737 130.688 246.629 129.178 246.521 127.776C246.413 126.373 246.305 125.079 246.197 123.892C245.982 121.627 245.874 119.685 245.766 118.282C245.766 117.635 245.658 117.204 245.658 116.772C245.658 116.448 245.658 116.233 245.658 116.233C245.658 116.233 245.766 116.448 245.766 116.772C245.766 117.204 245.874 117.635 245.982 118.282C246.09 119.685 246.305 121.627 246.521 123.892C246.629 125.079 246.737 126.373 246.845 127.776C246.953 129.178 247.168 130.688 247.492 132.091C247.924 133.601 248.571 135.111 249.65 136.298C250.729 137.485 252.347 138.348 254.073 138.671C255.799 138.995 257.633 138.887 259.144 138.24C260.654 137.593 262.057 136.622 263.028 135.543C265.078 133.277 266.049 130.473 266.156 128.099C266.372 125.726 265.941 123.892 265.617 122.597C265.509 121.303 265.185 120.656 265.293 120.656Z" fill="#263238"/>
<g opacity="0.2">
<g opacity="0.2">
<path opacity="0.2" d="M210.703 168.014C211.35 163.699 211.674 161.865 213.292 157.766C214.802 153.666 216.852 149.567 216.96 145.252C216.96 142.447 216.205 139.75 215.557 137.161C212.968 127.668 210.271 118.282 207.682 108.789C207.358 116.125 207.142 123.46 206.819 130.796C206.711 132.63 206.711 134.464 207.682 135.974C208.868 137.916 211.242 138.671 212.537 140.505C213.508 141.908 213.831 143.742 213.292 145.36C212.752 146.978 211.242 147.409 209.624 147.733C208.545 148.057 208.437 148.057 207.358 148.165C206.171 148.38 204.553 148.057 204.121 149.135C202.827 151.724 204.229 153.235 204.769 154.421C207.034 160.031 210.703 168.014 210.703 168.014Z" fill="#333333"/>
</g>
</g>
<path d="M201.101 72.2185C201.101 72.2185 177.905 83.9772 174.668 146.654C174.453 150.969 178.337 154.314 182.544 153.558C192.038 151.725 206.495 148.92 206.387 148.596C206.279 148.057 211.782 93.4705 211.782 93.4705L201.101 72.2185Z" fill="#E8505B"/>
<path d="M211.35 92.4995C211.35 92.4995 211.35 92.8231 211.35 93.3625C211.35 93.9019 211.35 94.7649 211.35 95.7358C211.35 97.7855 211.134 100.806 210.918 104.582C210.703 108.25 210.271 112.673 209.732 117.635C209.408 120.116 209.192 122.705 208.869 125.294C208.761 126.589 208.545 127.991 208.329 129.394C208.221 130.796 207.79 132.199 207.574 133.493C207.466 134.14 207.466 134.896 207.574 135.543C207.682 136.19 208.113 136.729 208.545 137.269C209.408 138.24 210.703 138.779 211.782 139.75C212.86 140.721 213.292 142.123 213.508 143.418C213.616 144.065 213.616 144.712 213.616 145.36C213.508 146.007 213.292 146.654 212.753 147.194C212.213 147.733 211.458 147.841 210.918 147.949C210.379 148.057 209.732 148.165 209.192 148.272C208.006 148.488 206.927 148.704 205.848 148.92C203.69 149.351 201.748 149.783 199.914 150.106C196.354 150.861 193.333 151.509 191.283 151.94C190.744 152.048 190.312 152.156 189.881 152.264C189.665 152.264 189.557 152.372 189.341 152.372H189.233C189.233 152.372 189.125 152.156 189.233 152.264H189.341C189.449 152.264 189.449 152.264 189.557 152.264C190.096 152.156 190.42 152.156 190.42 152.156C190.42 152.156 190.096 152.264 189.665 152.372C189.557 152.372 189.557 152.372 189.449 152.372H189.341C189.341 152.48 189.341 152.264 189.341 152.264H189.449C189.665 152.264 189.773 152.156 189.988 152.156C190.42 152.048 190.852 151.94 191.283 151.832C193.333 151.401 196.246 150.646 199.914 149.891C201.748 149.459 203.69 149.028 205.848 148.596C206.927 148.38 208.006 148.165 209.192 147.949C209.732 147.841 210.379 147.733 210.918 147.625C211.566 147.517 212.105 147.409 212.429 146.978C213.184 146.223 213.184 144.82 213.076 143.634C212.86 142.447 212.429 141.152 211.458 140.289C210.595 139.426 209.192 138.887 208.221 137.808C207.682 137.269 207.358 136.622 207.142 135.866C206.927 135.111 207.035 134.356 207.142 133.601C207.358 132.199 207.79 130.796 207.898 129.502C208.113 128.099 208.221 126.805 208.437 125.402C208.761 122.705 209.084 120.224 209.3 117.743C209.84 112.888 210.271 108.465 210.595 104.69C210.918 101.022 211.026 98.0013 211.242 95.8437C211.35 94.8728 211.35 94.0098 211.35 93.4704C211.35 92.7153 211.35 92.4995 211.35 92.4995Z" fill="#263238"/>
<path d="M201.748 130.904C201.748 130.904 201.748 131.228 201.64 131.659C201.532 131.875 201.532 132.199 201.316 132.522C201.209 132.846 201.101 133.17 200.777 133.601C200.345 134.356 199.806 135.219 199.051 136.082C198.296 136.945 197.325 137.808 196.138 138.456C194.951 139.103 193.764 139.642 192.686 139.966C191.607 140.29 190.528 140.397 189.665 140.397C189.233 140.397 188.802 140.397 188.478 140.397C188.154 140.397 187.831 140.29 187.615 140.29C187.183 140.182 186.86 140.074 186.86 140.074C186.86 139.966 187.938 140.182 189.665 140.074C190.528 140.074 191.499 139.858 192.578 139.534C193.656 139.211 194.735 138.671 195.922 138.024C197.001 137.377 197.972 136.514 198.727 135.759C199.482 134.896 200.13 134.14 200.561 133.385C201.424 131.875 201.64 130.796 201.748 130.904Z" fill="#263238"/>
<g opacity="0.2">
<g opacity="0.2">
<path opacity="0.2" d="M226.778 186.785C237.566 193.15 250.836 194.66 263.243 192.826C265.293 192.502 267.343 192.071 269.177 191.1C271.011 190.129 272.522 188.403 272.845 186.353C273.169 184.304 272.198 182.038 270.148 181.283C268.206 180.636 266.048 181.715 264.214 182.685C252.563 188.511 238.753 189.913 226.13 186.569" fill="#333333"/>
</g>
</g>
<path d="M277.161 187.756C277.161 187.756 277.053 187.864 276.729 188.079C276.406 188.295 275.974 188.619 275.327 189.05C274.032 189.805 272.198 190.776 269.717 191.747C264.754 193.581 257.31 194.66 249.326 193.581C241.342 192.502 234.438 190.021 229.475 188.295C226.993 187.324 225.052 186.569 223.649 186.03C223.002 185.814 222.462 185.598 222.139 185.383C221.815 185.275 221.599 185.167 221.599 185.167C221.599 185.167 221.815 185.167 222.139 185.275C222.57 185.382 223.11 185.598 223.757 185.814C225.267 186.353 227.209 187.001 229.583 187.972C234.546 189.698 241.45 192.071 249.326 193.15C257.202 194.228 264.538 193.258 269.501 191.532C271.982 190.669 273.924 189.805 275.219 189.05C276.406 188.187 277.053 187.648 277.161 187.756Z" fill="#263238"/>
<g opacity="0.2">
<g opacity="0.2">
<path opacity="0.2" d="M276.514 165.425C279.75 162.189 279.75 156.363 279.103 151.832C278.456 147.302 276.729 142.986 276.082 138.348C275.543 134.033 275.974 129.61 275.758 125.294C275.543 120.979 274.679 116.341 271.767 113.104C270.04 130.58 271.659 148.38 276.514 165.425Z" fill="#333333"/>
</g>
</g>
<g opacity="0.2">
<g opacity="0.2">
<path opacity="0.2" d="M245.874 117.959C245.334 120.871 245.874 123.892 245.658 126.805C245.442 129.717 245.226 132.738 245.658 135.651C246.089 138.563 247.276 141.476 249.542 143.418C251.7 145.36 255.044 146.223 257.741 145.036C260.438 143.849 262.165 140.721 261.841 137.808C259.899 138.779 257.741 139.211 255.583 138.995C253.426 138.779 251.376 137.808 249.865 136.298C247.708 133.925 246.952 130.688 246.737 127.56C246.521 124.324 246.089 121.087 245.874 117.959Z" fill="#333333"/>
</g>
</g>
<path d="M209.84 109.868C209.84 109.868 209.408 109.976 208.653 110.084C207.898 110.192 206.819 110.407 205.416 110.515C202.719 110.839 198.835 111.162 194.736 110.515C190.528 109.868 186.968 108.142 184.918 106.308C183.839 105.445 183.084 104.582 182.652 103.935C182.221 103.287 182.005 102.964 182.005 102.964C182.113 102.856 182.976 104.366 185.134 106.092C187.183 107.818 190.744 109.436 194.736 110.084C198.835 110.731 202.611 110.407 205.308 110.192C206.603 110.084 207.682 109.976 208.545 109.976C209.408 109.868 209.84 109.868 209.84 109.868Z" fill="#E9FAF7"/>
<path d="M208.329 118.174C208.329 118.174 207.898 118.39 207.142 118.606C206.819 118.714 206.279 118.822 205.74 118.93C205.201 119.037 204.553 119.145 203.906 119.253C202.503 119.469 200.885 119.577 199.051 119.577C197.217 119.577 195.167 119.361 193.117 118.93C191.067 118.498 189.125 117.851 187.399 117.096C185.673 116.34 184.27 115.585 183.084 114.722C182.436 114.399 182.005 113.967 181.573 113.644C181.142 113.32 180.71 112.996 180.494 112.78C179.955 112.241 179.631 111.917 179.631 111.917C179.739 111.81 181.034 112.996 183.407 114.399C184.594 115.154 186.105 115.909 187.723 116.556C189.449 117.203 191.283 117.851 193.333 118.282C195.383 118.714 197.433 118.93 199.267 119.037C201.101 119.037 202.719 119.037 204.122 118.822C206.603 118.606 208.329 118.066 208.329 118.174Z" fill="#E9FAF7"/>
<path d="M245.011 116.772C245.011 116.88 237.135 116.88 227.533 116.556C217.931 116.34 210.055 116.017 210.055 115.801C210.055 115.693 217.931 115.693 227.533 116.017C237.135 116.34 245.011 116.664 245.011 116.772Z" fill="#E9FAF7"/>
<path d="M246.089 125.51C246.089 125.51 245.55 125.726 244.687 125.942C243.716 126.158 242.421 126.481 240.695 126.805C237.351 127.452 232.496 128.099 227.209 128.207C221.923 128.207 217.176 127.776 213.723 127.128C211.997 126.805 210.703 126.589 209.732 126.265C208.761 126.05 208.329 125.834 208.329 125.834C208.329 125.834 208.869 125.834 209.84 126.05C210.81 126.265 212.213 126.481 213.831 126.697C217.284 127.236 222.031 127.668 227.209 127.56C232.496 127.452 237.135 126.913 240.587 126.373C242.313 126.05 243.608 125.834 244.579 125.618C245.55 125.618 246.089 125.51 246.089 125.51Z" fill="#E9FAF7"/>
<path d="M266.372 123.892C266.372 123.892 266.264 124.216 266.049 124.647C265.725 125.187 265.293 125.834 264.43 126.481C262.92 127.776 260.007 128.854 256.986 128.531C253.857 128.207 251.376 126.913 249.65 125.942C247.924 124.971 246.953 124.216 246.953 124.108C246.953 124 248.032 124.647 249.866 125.51C251.592 126.373 254.073 127.56 257.094 127.884C260.007 128.207 262.704 127.236 264.322 126.05C265.725 125.079 266.264 123.892 266.372 123.892Z" fill="#E9FAF7"/>
<path d="M271.227 117.311C271.227 117.419 270.04 117.851 268.422 118.174C266.804 118.498 265.509 118.606 265.509 118.498C265.509 118.39 266.696 117.959 268.314 117.635C269.932 117.311 271.227 117.204 271.227 117.311Z" fill="#E9FAF7"/>
<path d="M281.692 117.635C281.8 117.743 279.642 119.037 276.729 120.116C273.816 121.195 271.335 121.626 271.335 121.411C271.335 121.195 273.708 120.548 276.621 119.577C279.319 118.606 281.584 117.527 281.692 117.635Z" fill="#E9FAF7"/>
<path d="M278.24 107.279C278.24 107.495 276.729 107.71 274.895 108.25C273.061 108.789 271.659 109.328 271.551 109.113C271.443 109.005 272.845 108.25 274.787 107.71C276.621 107.171 278.132 107.171 278.24 107.279Z" fill="#E9FAF7"/>
<path d="M272.306 103.395C272.306 103.395 272.306 103.611 272.306 104.043C272.306 104.474 272.198 105.121 272.198 105.876C272.09 106.632 271.982 107.603 271.982 108.789C271.874 109.868 271.766 111.162 271.766 112.565C271.551 115.37 271.551 118.714 271.443 122.49C271.443 126.265 271.551 130.365 271.874 134.572C272.198 138.887 272.63 142.986 273.061 146.654C273.601 150.322 274.032 153.666 274.571 156.471C274.787 157.874 275.111 159.06 275.327 160.247C275.542 161.326 275.758 162.297 275.974 163.052C276.082 163.807 276.298 164.346 276.406 164.778C276.513 165.209 276.513 165.425 276.513 165.425C276.513 165.425 276.406 165.209 276.298 164.778C276.19 164.346 275.974 163.699 275.758 163.052C275.542 162.297 275.327 161.326 275.111 160.247C274.895 159.168 274.571 157.874 274.248 156.471C273.601 153.666 273.061 150.322 272.522 146.654C271.982 142.986 271.551 138.887 271.335 134.572C271.119 130.257 271.011 126.158 271.011 122.382C271.119 118.606 271.227 115.262 271.443 112.457C271.551 111.055 271.659 109.76 271.766 108.681C271.874 107.602 271.982 106.632 272.09 105.769C272.198 105.013 272.306 104.474 272.306 103.935C272.306 103.611 272.306 103.395 272.306 103.395Z" fill="#263238"/>
<g opacity="0.2">
<g opacity="0.2">
<path opacity="0.2" d="M248.787 116.017C252.023 118.067 256.339 118.39 259.791 116.772C260.223 116.556 260.654 116.34 261.086 116.34C261.517 116.233 262.057 116.448 262.272 116.772C262.596 117.311 262.272 117.959 261.949 118.498C260.33 120.548 257.418 121.303 254.936 120.656C252.455 120.008 250.297 118.174 249.002 116.017" fill="#333333"/>
</g>
</g>
<path d="M228.504 23.8892C227.965 21.408 227.317 18.9268 227.317 16.3377C227.209 13.7487 227.641 11.1596 229.043 9.00204C230.446 6.84448 232.712 5.22631 235.301 5.22631C236.919 5.22631 238.43 5.7657 239.94 5.44207C241.774 5.11844 243.069 3.8239 244.687 2.74512C247.061 1.23483 249.974 0.479685 252.779 0.695441C254.289 0.803319 255.799 1.12695 256.986 2.09785C258.173 2.96088 259.036 4.47117 258.82 5.98146C260.654 5.65782 262.488 5.44207 264.322 5.65783C266.157 5.87358 267.991 6.62873 269.069 8.03114C270.256 9.43355 270.472 11.699 269.393 13.1014C271.011 12.562 272.953 13.5329 273.601 15.1511C274.248 16.7693 273.709 18.7111 272.522 19.8977C271.335 21.0844 268.746 21.9474 267.02 21.8395C265.293 21.7316 263.351 21.6238 261.841 20.7607" fill="#263238"/>
<path d="M234.546 81.0646C241.99 82.7906 249.326 77.5046 250.081 69.8453C250.513 65.7459 250.837 62.2938 250.944 61.7544C250.944 61.7544 261.302 61.9702 263.136 51.9375C264.97 41.9049 267.343 18.4954 267.343 18.4954C256.555 11.4833 242.853 10.836 231.525 16.7693L229.799 17.6323L224.728 67.2562C224.081 73.7289 228.288 79.5543 234.546 81.0646Z" fill="#FFBE9D"/>
<path d="M251.052 61.6466C251.052 61.6466 244.579 60.9994 238.645 55.6055C238.645 55.6055 240.479 63.3727 250.621 64.2357L251.052 61.6466Z" fill="#EC9B71"/>
<path d="M229.259 28.3123C229.151 28.2044 222.678 25.0759 221.707 31.9801C220.736 38.8843 227.857 38.4528 227.857 38.2371C227.965 38.0213 229.259 28.3123 229.259 28.3123Z" fill="#FFBE9D"/>
<path d="M226.131 35.3244C226.131 35.3244 226.023 35.4323 225.807 35.4323C225.591 35.5402 225.267 35.5402 224.944 35.3244C224.297 35.0008 223.757 33.7063 223.973 32.4117C224.081 31.7645 224.297 31.2251 224.512 30.6857C224.836 30.2542 225.16 29.9305 225.591 29.9305C225.915 29.9305 226.238 30.1463 226.238 30.362C226.346 30.5778 226.238 30.6857 226.238 30.6857C226.238 30.6857 226.454 30.5778 226.346 30.2542C226.346 30.1463 226.238 29.9305 226.131 29.8227C226.023 29.7148 225.699 29.6069 225.483 29.499C224.944 29.499 224.404 29.9305 224.081 30.362C223.757 30.9014 223.433 31.5487 223.433 32.196C223.326 33.5984 223.757 35.0008 224.728 35.4323C225.16 35.6481 225.591 35.5402 225.807 35.4323C226.131 35.5402 226.131 35.3244 226.131 35.3244Z" fill="#EC9B71"/>
<path d="M262.273 33.922C262.165 34.6771 261.41 35.2165 260.654 35.1086C259.899 35.0008 259.252 34.3535 259.36 33.5984C259.468 32.8432 260.223 32.3038 260.978 32.4117C261.841 32.5196 262.381 33.1668 262.273 33.922Z" fill="#263238"/>
<path d="M263.028 32.3038C262.812 32.4117 261.841 31.4408 260.331 31.225C258.82 30.9014 257.526 31.5486 257.418 31.3329C257.31 31.225 257.633 30.9014 258.173 30.6856C258.712 30.362 259.575 30.2541 260.546 30.362C261.517 30.5777 262.273 31.0093 262.704 31.4408C263.028 31.8723 263.136 32.3038 263.028 32.3038Z" fill="#263238"/>
<path d="M247.384 31.225C247.276 31.9801 246.521 32.5195 245.766 32.4116C245.011 32.3037 244.363 31.6565 244.471 30.9013C244.579 30.1462 245.334 29.6068 246.09 29.7147C246.845 29.8226 247.492 30.4698 247.384 31.225Z" fill="#263238"/>
<path d="M247.708 29.9305C247.492 30.0384 246.521 29.0675 245.011 28.8517C243.5 28.5281 242.206 29.1754 242.098 28.9596C241.99 28.8517 242.314 28.5281 242.853 28.3123C243.392 27.9887 244.256 27.8808 245.227 27.9887C246.198 28.2045 246.953 28.636 247.384 29.0675C247.708 29.499 247.816 29.9305 247.708 29.9305Z" fill="#263238"/>
<path d="M251.376 42.4444C251.376 42.3365 252.347 42.3365 253.965 42.4444C254.397 42.4444 254.72 42.4444 254.828 42.2286C254.936 42.0129 254.828 41.4735 254.72 41.042C254.505 40.0711 254.289 38.9923 254.073 37.8056C253.21 33.2748 252.671 29.499 252.779 29.499C252.994 29.499 253.857 33.1669 254.72 37.6978C254.936 38.7765 255.152 39.8553 255.26 40.9341C255.368 41.3656 255.476 42.0129 255.152 42.5523C255.044 42.8759 254.72 42.9838 254.397 42.9838C254.181 42.9838 253.857 42.9838 253.749 42.9838C252.347 42.6601 251.376 42.4444 251.376 42.4444Z" fill="#263238"/>
<path d="M246.629 42.6602C246.845 42.6602 246.629 44.3862 247.816 45.7886C249.002 47.191 250.837 47.4068 250.837 47.6225C250.837 47.7304 250.405 47.8383 249.65 47.7304C248.895 47.6225 247.816 47.191 247.168 46.328C246.413 45.465 246.197 44.3862 246.305 43.7389C246.197 42.9838 246.521 42.6602 246.629 42.6602Z" fill="#263238"/>
<path d="M262.92 29.4989C262.596 29.8225 261.625 29.2832 260.331 28.9595C259.036 28.6359 257.957 28.7438 257.741 28.4201C257.633 28.2044 257.849 27.8807 258.389 27.665C258.928 27.4492 259.791 27.2335 260.654 27.4492C261.517 27.665 262.273 28.0965 262.596 28.528C262.92 28.9595 263.028 29.391 262.92 29.4989Z" fill="#263238"/>
<path d="M246.737 23.997C246.521 24.1048 246.197 23.997 245.658 23.7812C245.119 23.5655 244.579 23.3497 243.824 23.2418C243.069 23.1339 242.421 23.0261 241.882 23.0261C241.343 23.0261 240.911 23.0261 240.803 22.7024C240.695 22.4867 240.911 22.0552 241.558 21.7315C242.206 21.4079 243.177 21.1921 244.255 21.4079C245.334 21.6236 246.09 22.2709 246.521 22.8103C246.845 23.4576 246.953 23.8891 246.737 23.997Z" fill="#263238"/>
<path d="M267.343 21.7317C267.343 21.7317 260.223 22.8104 252.779 18.3874C247.924 15.4747 242.098 13.8566 240.803 14.7196C239.401 15.6905 238.753 20.7608 233.683 21.9474C233.683 21.9474 233.251 31.8722 229.367 31.2249C225.483 30.5776 229.044 15.3669 229.044 15.3669L239.077 11.3754L249.758 10.1887L259.683 10.9439L268.638 14.396L267.343 21.7317Z" fill="#263238"/>
<path d="M47.6859 303.077C39.055 289.916 40.3496 271.253 50.5989 259.387C53.7276 255.719 58.2588 252.482 63.1137 252.914C68.0765 253.346 72.0683 257.553 73.5788 262.299C75.0892 267.046 74.5497 272.224 73.6867 277.079C72.392 283.983 70.3422 290.995 65.5951 296.065C60.8481 301.135 53.8355 306.421 47.6859 303.077Z" fill="#E8505B"/>
<path d="M52.4329 366.186C49.1963 358.634 51.5698 349.141 57.9351 343.963C59.8771 342.345 62.4664 341.158 64.9478 341.805C67.4292 342.453 69.1554 345.042 69.479 347.631C69.8027 350.22 69.0475 352.809 68.1844 355.29C66.8897 358.742 65.1635 362.194 62.2506 364.352C59.4455 366.402 55.3459 368.559 52.4329 366.186Z" fill="#E8505B"/>
<path d="M31.8266 361.763C34.2001 350.112 28.0506 337.275 17.4777 331.773C14.241 330.047 10.1414 329.076 6.90475 330.694C3.56026 332.42 1.94196 336.519 2.15773 340.295C2.37351 344.071 4.20758 347.523 6.25743 350.759C9.06248 355.29 12.5149 359.605 17.2619 361.871C22.0089 364.028 28.3742 365.754 31.8266 361.763Z" fill="#E8505B"/>
<path d="M33.229 330.262C37.3287 316.993 30.424 300.92 18.7722 293.368C15.2119 290.995 10.5728 289.377 6.58101 290.887C2.48131 292.505 0.107806 297.036 -8.1107e-05 301.459C-0.107968 305.882 1.61822 310.089 3.56018 314.081C6.25735 319.582 9.81761 325.084 15.1041 328.321C20.2826 331.449 28.9136 334.577 33.229 330.262Z" fill="#E8505B"/>
<path d="M41.5363 395.097C41.5363 395.097 41.4284 394.881 41.4284 394.45C41.3205 394.018 41.2126 393.371 41.1048 392.616C40.9969 392.184 40.9969 391.753 40.889 391.321C40.7811 390.782 40.6732 390.35 40.5653 389.703C40.3496 388.624 40.1338 387.33 39.7022 385.927C39.4865 385.172 39.3786 384.525 39.1628 383.77C38.947 383.015 38.7313 382.26 38.5155 381.397C38.0839 379.778 37.4366 378.052 36.7893 376.218C35.3868 372.658 33.7685 368.775 31.7186 364.891C29.5609 361.008 27.2953 357.448 25.1375 354.319C23.9508 352.809 22.8719 351.299 21.793 350.004C21.2536 349.357 20.7142 348.71 20.1747 348.17C19.6353 347.631 19.0959 346.984 18.6643 346.552C17.6933 345.473 16.7224 344.61 15.9672 343.747C15.5356 343.316 15.2119 342.992 14.7804 342.668C14.4567 342.345 14.0252 342.021 13.8094 341.805C13.27 341.266 12.7305 340.834 12.4069 340.511C12.0832 340.187 11.9753 340.079 11.9753 340.079C11.9753 340.079 12.1911 340.187 12.5148 340.511C12.9463 340.834 13.3779 341.158 14.0252 341.698C14.3488 341.913 14.6725 342.237 15.1041 342.561C15.4277 342.884 15.8593 343.316 16.2908 343.639C17.1539 344.394 18.1249 345.257 19.0959 346.336C19.6353 346.876 20.1747 347.415 20.7142 347.954C21.2536 348.602 21.793 349.141 22.3325 349.788C23.5192 351.083 24.5981 352.593 25.7848 354.103C28.0505 357.232 30.3161 360.792 32.4738 364.675C34.5237 368.559 36.2499 372.551 37.5445 376.111C38.1918 377.944 38.8391 379.671 39.1628 381.289C39.3786 382.152 39.5943 382.907 39.8101 383.662C40.0259 384.417 40.1338 385.172 40.3496 385.927C40.6732 387.33 40.889 388.624 41.1048 389.811C41.2126 390.35 41.3205 390.89 41.3205 391.429C41.3205 391.969 41.4284 392.4 41.4284 392.724C41.5363 393.479 41.5363 394.126 41.6442 394.558C41.5363 394.773 41.5363 395.097 41.5363 395.097Z" fill="#263238"/>
<path d="M41.2127 397.47C41.2127 397.47 41.2127 397.362 41.2127 397.255C41.2127 397.039 41.2127 396.823 41.3206 396.499C41.4285 395.744 41.4285 394.773 41.6442 393.587C41.7521 392.939 41.7521 392.184 41.86 391.429C41.9679 390.674 41.9679 389.811 41.9679 388.84C42.0758 387.006 42.1837 384.956 42.1837 382.691C42.1837 381.504 42.1837 380.318 42.1837 379.131C42.1837 377.837 42.0758 376.542 41.9679 375.247C41.86 372.551 41.5364 369.638 41.2127 366.725C40.3496 360.684 39.055 354.211 37.113 347.415C35.0632 340.727 32.5818 334.47 29.9925 329.076C28.59 326.379 27.4032 323.79 26.0007 321.416C25.3534 320.23 24.706 319.151 24.0587 318.072C23.4114 316.993 22.7641 316.023 22.1168 315.052C20.93 313.11 19.6354 311.492 18.5565 309.981C18.0171 309.226 17.5855 308.579 17.0461 307.932C16.6145 307.284 16.0751 306.745 15.7514 306.313C14.9962 305.343 14.3489 304.587 13.9174 303.94C13.7016 303.724 13.5937 303.509 13.4858 303.293C13.3779 303.185 13.3779 303.077 13.3779 303.077C13.3779 303.077 13.4858 303.185 13.5937 303.293C13.7016 303.401 13.9174 303.617 14.1331 303.832C14.5647 304.372 15.212 305.127 16.0751 306.098C16.5066 306.637 16.9382 307.177 17.4776 307.716C18.0171 308.363 18.4486 309.01 18.988 309.766C20.0669 311.276 21.3615 312.894 22.5483 314.836C23.1956 315.807 23.8429 316.778 24.4903 317.856C25.1376 318.935 25.7849 320.014 26.5401 321.201C27.9426 323.466 29.2373 326.163 30.6398 328.86C33.2291 334.362 35.8184 340.619 37.7603 347.307C39.7023 354.103 40.9969 360.684 41.7521 366.725C42.0758 369.746 42.3995 372.658 42.5073 375.355C42.5073 376.758 42.6152 378.052 42.7231 379.239C42.7231 380.533 42.7231 381.72 42.7231 382.799C42.7231 385.064 42.5073 387.222 42.5073 388.948C42.3995 389.811 42.3995 390.674 42.2916 391.537C42.1837 392.292 42.0758 393.047 42.0758 393.695C41.9679 394.881 41.7521 395.96 41.7521 396.607C41.7521 396.931 41.6442 397.147 41.6442 397.362C41.2127 397.362 41.2127 397.47 41.2127 397.47Z" fill="#263238"/>
<path d="M63.5453 268.664C63.5453 268.664 63.5453 268.772 63.4374 268.88C63.3295 269.096 63.2216 269.311 63.1137 269.527C62.7901 270.174 62.2506 271.037 61.6033 272.116C61.2796 272.656 60.956 273.303 60.5244 274.058C60.2008 274.813 59.7692 275.568 59.3377 276.323C58.9061 277.186 58.4746 278.049 58.043 279.02C57.6115 279.991 57.18 280.962 56.7484 282.041C56.3169 283.12 55.7774 284.198 55.3459 285.385C54.9143 286.572 54.3749 287.758 53.9434 289.053C53.7276 289.7 53.4039 290.348 53.1881 290.995C52.9724 291.642 52.7566 292.397 52.5408 293.044C52.1093 294.447 51.5698 295.849 51.1383 297.252C49.3042 303.185 47.578 309.658 46.1755 316.67C44.773 323.682 43.802 330.37 43.0468 336.411C42.3995 342.56 41.9679 348.062 41.86 352.701C41.7521 355.074 41.7522 357.124 41.7522 358.958C41.7522 360.792 41.7522 362.41 41.7522 363.704C41.7522 364.999 41.7522 365.97 41.7522 366.725C41.7522 367.049 41.7522 367.264 41.7522 367.48C41.7522 367.696 41.7522 367.696 41.7522 367.696C41.7522 367.696 41.7522 367.588 41.7522 367.48C41.7522 367.264 41.7522 367.049 41.7522 366.725C41.7522 365.97 41.6443 364.999 41.6443 363.704C41.5364 362.41 41.5364 360.792 41.5364 358.958C41.5364 357.124 41.5364 354.966 41.6443 352.701C41.7521 348.062 42.1837 342.453 42.7231 336.304C43.4783 330.154 44.4493 323.466 45.8518 316.454C47.3623 309.442 49.0884 302.969 50.9225 297.036C51.462 295.526 51.8935 294.123 52.4329 292.721C52.6487 292.074 52.8645 291.318 53.1881 290.671C53.4039 290.024 53.7276 289.377 53.9434 288.729C54.4828 287.435 54.9143 286.248 55.4538 285.062C55.9932 283.875 56.4247 282.796 56.9642 281.717C57.5036 280.639 57.9352 279.668 58.3667 278.697C58.7983 277.726 59.3377 276.863 59.7692 276.108C60.2008 275.245 60.6323 274.489 60.956 273.842C61.3875 273.195 61.7112 272.548 62.0349 272.008C62.6822 270.93 63.2216 270.066 63.5453 269.419C63.761 269.203 63.8689 268.988 63.9768 268.772C63.5453 268.772 63.5453 268.664 63.5453 268.664Z" fill="#263238"/>
<path d="M60.6323 349.249C60.6323 349.249 60.3086 349.788 59.7692 350.867C59.1219 351.838 58.2588 353.348 57.2878 355.182C56.3168 357.016 55.1301 359.282 54.0512 361.871C52.9723 364.46 51.8935 367.265 50.9225 370.393C49.9515 373.522 49.3042 376.434 48.7648 379.239C48.2253 381.936 47.9017 384.525 47.6859 386.575C47.4701 388.624 47.3622 390.35 47.2543 391.537C47.1465 392.724 47.1465 393.371 47.1465 393.371C47.1465 393.371 47.0386 392.724 47.0386 391.537C47.0386 390.35 47.0386 388.624 47.2543 386.467C47.3622 384.309 47.6859 381.828 48.2253 379.023C48.7648 376.218 49.4121 373.198 50.3831 370.177C51.354 367.049 52.4329 364.244 53.6197 361.655C54.8064 359.066 55.8853 356.8 56.9642 354.967C58.043 353.133 58.9061 351.622 59.6613 350.651C60.2008 349.788 60.6323 349.249 60.6323 349.249Z" fill="#263238"/>
<path d="M24.7061 389.164H62.3585L57.8273 427.676H29.3452L24.7061 389.164Z" fill="#4F4F4F"/>
<path d="M26.1084 423.469L29.2371 427.676H57.8271L61.0637 423.577L26.1084 423.469Z" fill="#263238"/>
<path d="M60.8481 400.491C60.8481 400.599 53.0803 400.814 43.3705 400.814C33.7686 400.814 25.8928 400.707 25.8928 400.491C25.8928 400.383 33.6607 400.167 43.3705 400.167C53.0803 400.167 60.8481 400.275 60.8481 400.491Z" fill="#E9FAF7"/>
<path d="M60.8481 403.08C60.8481 403.188 53.0803 403.404 43.3705 403.404C33.7686 403.404 25.8928 403.296 25.8928 403.08C25.8928 402.864 33.6607 402.756 43.3705 402.756C53.0803 402.756 60.8481 402.864 60.8481 403.08Z" fill="#E9FAF7"/>
<path d="M60.4165 405.561C60.4165 405.669 52.8645 405.885 43.5862 405.885C34.3079 405.885 26.7559 405.777 26.7559 405.561C26.7559 405.345 34.3079 405.238 43.5862 405.238C52.8645 405.238 60.4165 405.345 60.4165 405.561Z" fill="#E9FAF7"/>
<path d="M431.115 399.412C434.352 397.794 438.128 397.578 441.688 398.118C443.63 398.441 445.572 398.981 446.975 400.491C448.269 401.893 448.485 404.483 447.083 405.777C446.219 406.532 444.925 406.64 443.738 406.64C440.933 406.64 437.804 406.101 435.539 407.827C434.244 408.798 433.381 410.416 431.871 410.847C430.36 411.279 428.634 410.416 427.879 409.121C427.124 407.719 427.016 406.101 427.447 404.59C427.447 404.482 427.879 401.138 431.115 399.412Z" fill="#E8505B"/>
<path d="M423.671 385.172C425.613 387.977 429.497 387.006 431.223 385.388C432.949 383.662 433.704 381.181 434.46 378.808C435.97 373.414 437.588 367.696 436.402 362.086C436.078 360.468 435.431 358.742 434.244 357.556C433.057 356.369 431.331 355.614 429.605 356.045C427.663 356.585 426.476 358.419 425.613 360.253C423.024 365.539 421.729 371.472 421.729 377.297C421.837 379.994 422.161 382.907 423.671 385.172Z" fill="#E8505B"/>
<path d="M418.277 389.164C420.434 386.575 420.866 382.907 419.895 379.671C418.924 376.434 416.766 373.737 414.285 371.58C411.372 368.991 407.92 366.941 404.251 365.646C402.849 365.107 401.231 364.783 399.72 364.891C398.21 364.999 396.699 365.862 395.944 367.157C394.865 369.206 395.944 371.58 397.023 373.629C398.965 377.081 401.123 380.534 403.604 383.662C405.546 386.251 407.812 388.732 410.833 389.811C413.853 390.998 416.982 390.782 418.6 388.732" fill="#E8505B"/>
<path d="M423.563 427.676C423.563 427.676 423.671 427.245 423.779 426.382C423.887 425.411 423.995 424.332 424.103 422.93C424.318 421.419 424.534 419.693 424.858 417.752C425.289 415.81 425.937 413.76 426.692 411.71C427.555 409.661 428.526 407.719 429.821 406.209C431.007 404.698 432.41 403.62 433.705 402.972C434.999 402.325 436.186 402.109 437.049 401.894C437.912 401.786 438.344 401.786 438.344 401.678C438.344 401.678 437.912 401.678 437.049 401.678C436.186 401.786 434.999 401.894 433.597 402.541C432.194 403.188 430.684 404.267 429.497 405.777C428.202 407.287 427.124 409.229 426.26 411.387C425.397 413.544 424.75 415.594 424.426 417.536C423.995 419.478 423.887 421.204 423.779 422.714C423.671 424.224 423.671 425.411 423.563 426.274C423.563 427.245 423.563 427.676 423.563 427.676Z" fill="#263238"/>
<path d="M423.779 424.979C423.779 424.979 423.779 424.764 423.779 424.332C423.779 423.901 423.779 423.361 423.779 422.606C423.779 421.096 423.779 419.046 423.887 416.349C423.995 411.063 424.426 405.453 425.397 397.363C426.26 389.811 427.339 381.073 428.526 375.355C428.742 374.061 429.066 372.874 429.281 371.903C429.497 370.932 429.713 369.962 429.929 369.314C430.036 368.667 430.252 368.128 430.36 367.696C430.468 367.265 430.468 367.157 430.468 367.157C430.468 367.157 430.36 367.372 430.252 367.696C430.144 368.128 429.929 368.667 429.713 369.314C429.497 370.069 429.281 370.932 429.066 371.903C428.85 372.874 428.526 374.061 428.202 375.355C427.016 380.534 425.829 387.761 424.966 395.744C424.103 403.727 423.671 411.063 423.671 416.349C423.671 419.046 423.671 421.096 423.779 422.606C423.779 423.253 423.887 423.901 423.887 424.332C423.779 424.764 423.779 424.979 423.779 424.979Z" fill="#263238"/>
<path d="M423.887 410.955C423.887 410.955 423.887 410.308 423.887 409.229C423.779 408.042 423.671 406.424 423.347 404.374C423.024 402.325 422.484 399.951 421.729 397.362C421.405 396.176 420.65 393.371 418.816 389.056C416.335 383.338 413.098 378.592 410.185 375.679C409.538 374.924 408.783 374.384 408.135 373.845C407.812 373.629 407.596 373.306 407.272 373.09C406.949 372.874 406.733 372.766 406.517 372.55C405.546 371.903 405.007 371.58 405.007 371.58C404.899 371.687 407.164 372.982 409.862 376.003C412.667 378.915 415.795 383.662 418.277 389.379C419.571 392.508 420.542 395.205 421.19 397.578C421.945 400.167 422.484 402.541 422.808 404.482C423.132 406.532 423.347 408.15 423.563 409.229C423.779 410.308 423.779 410.955 423.887 410.955Z" fill="#263238"/>
<path d="M42.3371 210.751L44.3869 213.448C44.3869 213.448 54.744 196.835 66.7195 195.109C67.4747 195.432 68.2299 195.432 68.8772 195.001L72.7611 192.735C73.6242 192.196 74.0558 191.225 73.84 190.362C73.84 190.362 79.6659 180.114 91.965 178.495L96.4962 177.632L65.4248 149.26L17.1995 168.894L42.3371 210.751Z" fill="#E8505B"/>
<path d="M37.2663 208.486L40.9344 213.34C40.9344 213.34 49.3496 194.354 70.2796 192.951L49.6733 171.591C49.6733 171.699 34.7849 202.66 37.2663 208.486Z" fill="#CBF7E3"/>
<path d="M9 174.396C9 174.396 16.9836 148.613 43.5238 157.999L70.2797 193.059C70.2797 193.059 42.8764 188.097 36.4032 210.751L9 174.396Z" fill="#E9FAF7"/>
<path d="M70.2798 193.059C70.2798 193.059 78.5871 172.778 96.6042 175.259L70.2798 144.622L44.387 159.185L70.2798 193.059Z" fill="#CBF7E3"/>
<path d="M43.5237 157.999C43.5237 157.999 40.5029 142.68 52.3704 135.991L60.1383 132L87.2178 162.422C87.2178 162.422 68.4456 172.67 70.2796 193.167L43.5237 157.999Z" fill="#E9FAF7"/>
<path d="M70.2797 193.059C70.2797 193.059 69.8482 192.627 69.2008 191.764C68.4456 190.794 67.4747 189.607 66.2879 188.097C63.8065 184.86 60.462 180.545 56.7939 175.799C53.1257 171.052 49.7812 166.737 47.2999 163.5C46.1131 161.99 45.1421 160.696 44.3869 159.833C43.7396 158.97 43.308 158.43 43.4159 158.43C43.4159 158.43 43.8475 158.862 44.6027 159.725C45.3579 160.588 46.3289 161.774 47.6235 163.285C50.1049 166.305 53.5573 170.62 57.3333 175.475C61.0015 180.329 64.346 184.645 66.7195 187.881C67.7983 189.391 68.7693 190.686 69.5245 191.657C69.9561 192.52 70.3876 193.059 70.2797 193.059Z" fill="#263238"/>
<path d="M60.6777 140.954C60.6777 141.062 59.3831 141.278 57.549 142.356C55.715 143.435 53.4493 145.377 51.5074 147.966C49.5654 150.555 48.4866 153.36 47.9471 155.41C47.5156 157.459 47.5156 158.754 47.4077 158.754C47.4077 158.754 47.2998 158.43 47.2998 157.783C47.2998 157.136 47.2998 156.273 47.5156 155.194C47.9471 153.036 49.026 150.231 50.968 147.535C52.9099 144.838 55.2834 142.896 57.2254 141.925C58.1964 141.385 59.0595 141.17 59.5989 140.954C60.3541 140.954 60.6777 140.846 60.6777 140.954Z" fill="#263238"/>
<path d="M74.0557 153.791C74.0557 153.899 72.8689 154.439 71.0348 155.733C70.1718 156.38 69.0929 157.243 68.1219 158.214C67.1509 159.293 66.072 160.48 65.209 161.882C64.3459 163.285 63.6985 164.795 63.1591 166.089C62.7276 167.492 62.4039 168.679 62.1881 169.865C61.8645 172.023 61.8645 173.425 61.7566 173.425C61.7566 173.425 61.6487 173.101 61.6487 172.454C61.6487 172.131 61.6487 171.807 61.6487 171.268C61.6487 170.836 61.6487 170.297 61.7566 169.757C61.8645 168.679 62.1881 167.384 62.6197 165.874C63.1591 164.471 63.8064 162.961 64.6695 161.559C65.5326 160.156 66.6115 158.862 67.6904 157.783C68.7692 156.704 69.8481 155.949 70.7112 155.302C71.1427 154.978 71.5743 154.762 72.0058 154.546C72.4374 154.331 72.761 154.115 72.9768 154.007C73.732 153.791 74.0557 153.683 74.0557 153.791Z" fill="#263238"/>
<path d="M78.3712 157.459C78.3712 157.567 77.0766 158.214 75.1346 159.617C74.1636 160.264 73.0848 161.235 72.0059 162.422C70.927 163.608 69.8482 164.903 68.7693 166.413C67.7983 167.923 66.9352 169.434 66.2879 170.944C65.7485 172.454 65.209 173.749 64.9933 174.935C64.4538 177.309 64.5617 178.819 64.4538 178.819C64.4538 178.819 64.3459 178.495 64.3459 177.74C64.3459 177.417 64.3459 176.985 64.3459 176.554C64.3459 176.122 64.4538 175.475 64.5617 174.935C64.7775 173.749 65.209 172.346 65.7485 170.836C66.3958 169.326 67.151 167.815 68.2299 166.197C69.3087 164.687 70.3876 163.285 71.5744 162.098C72.7611 161.019 73.84 160.048 74.811 159.401C75.3504 159.077 75.7819 158.754 76.2135 158.538C76.645 158.322 76.9687 158.106 77.2924 157.999C77.9397 157.459 78.3712 157.351 78.3712 157.459Z" fill="#263238"/>
<path d="M81.0683 160.911C81.0683 161.019 79.7737 161.667 77.8317 163.069C76.8607 163.824 75.8898 164.795 74.703 165.982C73.6241 167.168 72.5453 168.571 71.5743 170.081C70.6033 171.699 69.8481 173.209 69.2008 174.72C68.6613 176.23 68.2298 177.525 68.014 178.711C67.4746 181.085 67.5825 182.595 67.4746 182.595C67.4746 182.595 67.3667 182.271 67.3667 181.516C67.3667 181.192 67.3667 180.761 67.3667 180.222C67.3667 179.682 67.4746 179.143 67.5825 178.603C67.7982 177.417 68.1219 176.014 68.6613 174.504C69.2008 172.994 70.0639 171.376 71.0349 169.757C72.0058 168.139 73.0847 166.737 74.2714 165.55C75.4582 164.363 76.4292 163.393 77.508 162.745C78.0475 162.422 78.479 162.098 78.9106 161.882C79.3421 161.667 79.6658 161.451 79.9894 161.343C80.7447 161.019 81.0683 160.803 81.0683 160.911Z" fill="#263238"/>
<path d="M58.7358 187.341C58.7358 187.449 57.2254 186.91 54.744 186.694C52.2626 186.478 48.8103 186.694 45.25 188.097C41.7976 189.499 39.1005 191.872 37.4822 193.706C35.8639 195.54 35.2165 196.943 35.1086 196.943C35.1086 196.943 35.2165 196.511 35.5402 195.972C35.8639 195.324 36.4033 194.461 37.1585 193.49C38.6689 191.549 41.3661 189.067 44.9263 187.557C48.4866 186.047 52.1548 185.939 54.6361 186.263C55.9308 186.37 56.9018 186.694 57.5491 186.91C58.3043 187.234 58.7358 187.341 58.7358 187.341Z" fill="#263238"/>
<path d="M55.1755 182.918C55.1755 183.026 53.6651 182.487 51.1837 182.271C48.7023 182.055 45.25 182.271 41.6897 183.673C38.2373 185.076 35.5401 187.449 33.9218 189.283C32.3035 191.117 31.6562 192.519 31.5483 192.519C31.5483 192.519 31.6562 192.088 31.9799 191.549C32.3035 190.901 32.843 190.038 33.5982 189.067C35.1086 187.126 37.8058 184.644 41.366 183.134C44.9263 181.624 48.5944 181.516 51.0758 181.84C52.3705 181.947 53.3415 182.271 53.9888 182.487C54.744 182.81 55.1755 182.918 55.1755 182.918Z" fill="#263238"/>
<path d="M51.6152 178.495C51.6152 178.603 50.1048 178.064 47.6234 177.848C45.142 177.632 41.6897 177.848 38.1294 179.251C34.677 180.653 31.9798 183.026 30.3615 184.86C28.7432 186.694 28.0959 188.097 27.988 188.097C27.988 188.097 28.0959 187.665 28.4196 187.126C28.7432 186.478 29.2827 185.615 30.0379 184.644C31.5483 182.703 34.2455 180.221 37.8057 178.711C41.366 177.201 45.0341 177.093 47.5155 177.417C48.8102 177.525 49.7812 177.848 50.4285 178.064C51.1837 178.28 51.6152 178.495 51.6152 178.495Z" fill="#263238"/>
<path d="M48.0549 174.072C48.0549 174.18 46.5445 173.641 44.0631 173.425C41.5817 173.209 38.1294 173.425 34.5691 174.827C31.1167 176.23 28.4195 178.603 26.8012 180.437C25.1829 182.271 24.5356 183.673 24.4277 183.673C24.4277 183.673 24.5356 183.242 24.8593 182.703C25.1829 182.055 25.7224 181.192 26.4776 180.221C27.988 178.28 30.6852 175.798 34.2454 174.288C37.8057 172.778 41.4738 172.67 43.9552 172.994C45.2499 173.101 46.2209 173.425 46.8682 173.641C47.7313 173.857 48.0549 174.072 48.0549 174.072Z" fill="#263238"/>
<path d="M44.4949 169.649C44.4949 169.757 42.9845 169.218 40.5031 169.002C38.0217 168.786 34.5693 169.002 31.009 170.405C27.5567 171.807 24.8595 174.18 23.2412 176.014C21.6229 177.848 20.9756 179.251 20.8677 179.251C20.8677 179.251 20.9756 178.819 21.2992 178.28C21.6229 177.632 22.1623 176.769 22.9175 175.799C24.4279 173.857 27.1251 171.376 30.6854 169.865C34.2456 168.355 37.9138 168.247 40.3952 168.571C41.6898 168.679 42.6608 169.002 43.3081 169.218C44.1712 169.434 44.4949 169.649 44.4949 169.649Z" fill="#263238"/>
<path d="M40.9346 165.226C40.9346 165.334 39.4242 164.795 36.9428 164.579C34.4614 164.363 31.009 164.579 27.4487 165.982C23.9964 167.384 21.2992 169.757 19.6809 171.591C18.0626 173.425 17.4153 174.828 17.3074 174.828C17.3074 174.828 17.4153 174.396 17.7389 173.857C18.0626 173.209 18.602 172.346 19.3572 171.375C20.8676 169.434 23.5648 166.952 27.1251 165.442C30.6853 163.932 34.3535 163.824 36.8349 164.148C38.1295 164.255 39.1005 164.579 39.7478 164.795C40.6109 165.011 40.9346 165.226 40.9346 165.226Z" fill="#263238"/>
<path d="M50.7522 159.833L58.1964 168.031C58.1964 168.031 60.462 156.704 70.6034 152.389L62.8355 144.082C62.7276 143.975 52.4784 147.535 50.7522 159.833Z" fill="#CBF7E3"/>
</svg>
