<svg width="20" height="18" viewBox="0 0 20 18" fill="none" xmlns="http://www.w3.org/2000/svg">
<path d="M16.7993 9.9375H5.93776C5.42002 9.9375 5.00027 9.51775 5.00027 9C5.00027 8.48226 5.42002 8.06251 5.93776 8.06251H16.7993L15.5871 6.85039C15.221 6.48427 15.221 5.89071 15.5871 5.52459C15.9532 5.15847 16.5468 5.15847 16.913 5.52459L19.7253 8.33701C19.7473 8.35895 19.768 8.38195 19.7876 8.40595C19.7962 8.41638 19.8036 8.42745 19.8117 8.43813C19.822 8.45188 19.8326 8.46532 19.8422 8.47963C19.8509 8.4927 19.8585 8.50626 19.8665 8.51963C19.8742 8.53251 19.8823 8.54507 19.8893 8.55832C19.8967 8.57207 19.9029 8.58619 19.9095 8.60019C19.916 8.61388 19.9228 8.62738 19.9286 8.64138C19.9343 8.65507 19.9389 8.66901 19.9438 8.68288C19.9493 8.69788 19.955 8.71269 19.9596 8.72801C19.9638 8.74188 19.9669 8.75594 19.9704 8.77001C19.9743 8.78557 19.9787 8.80107 19.9818 8.81694C19.985 8.83313 19.9869 8.84951 19.9893 8.86582C19.9913 8.87976 19.9939 8.8935 19.9953 8.90763C19.9983 8.93788 19.9999 8.96832 19.9999 8.99869C19.9999 8.99913 20 8.99963 20 9.00007C20 9.0005 19.9999 9.001 19.9999 9.00144C19.9999 9.03188 19.9983 9.06225 19.9953 9.09257C19.9939 9.1065 19.9913 9.12007 19.9894 9.13388C19.987 9.15038 19.9851 9.16688 19.9818 9.18325C19.9787 9.199 19.9744 9.21425 19.9704 9.22969C19.9669 9.24388 19.9638 9.25819 19.9595 9.27225C19.9549 9.28731 19.9493 9.30188 19.944 9.31663C19.9389 9.33075 19.9343 9.34494 19.9286 9.35881C19.9229 9.37256 19.9162 9.38575 19.9098 9.39919C19.9031 9.4135 19.8967 9.42794 19.8892 9.442C19.8823 9.45481 19.8745 9.467 19.8671 9.47944C19.8589 9.49325 19.8511 9.50719 19.8421 9.52063C19.8329 9.53431 19.8228 9.54713 19.8129 9.56031C19.8044 9.57163 19.7966 9.58331 19.7875 9.59431C19.7688 9.61706 19.749 9.63887 19.7283 9.65981C19.7273 9.66081 19.7265 9.66194 19.7255 9.66294L16.913 12.4755C16.7299 12.6585 16.49 12.7501 16.2501 12.7501C16.0102 12.75 15.7702 12.6585 15.5872 12.4755C15.2211 12.1094 15.2211 11.5159 15.5871 11.1497L16.7993 9.9375Z" fill="#4F4F4F"/>
<path d="M0.937594 0.5625H12.8125C13.3303 0.5625 13.75 0.982247 13.75 1.49999V5.24997C13.75 5.76772 13.3303 6.18746 12.8125 6.18746C12.2948 6.18746 11.875 5.76772 11.875 5.24997V2.43749H1.87509V15.5625H11.875V12.7499C11.875 12.2322 12.2948 11.8124 12.8125 11.8124C13.3303 11.8124 13.75 12.2322 13.75 12.7499V16.5C13.75 17.0177 13.3303 17.4375 12.8125 17.4375H0.937594C0.419848 17.4375 0.000101089 17.0177 0.000101089 16.5V1.49999C0.000101089 0.982247 0.419848 0.5625 0.937594 0.5625Z" fill="#4F4F4F"/>
</svg>
