<svg aria-hidden="true" style="position: absolute; width: 0; height: 0; overflow: hidden;" version="1.1" xmlns="http://www.w3.org/2000/svg" xmlns:xlink="http://www.w3.org/1999/xlink">
<defs>
<symbol id="icon-calendar" viewBox="0 0 32 32">
<path  d="M28 4h-1.333v-2.667c0-0.736-0.597-1.333-1.333-1.333h-1.333c-0.736 0-1.333 0.597-1.333 1.333v2.667h-13.333v-2.667c0-0.736-0.597-1.333-1.333-1.333h-1.333c-0.736 0-1.333 0.597-1.333 1.333v2.667h-1.333c-2.205 0-4 1.795-4 4v20c0 2.205 1.795 4 4 4h24c2.205 0 4-1.795 4-4v-20c0-2.205-1.795-4-4-4zM29.333 28c0 0.735-0.599 1.333-1.333 1.333h-24c-0.735 0-1.333-0.599-1.333-1.333v-14.613h26.667v14.613z"></path>
<path  d="M6.080 16h3.040c0.707 0 1.28 0.573 1.28 1.28v1.44c0 0.707-0.573 1.28-1.28 1.28h-3.040c-0.707 0-1.28-0.573-1.28-1.28v-1.44c0-0.707 0.573-1.28 1.28-1.28z"></path>
<path  d="M14.080 16h3.040c0.707 0 1.28 0.573 1.28 1.28v1.44c0 0.707-0.573 1.28-1.28 1.28h-3.040c-0.707 0-1.28-0.573-1.28-1.28v-1.44c0-0.707 0.573-1.28 1.28-1.28z"></path>
<path  d="M22.080 16h3.040c0.707 0 1.28 0.573 1.28 1.28v1.44c0 0.707-0.573 1.28-1.28 1.28h-3.040c-0.707 0-1.28-0.573-1.28-1.28v-1.44c0-0.707 0.573-1.28 1.28-1.28z"></path>
<path  d="M6.080 22.4h3.040c0.707 0 1.28 0.573 1.28 1.28v1.44c0 0.707-0.573 1.28-1.28 1.28h-3.040c-0.707 0-1.28-0.573-1.28-1.28v-1.44c0-0.707 0.573-1.28 1.28-1.28z"></path>
<path  d="M14.080 22.4h3.040c0.707 0 1.28 0.573 1.28 1.28v1.44c0 0.707-0.573 1.28-1.28 1.28h-3.040c-0.707 0-1.28-0.573-1.28-1.28v-1.44c0-0.707 0.573-1.28 1.28-1.28z"></path>
</symbol>
</defs>
</svg>
