<svg width="160" height="78" viewBox="0 0 160 78" fill="none" xmlns="http://www.w3.org/2000/svg">
<path d="M84.8212 17.3473V26.9481H83.2432V20.3726L80.3086 26.9481H79.2151L76.2666 20.3726V26.9481H74.6886V17.3473H76.3912L79.7687 24.876L83.1324 17.3473H84.8212Z" fill="white"/>
<path d="M98.0936 24.9865H94.0655L93.3734 26.9481H91.7262L95.1729 17.3335H97.0001L100.447 26.9481H98.7858L98.0936 24.9865ZM97.6507 23.7018L96.0865 19.2398L94.5085 23.7018H97.6507Z" fill="white"/>
<path d="M112.646 26.9481L108.922 22.6519V26.9481H107.344V17.3473H108.922V21.7264L112.659 17.3473H114.639L110.458 22.1546L114.708 26.9481H112.646Z" fill="white"/>
<path d="M123.08 18.6182V21.4363H126.402V22.721H123.08V25.6634H126.817V26.9481H121.502V17.3335H126.817V18.6182H123.08Z" fill="white"/>
<path d="M144.732 17.3473V26.9481H143.154V17.3473H144.732Z" fill="white"/>
<path d="M158.417 17.3473V18.632H155.856V26.9481H154.278V18.632H151.704V17.3473H158.417Z" fill="white"/>
<path d="M74.6665 32.9456H78.5946V37.991H90.639V32.9456H94.5794V52.2738H90.639V41.3422H78.5946V52.2738H74.6665V32.9456Z" fill="white"/>
<path d="M98.9288 47.6736C98.9288 46.9729 99.0816 46.334 99.3873 45.7569C99.6929 45.1798 100.151 44.6852 100.763 44.273C101.374 43.8525 102.134 43.531 103.043 43.3084C103.96 43.0776 105.025 42.9621 106.24 42.9621C107.14 42.9621 108.086 43.0281 109.077 43.16C110.077 43.2919 111.105 43.4939 112.163 43.7659C112.121 43.3043 111.981 42.8797 111.741 42.4922C111.502 42.0965 111.167 41.7585 110.738 41.4782C110.316 41.1897 109.804 40.9671 109.201 40.8104C108.606 40.6538 107.929 40.5755 107.169 40.5755C106.756 40.5755 106.302 40.6002 105.806 40.6497C105.31 40.6992 104.798 40.7734 104.269 40.8723C103.741 40.9712 103.216 41.0949 102.696 41.2433C102.184 41.3917 101.704 41.5689 101.258 41.775L100.143 38.77C100.697 38.5722 101.287 38.3908 101.915 38.2259C102.551 38.0611 103.2 37.9209 103.861 37.8055C104.521 37.6818 105.182 37.587 105.843 37.5211C106.504 37.4551 107.144 37.4221 107.764 37.4221C110.498 37.4221 112.53 38.1188 113.86 39.512C115.19 40.9053 115.855 43.0405 115.855 45.9176V52.2738H112.188V50.9012C111.808 51.1238 111.39 51.334 110.936 51.5318C110.49 51.7297 110.003 51.9028 109.474 52.0512C108.945 52.1996 108.375 52.315 107.764 52.3975C107.161 52.4882 106.521 52.5335 105.843 52.5335C104.703 52.5335 103.699 52.4098 102.832 52.1625C101.973 51.9152 101.254 51.5731 100.676 51.1361C100.098 50.6992 99.6599 50.1881 99.3625 49.6027C99.0733 49.0092 98.9288 48.3661 98.9288 47.6736ZM102.795 47.55C102.795 47.789 102.857 48.0199 102.981 48.2425C103.105 48.4568 103.303 48.6505 103.576 48.8237C103.848 48.9886 104.195 49.1246 104.616 49.2318C105.046 49.3307 105.562 49.3801 106.165 49.3801C106.81 49.3801 107.433 49.3224 108.036 49.207C108.639 49.0916 109.201 48.9391 109.722 48.7495C110.242 48.5599 110.713 48.3414 111.134 48.0941C111.556 47.8468 111.907 47.5912 112.188 47.3274V46.6843C111.626 46.5277 111.068 46.3958 110.515 46.2886C109.969 46.1815 109.445 46.099 108.941 46.0413C108.445 45.9754 107.974 45.93 107.528 45.9053C107.091 45.8805 106.706 45.8682 106.376 45.8682C105.69 45.8682 105.12 45.9135 104.666 46.0042C104.212 46.0949 103.844 46.2186 103.563 46.3752C103.282 46.5236 103.084 46.7008 102.968 46.9069C102.853 47.113 102.795 47.3274 102.795 47.55Z" fill="white"/>
<path d="M120.614 31.7585H124.281V39.0545C124.604 38.8319 124.984 38.6217 125.422 38.4238C125.859 38.2259 126.33 38.0528 126.834 37.9044C127.338 37.756 127.858 37.6406 128.395 37.5582C128.932 37.4675 129.469 37.4221 130.006 37.4221C131.245 37.4221 132.381 37.6035 133.414 37.9663C134.455 38.329 135.347 38.8401 136.09 39.4996C136.834 40.1592 137.412 40.9506 137.825 41.8739C138.247 42.789 138.457 43.803 138.457 44.916C138.457 46.0784 138.238 47.1295 137.8 48.0693C137.363 49.0009 136.755 49.8006 135.979 50.4684C135.211 51.1279 134.294 51.639 133.228 52.0018C132.171 52.3563 131.022 52.5335 129.783 52.5335C129.255 52.5335 128.73 52.5005 128.21 52.4346C127.697 52.3686 127.202 52.2779 126.723 52.1625C126.252 52.0471 125.806 51.9111 125.384 51.7544C124.971 51.5896 124.604 51.4123 124.281 51.2227V52.2738H120.614V31.7585ZM124.281 47.686C124.653 47.9828 125.046 48.2342 125.459 48.4403C125.872 48.6464 126.293 48.8154 126.723 48.9473C127.152 49.0792 127.586 49.1782 128.024 49.2441C128.462 49.3018 128.887 49.3307 129.3 49.3307C130.143 49.3307 130.89 49.2194 131.543 48.9968C132.204 48.766 132.757 48.4527 133.203 48.057C133.658 47.6613 134.005 47.1955 134.244 46.6596C134.484 46.1237 134.603 45.5425 134.603 44.916C134.603 44.3307 134.484 43.7783 134.244 43.2589C134.013 42.7396 133.674 42.2861 133.228 41.8987C132.79 41.503 132.257 41.1938 131.63 40.9712C131.01 40.7404 130.312 40.625 129.535 40.625C129.04 40.625 128.544 40.6744 128.048 40.7734C127.553 40.864 127.074 40.9959 126.611 41.1691C126.157 41.3422 125.727 41.5524 125.322 41.7997C124.926 42.0471 124.579 42.3232 124.281 42.6283V47.686Z" fill="white"/>
<path d="M143.785 35.6909C143.422 35.6909 143.092 35.6414 142.794 35.5425C142.505 35.4353 142.257 35.2952 142.051 35.1221C141.844 34.9407 141.683 34.7346 141.567 34.5037C141.46 34.2647 141.406 34.0132 141.406 33.7494C141.406 33.4774 141.46 33.2259 141.567 32.9951C141.683 32.756 141.844 32.5499 142.051 32.3768C142.257 32.2037 142.505 32.0676 142.794 31.9687C143.092 31.8615 143.422 31.8079 143.785 31.8079C144.157 31.8079 144.488 31.8615 144.777 31.9687C145.074 32.0676 145.326 32.2037 145.533 32.3768C145.739 32.5499 145.896 32.756 146.004 32.9951C146.119 33.2259 146.177 33.4774 146.177 33.7494C146.177 34.0132 146.119 34.2647 146.004 34.5037C145.896 34.7346 145.739 34.9407 145.533 35.1221C145.326 35.2952 145.074 35.4353 144.777 35.5425C144.488 35.6414 144.157 35.6909 143.785 35.6909ZM141.952 37.6818H145.619V52.2738H141.952V37.6818Z" fill="white"/>
<path d="M152.534 40.4271H149.002V37.6818H152.534V33.1435H156.202V37.6818H159.733V40.4271H156.202V52.2738H152.534V40.4271Z" fill="white"/>
<g filter="url(#filter0_d)">
<path d="M14 18C14 13.5817 17.5817 10 22 10H56C60.4183 10 64 13.5817 64 18V52C64 56.4183 60.4183 60 56 60H22C17.5817 60 14 56.4183 14 52V18Z" fill="url(#paint0_linear)"/>
<path opacity="0.4" fill-rule="evenodd" clip-rule="evenodd" d="M30.8001 19.4668C25.6455 19.4668 21.4668 23.6455 21.4668 28.8001V42.0001C21.4668 47.1548 25.6455 51.3335 30.8001 51.3335H47.0668C52.2215 51.3335 56.4001 47.1548 56.4001 42.0001V33.331C56.6177 31.1945 53.8803 29.2367 51.8584 31.4349C49.8365 33.6331 45.5335 36.3334 44.2668 38.5334C43.0001 40.7334 41.4001 40.9334 40.2001 42.0001C39.0001 43.0668 38.8585 44.605 36.607 42.8001C34.3554 40.9952 28.7939 37.2685 27.1552 34.7601C26.1258 33.7442 26.1258 32.0827 27.1552 31.0668C28.1656 30.0696 30.2564 29.003 31.2668 30.0001L37.007 35.1254C38.0463 36.1512 42.0287 34.8272 43.0668 33.8001C47.5326 30.4228 48.952 28.863 53.5961 25.4863C54.4688 24.6229 56.2479 22.1547 55.4001 21.2668C53.7006 19.4867 51.5223 17.5334 48.8668 17.5334L30.8001 19.4668Z" fill="white"/>
<path opacity="0.3" fill-rule="evenodd" clip-rule="evenodd" d="M29.9998 18.1333C24.8452 18.1333 20.6665 22.3119 20.6665 27.4666V40.6666C20.6665 45.8213 24.8452 49.9999 29.9998 49.9999H46.2665C51.4212 49.9999 55.5998 45.8213 55.5998 40.6666V31.9975C55.8174 29.861 52.7958 27.3333 51.0581 30.1014C49.3204 32.8695 45.6665 33.7999 43.7998 36.7999C41.9332 39.7999 40.8133 39.4619 39.4665 40.2666C38.1197 41.0713 37.8789 43.227 35.0665 40.9999C32.2541 38.7729 27.9307 36.0944 26.062 33.6367C25.0326 32.6208 25.7038 31.1173 26.7332 30.1014C27.7436 29.1042 29.3677 29.1042 30.3781 30.1014L36.2067 33.7919C37.2461 34.8177 37.9617 38.227 38.9998 37.1999C43.4656 33.8226 51.9332 27.0666 52.9998 26.5999C54.0665 26.1333 56.3332 22.8666 55.3998 21.2666C54.4665 19.6666 51.3332 17.2666 48.6665 17.2666C45.9998 17.2666 29.9998 18.1333 29.9998 18.1333Z" fill="white"/>
<path fill-rule="evenodd" clip-rule="evenodd" d="M30.9329 17.6001C25.7783 17.6001 21.5996 21.7788 21.5996 26.9334V43.2001C21.5996 48.3548 25.7783 52.5334 30.9329 52.5334H47.1996C52.3543 52.5334 56.5329 48.3548 56.5329 43.2001V34.531C56.5329 32.1624 53.6754 30.9694 51.9912 32.6349L40.8913 43.6116C39.8519 44.6394 38.1789 44.6389 37.1401 43.6106L28.2645 34.8243C27.2381 33.8081 27.2394 32.1493 28.2674 31.1348C29.279 30.1364 30.9058 30.1382 31.9152 31.1388L38.0775 37.2468C38.5969 37.7616 39.434 37.762 39.9538 37.2477L53.7289 23.6196C54.6016 22.7562 54.7989 21.3771 53.9511 20.4892C52.2516 18.7091 49.8551 17.6001 47.1996 17.6001H30.9329Z" fill="white"/>
</g>
<defs>
<filter id="filter0_d" x="0" y="0" width="78" height="78" filterUnits="userSpaceOnUse" color-interpolation-filters="sRGB">
<feFlood flood-opacity="0" result="BackgroundImageFix"/>
<feColorMatrix in="SourceAlpha" type="matrix" values="0 0 0 0 0 0 0 0 0 0 0 0 0 0 0 0 0 0 127 0"/>
<feOffset dy="4"/>
<feGaussianBlur stdDeviation="7"/>
<feColorMatrix type="matrix" values="0 0 0 0 0 0 0 0 0 0 0 0 0 0 0 0 0 0 0.1 0"/>
<feBlend mode="normal" in2="BackgroundImageFix" result="effect1_dropShadow"/>
<feBlend mode="normal" in="SourceGraphic" in2="effect1_dropShadow" result="shape"/>
</filter>
<linearGradient id="paint0_linear" x1="60.0667" y1="10" x2="16.8667" y2="57.5333" gradientUnits="userSpaceOnUse">
<stop stop-color="#2EEBDA"/>
<stop offset="1" stop-color="#7CF7A3"/>
</linearGradient>
</defs>
</svg>
