<svg aria-hidden="true" style="position: absolute; width: 0; height: 0; overflow: hidden;" version="1.1" xmlns="http://www.w3.org/2000/svg" xmlns:xlink="http://www.w3.org/1999/xlink">
<defs>
<symbol id="icon-bell" viewBox="0 0 32 32">
<path fill="#fff" style="fill: var(--color1, #fff)" d="M28.526 22.551c-2.016-1.704-3.172-4.195-3.172-6.833v-3.717c0-4.692-3.485-8.576-8-9.227v-1.44c0-0.737-0.597-1.333-1.333-1.333s-1.333 0.596-1.333 1.333v1.44c-4.516 0.651-8 4.535-8 9.227v3.717c0 2.639-1.156 5.129-3.184 6.844-0.519 0.444-0.816 1.089-0.816 1.772 0 1.287 1.047 2.333 2.333 2.333h22c1.287 0 2.333-1.047 2.333-2.333 0-0.683-0.297-1.328-0.828-1.783z"></path>
<path fill="#fff" style="fill: var(--color1, #fff)" d="M16.020 32c2.415 0 4.435-1.721 4.899-4h-9.797c0.464 2.279 2.484 4 4.899 4z"></path>
</symbol>
<symbol id="icon-calendar" viewBox="0 0 32 32">
<path fill="#fff" style="fill: var(--color1, #fff)" d="M28 4h-1.333v-2.667c0-0.736-0.597-1.333-1.333-1.333h-1.333c-0.736 0-1.333 0.597-1.333 1.333v2.667h-13.333v-2.667c0-0.736-0.597-1.333-1.333-1.333h-1.333c-0.736 0-1.333 0.597-1.333 1.333v2.667h-1.333c-2.205 0-4 1.795-4 4v20c0 2.205 1.795 4 4 4h24c2.205 0 4-1.795 4-4v-20c0-2.205-1.795-4-4-4zM29.333 28c0 0.735-0.599 1.333-1.333 1.333h-24c-0.735 0-1.333-0.599-1.333-1.333v-14.613h26.667v14.613z"></path>
<path fill="#fff" style="fill: var(--color1, #fff)" d="M6.080 16h3.040c0.707 0 1.28 0.573 1.28 1.28v1.44c0 0.707-0.573 1.28-1.28 1.28h-3.040c-0.707 0-1.28-0.573-1.28-1.28v-1.44c0-0.707 0.573-1.28 1.28-1.28z"></path>
<path fill="#fff" style="fill: var(--color1, #fff)" d="M14.080 16h3.040c0.707 0 1.28 0.573 1.28 1.28v1.44c0 0.707-0.573 1.28-1.28 1.28h-3.040c-0.707 0-1.28-0.573-1.28-1.28v-1.44c0-0.707 0.573-1.28 1.28-1.28z"></path>
<path fill="#fff" style="fill: var(--color1, #fff)" d="M22.080 16h3.040c0.707 0 1.28 0.573 1.28 1.28v1.44c0 0.707-0.573 1.28-1.28 1.28h-3.040c-0.707 0-1.28-0.573-1.28-1.28v-1.44c0-0.707 0.573-1.28 1.28-1.28z"></path>
<path fill="#fff" style="fill: var(--color1, #fff)" d="M6.080 22.4h3.040c0.707 0 1.28 0.573 1.28 1.28v1.44c0 0.707-0.573 1.28-1.28 1.28h-3.040c-0.707 0-1.28-0.573-1.28-1.28v-1.44c0-0.707 0.573-1.28 1.28-1.28z"></path>
<path fill="#fff" style="fill: var(--color1, #fff)" d="M14.080 22.4h3.040c0.707 0 1.28 0.573 1.28 1.28v1.44c0 0.707-0.573 1.28-1.28 1.28h-3.040c-0.707 0-1.28-0.573-1.28-1.28v-1.44c0-0.707 0.573-1.28 1.28-1.28z"></path>
</symbol>
<symbol id="icon-cup" viewBox="0 0 32 32">
<path fill="#fff" style="fill: var(--color1, #fff)" d="M30.4 1.6h-4.8v-1.6h-19.2v1.6h-4.8c-0.96 0-1.6 0.64-1.6 1.6v3.84c0 3.68 2.72 6.72 6.4 7.2v0.16c0 4.64 3.2 8.48 7.52 9.44l-1.12 3.36h-3.68c-0.64 0-1.28 0.48-1.44 1.12l-1.28 3.68h19.2l-1.28-3.68c-0.16-0.64-0.8-1.12-1.44-1.12h-3.68l-1.12-3.36c4.32-0.96 7.52-4.8 7.52-9.44v-0.16c3.68-0.48 6.4-3.52 6.4-7.2v-3.84c0-0.96-0.64-1.6-1.6-1.6zM6.4 11.040c-1.76-0.48-3.2-2.080-3.2-4v-2.24h3.2v6.24zM19.2 16l-3.2-1.76-3.2 1.76 0.8-3.2-2.4-3.2h3.36l1.44-3.2 1.44 3.2h3.36l-2.4 3.2 0.8 3.2zM28.8 7.040c0 1.92-1.44 3.68-3.2 4v-6.24h3.2v2.24z"></path>
</symbol>
</defs>
</svg>
